<svg xmlns="http://www.w3.org/2000/svg" width="33" height="32" viewBox="0 0 33 32" fill="none">
    <path fill-rule="evenodd" clip-rule="evenodd" d="M16.4608 17.7346C16.3732 17.6471 16.258 17.5926 16.1347 17.5804C16.0114 17.5683 15.8878 17.5993 15.7848 17.6681C15.6818 17.7369 15.6059 17.8393 15.5699 17.9578C15.534 18.0763 15.5402 18.2036 15.5876 18.3181C15.635 18.4325 15.7206 18.527 15.8299 18.5853C15.9391 18.6437 16.0652 18.6624 16.1867 18.6383C16.3081 18.6141 16.4175 18.5486 16.4961 18.4528C16.5746 18.3571 16.6176 18.2371 16.6176 18.1132C16.6177 18.0429 16.6039 17.9732 16.577 17.9083C16.5501 17.8433 16.5106 17.7843 16.4608 17.7346ZM24.9385 5.66041L28.535 9.25689L29.2038 8.58937L25.6057 4.99161L24.9385 5.66041ZM13.1961 2.75161H18.968V1.59961H13.1961V2.75161ZM22.9488 10.6476L22.3501 11.2463C22.3106 11.2856 22.2793 11.3323 22.2579 11.3837C22.2365 11.4351 22.2255 11.4902 22.2254 11.5459C22.2253 11.6016 22.2363 11.6567 22.2575 11.7081C22.2788 11.7596 22.31 11.8063 22.3494 11.8457C22.3888 11.8851 22.4355 11.9163 22.487 11.9376C22.5384 11.9588 22.5936 11.9698 22.6492 11.9697C22.7049 11.9696 22.76 11.9586 22.8114 11.9372C22.8628 11.9158 22.9095 11.8845 22.9488 11.845L23.5475 11.2463C25.1736 13.0094 26.1197 15.2933 26.2166 17.6898H25.3699C25.2576 17.6898 25.1499 17.7345 25.0705 17.8138C24.9911 17.8932 24.9465 18.0009 24.9465 18.1132C24.9465 18.2255 24.9911 18.3332 25.0705 18.4126C25.1499 18.492 25.2576 18.5366 25.3699 18.5366H26.2166C26.1197 20.933 25.1737 23.2168 23.5475 24.9798L22.9488 24.3814C22.8693 24.3023 22.7617 24.2579 22.6496 24.258C22.5375 24.2582 22.43 24.3027 22.3507 24.382C22.2714 24.4613 22.2268 24.5688 22.2267 24.6809C22.2266 24.793 22.271 24.9006 22.3501 24.9801L22.9488 25.5788C21.1859 27.205 18.902 28.151 16.5056 28.2476V27.4009C16.5026 27.2906 16.4566 27.1858 16.3775 27.1089C16.2984 27.0319 16.1924 26.9889 16.0821 26.9889C15.9717 26.9889 15.8657 27.0319 15.7866 27.1089C15.7075 27.1858 15.6616 27.2906 15.6585 27.4009V28.2476C13.2621 28.1509 10.9782 27.2049 9.21534 25.5788L9.81406 24.9801C9.8534 24.9408 9.8846 24.8941 9.9059 24.8427C9.92719 24.7914 9.93816 24.7363 9.93817 24.6807C9.93819 24.6251 9.92725 24.57 9.90598 24.5186C9.88471 24.4672 9.85353 24.4205 9.81422 24.3812C9.77491 24.3419 9.72823 24.3107 9.67686 24.2894C9.62549 24.2681 9.57043 24.2571 9.51482 24.2571C9.4592 24.2571 9.40413 24.268 9.35275 24.2893C9.30137 24.3106 9.25468 24.3417 9.21534 24.3811L8.61662 24.9798C6.99047 23.2168 6.04438 20.933 5.9475 18.5366H6.79422C6.9065 18.5366 7.01419 18.492 7.09358 18.4126C7.17298 18.3332 7.21758 18.2255 7.21758 18.1132C7.21758 18.0009 7.17298 17.8932 7.09358 17.8138C7.01419 17.7345 6.9065 17.6898 6.79422 17.6898H5.9475C6.04444 15.2933 6.99052 13.0094 8.61662 11.2463L9.21534 11.845C9.25462 11.8845 9.3013 11.9158 9.3527 11.9372C9.4041 11.9586 9.45922 11.9696 9.5149 11.9697C9.57057 11.9698 9.62571 11.9588 9.67716 11.9376C9.72861 11.9163 9.77535 11.8851 9.81472 11.8457C9.85409 11.8063 9.88531 11.7596 9.90658 11.7081C9.92786 11.6567 9.93878 11.6016 9.93872 11.5459C9.93866 11.4902 9.92762 11.4351 9.90623 11.3837C9.88484 11.3323 9.85352 11.2856 9.81406 11.2463L9.21534 10.6476C10.9782 9.02148 13.2621 8.07549 15.6585 7.97881V8.82553C15.6616 8.93584 15.7075 9.04061 15.7866 9.11756C15.8657 9.19451 15.9717 9.23757 16.0821 9.23757C16.1924 9.23757 16.2984 9.19451 16.3775 9.11756C16.4566 9.04061 16.5026 8.93584 16.5056 8.82553V7.97881C18.902 8.07543 21.1859 9.02143 22.9488 10.6476ZM16.0838 7.12281C18.6264 7.12317 21.0903 8.0051 23.0555 9.61835C25.0208 11.2316 26.3659 13.4764 26.8617 15.9702C27.3575 18.464 26.9733 21.0525 25.7745 23.2948C24.5758 25.5371 22.6366 27.2944 20.2875 28.2673C17.9384 29.2401 15.3246 29.3684 12.8915 28.6302C10.4584 27.8921 8.35655 26.3331 6.94399 24.219C5.53143 22.1049 4.89558 19.5664 5.14479 17.036C5.394 14.5056 6.51285 12.1399 8.3107 10.342C9.33033 9.31971 10.542 8.50903 11.8759 7.95657C13.2099 7.4041 14.64 7.12075 16.0838 7.12281ZM24.7705 9.42681C26.7803 11.4366 28.0309 14.0811 28.3095 16.9096C28.588 19.7382 27.8771 22.5758 26.298 24.939C24.7189 27.3022 22.3693 29.0447 19.6494 29.8697C16.9295 30.6947 14.0077 30.5511 11.3819 29.4634C8.75604 28.3757 6.58858 26.4111 5.24883 23.9044C3.90907 21.3978 3.47991 18.5041 4.03448 15.7165C4.58904 12.9289 6.09301 10.4198 8.29014 8.61679C10.4873 6.81376 13.2416 5.82833 16.0838 5.82841C17.6971 5.82653 19.2949 6.14342 20.7854 6.7609C22.2758 7.37837 23.6296 8.28425 24.7689 9.42649L24.7705 9.42681ZM24.5638 8.08921L25.3661 7.28697L26.9072 8.82809L26.1062 9.63161C25.8716 9.35428 25.6254 9.08686 25.3677 8.82937C25.11 8.57188 24.842 8.32516 24.5638 8.08921ZM16.0838 4.98137C16.5105 4.98137 16.9319 5.00153 17.3481 5.04185V3.59897H14.8201V5.04185C15.2361 5.00217 15.6577 4.98201 16.0848 4.98137H16.0838ZM15.6585 11.1913C15.657 11.1347 15.6668 11.0784 15.6874 11.0256C15.708 10.9729 15.7389 10.9248 15.7784 10.8842C15.8179 10.8436 15.8651 10.8114 15.9172 10.7893C15.9694 10.7673 16.0254 10.756 16.0821 10.756C16.1387 10.756 16.1947 10.7673 16.2469 10.7893C16.299 10.8114 16.3463 10.8436 16.3857 10.8842C16.4252 10.9248 16.4562 10.9729 16.4768 11.0256C16.4973 11.0784 16.5071 11.1347 16.5056 11.1913V16.797C16.7311 16.8697 16.9341 16.999 17.0953 17.1727C17.2564 17.3464 17.3702 17.5586 17.4257 17.7889C17.4812 18.0192 17.4766 18.2599 17.4124 18.4879C17.3481 18.7159 17.2263 18.9236 17.0587 19.091C16.8911 19.2584 16.6832 19.38 16.4551 19.4439C16.227 19.5079 15.9863 19.5122 15.7561 19.4564C15.5258 19.4005 15.3138 19.2865 15.1403 19.1251C14.9669 18.9638 14.8378 18.7606 14.7654 18.535H10.9696C10.8577 18.535 10.7504 18.4905 10.6714 18.4114C10.5923 18.3323 10.5478 18.2251 10.5478 18.1132C10.5478 18.0014 10.5923 17.8941 10.6714 17.815C10.7504 17.7359 10.8577 17.6914 10.9696 17.6914H14.7654C14.8325 17.4819 14.9484 17.2914 15.1038 17.1356C15.2591 16.9798 15.4492 16.8632 15.6585 16.7954V11.1913Z" fill="#344054"/>
</svg>