<svg width="103" height="32" viewBox="0 0 103 32" fill="none" xmlns="http://www.w3.org/2000/svg">
<circle cx="16" cy="16" r="16" fill="#CACACA"/>
<path d="M40.168 21.5L42.604 11.938H45.978L48.4 21.5H46.468L45.936 19.568H42.59L42.086 21.5H40.168ZM42.898 18.014H45.656L44.578 13.506H43.99L42.898 18.014ZM49.3983 21.5V11.602H51.2603V21.5H49.3983ZM52.9119 21.5V11.602H54.7739V21.5H52.9119ZM59.5304 21.5V11.938H63.1844C63.9311 11.938 64.5564 12.0453 65.0604 12.26C65.5738 12.4653 65.9844 12.7687 66.2924 13.17C66.6004 13.5713 66.8198 14.0567 66.9504 14.626C67.0904 15.1953 67.1604 15.844 67.1604 16.572C67.1604 17.3093 67.0951 17.9767 66.9644 18.574C66.8431 19.1713 66.6331 19.6893 66.3344 20.128C66.0358 20.5667 65.6344 20.9073 65.1304 21.15C64.6264 21.3833 63.9964 21.5 63.2404 21.5H59.5304ZM61.4624 19.876H63.1284C63.5671 19.876 63.9218 19.792 64.1924 19.624C64.4631 19.456 64.6684 19.2227 64.8084 18.924C64.9578 18.616 65.0558 18.266 65.1024 17.874C65.1584 17.4727 65.1864 17.0387 65.1864 16.572C65.1864 16.124 65.1584 15.718 65.1024 15.354C65.0464 14.9807 64.9438 14.6633 64.7944 14.402C64.6544 14.1313 64.4491 13.926 64.1784 13.786C63.9171 13.6367 63.5671 13.562 63.1284 13.562H61.4624V19.876ZM68.4966 21.5V14.472H70.3586V15.298C70.5172 15.1767 70.7132 15.0507 70.9466 14.92C71.1799 14.78 71.4319 14.654 71.7026 14.542C71.9826 14.4207 72.2486 14.3413 72.5006 14.304V16.11C72.2579 16.1473 72.0012 16.2127 71.7306 16.306C71.4599 16.39 71.2032 16.4833 70.9606 16.586C70.7272 16.6887 70.5266 16.782 70.3586 16.866V21.5H68.4966ZM73.4731 21.5V14.472H75.3351V21.5H73.4731ZM73.4731 13.352V11.756H75.3491V13.352H73.4731ZM77.9971 21.5L76.3311 14.472H78.3331L79.5091 19.918H79.9151L81.1191 14.472H83.0091L81.3431 21.5H77.9971ZM86.8288 21.654C86.0541 21.654 85.4381 21.5233 84.9808 21.262C84.5328 21.0007 84.2108 20.604 84.0148 20.072C83.8188 19.54 83.7208 18.8727 83.7208 18.07C83.7208 17.202 83.8421 16.4927 84.0848 15.942C84.3368 15.3913 84.7008 14.9853 85.1768 14.724C85.6528 14.4533 86.2408 14.318 86.9408 14.318C87.9768 14.318 88.7561 14.5793 89.2788 15.102C89.8108 15.6247 90.0768 16.4507 90.0768 17.58L89.9928 18.616H85.5968C85.6061 19.1387 85.7135 19.5307 85.9188 19.792C86.1241 20.0533 86.4788 20.184 86.9828 20.184C87.2721 20.184 87.5895 20.1793 87.9348 20.17C88.2801 20.1513 88.6208 20.1327 88.9568 20.114C89.3021 20.0953 89.5961 20.0767 89.8388 20.058L89.8808 21.36C89.6475 21.3973 89.3535 21.4393 88.9988 21.486C88.6441 21.5327 88.2755 21.57 87.8928 21.598C87.5195 21.6353 87.1648 21.654 86.8288 21.654ZM85.5968 17.426H88.2148C88.2148 16.7913 88.1121 16.348 87.9068 16.096C87.7108 15.844 87.3888 15.718 86.9408 15.718C86.5021 15.718 86.1661 15.8487 85.9328 16.11C85.7088 16.3713 85.5968 16.81 85.5968 17.426ZM91.3149 21.5V14.472H93.1769V15.298C93.3356 15.1767 93.5316 15.0507 93.7649 14.92C93.9983 14.78 94.2503 14.654 94.5209 14.542C94.8009 14.4207 95.0669 14.3413 95.3189 14.304V16.11C95.0763 16.1473 94.8196 16.2127 94.5489 16.306C94.2783 16.39 94.0216 16.4833 93.7789 16.586C93.5456 16.6887 93.3449 16.782 93.1769 16.866V21.5H91.3149ZM98.8255 21.654C98.5175 21.654 98.1862 21.6353 97.8315 21.598C97.4862 21.57 97.1595 21.5327 96.8515 21.486C96.5528 21.4393 96.2962 21.3927 96.0815 21.346L96.1375 19.96C96.3802 19.988 96.6508 20.0207 96.9495 20.058C97.2575 20.0953 97.5562 20.128 97.8455 20.156C98.1442 20.1747 98.3868 20.184 98.5735 20.184C98.8535 20.184 99.0822 20.1607 99.2595 20.114C99.4462 20.0673 99.5862 19.9927 99.6795 19.89C99.7728 19.778 99.8195 19.6193 99.8195 19.414C99.8195 19.2553 99.7775 19.134 99.6935 19.05C99.6188 18.966 99.4695 18.896 99.2455 18.84C99.0308 18.7747 98.7135 18.7093 98.2935 18.644C97.7708 18.5693 97.3368 18.462 96.9915 18.322C96.6555 18.182 96.4082 17.9767 96.2495 17.706C96.0908 17.426 96.0115 17.048 96.0115 16.572C96.0115 15.9933 96.1375 15.5407 96.3895 15.214C96.6415 14.8873 96.9775 14.6587 97.3975 14.528C97.8175 14.388 98.2748 14.318 98.7695 14.318C99.0962 14.318 99.4322 14.3367 99.7775 14.374C100.123 14.402 100.449 14.4393 100.757 14.486C101.065 14.5327 101.322 14.5793 101.527 14.626L101.471 16.04C101.238 16.0027 100.967 15.97 100.659 15.942C100.351 15.9047 100.043 15.8767 99.7355 15.858C99.4368 15.8393 99.1848 15.83 98.9795 15.83C98.7648 15.83 98.5735 15.8533 98.4055 15.9C98.2375 15.9373 98.1068 16.0027 98.0135 16.096C97.9295 16.1893 97.8875 16.3293 97.8875 16.516C97.8875 16.6467 97.9248 16.754 97.9995 16.838C98.0742 16.922 98.2142 16.9967 98.4195 17.062C98.6342 17.118 98.9422 17.174 99.3435 17.23C99.9222 17.314 100.384 17.4307 100.729 17.58C101.075 17.7293 101.322 17.944 101.471 18.224C101.63 18.504 101.709 18.882 101.709 19.358C101.709 20.2073 101.457 20.8047 100.953 21.15C100.459 21.486 99.7495 21.654 98.8255 21.654Z" fill="#0D3244"/>
<path d="M22.2725 13.6367C21.3676 13.6367 20.5802 14.1483 20.1833 14.8972L18.1211 14.4701C18.0996 14.1034 18.0022 13.7569 17.8447 13.4457L20.9785 11.0581C21.3506 11.3026 21.7951 11.4454 22.2725 11.4454C23.5757 11.4454 24.6358 10.3852 24.6358 9.08207C24.6358 7.77896 23.5757 6.71879 22.2725 6.71879C20.9694 6.71879 19.9093 7.77896 19.9093 9.08207C19.9093 9.43953 19.9894 9.77843 20.1321 10.0824L16.9964 12.4714C16.7428 12.2952 16.457 12.1624 16.1495 12.0843V9.6365C17.1402 9.35518 17.8682 8.44296 17.8682 7.36328C17.8682 6.06017 16.808 5 15.5049 5C14.2018 5 13.1416 6.06017 13.1416 7.36328C13.1416 8.44296 13.8697 9.35514 14.8604 9.6365V12.0843C14.5529 12.1624 14.2671 12.2952 14.0135 12.4714L10.8778 10.0824C11.0204 9.77843 11.1006 9.43949 11.1006 9.08207C11.1006 7.77896 10.0404 6.71879 8.7373 6.71879C7.43419 6.71879 6.37402 7.77896 6.37402 9.08207C6.37402 10.3852 7.43419 11.4454 8.7373 11.4454C9.21477 11.4454 9.65929 11.3026 10.0313 11.0581L13.1652 13.4457C13.0077 13.7569 12.9102 14.1034 12.8887 14.4701L10.8266 14.8972C10.4298 14.1483 9.64236 13.6367 8.73739 13.6367C7.43428 13.6367 6.37411 14.6969 6.37411 16C6.37411 17.3031 7.43428 18.3633 8.73739 18.3633C9.98735 18.3633 11.0131 17.3877 11.0948 16.158L13.1304 15.7365C13.2451 15.9815 13.398 16.2082 13.5854 16.409C13.5816 16.4584 13.579 16.5082 13.579 16.5586V19.3859C12.8776 19.5444 12.2462 19.937 11.7901 20.511C11.2088 21.2427 10.9795 22.1856 11.1593 23.1012C11.3271 24.3169 12.3294 26.59 12.3395 26.613C12.4428 26.8461 12.6736 26.9964 12.9285 26.9966L19.2024 27C19.463 27 19.6983 26.8431 19.7982 26.6024C19.8281 26.5303 20.5353 24.8215 20.97 23.4905C21.1959 22.7997 21.1191 22.0417 20.7591 21.4109C20.3993 20.7805 19.7865 20.3291 19.0777 20.1724L17.4463 19.8117V16.5586C17.4463 16.503 17.4433 16.448 17.4387 16.3936C17.6195 16.1967 17.7677 15.9752 17.8795 15.7365L19.9152 16.1581C19.9968 17.3877 21.0226 18.3633 22.2725 18.3633C23.5757 18.3633 24.6358 17.3031 24.6358 16C24.6358 14.6969 23.5757 13.6367 22.2725 13.6367ZM14.2566 15.0903C14.2021 14.9437 14.1729 14.7866 14.1729 14.625C14.1729 13.8905 14.7705 13.293 15.505 13.293C16.2394 13.293 16.837 13.8905 16.837 14.625C16.837 14.7828 16.8092 14.9364 16.757 15.0802C16.4205 14.7964 15.9863 14.625 15.5127 14.625C15.0335 14.625 14.5948 14.8006 14.2566 15.0903ZM22.2725 8.00781C22.8649 8.00781 23.3468 8.48971 23.3468 9.08203C23.3468 9.67436 22.8649 10.1562 22.2725 10.1562C21.6802 10.1562 21.1983 9.67436 21.1983 9.08203C21.1983 8.48971 21.6802 8.00781 22.2725 8.00781ZM14.4308 7.36328C14.4308 6.77096 14.9126 6.28906 15.505 6.28906C16.0973 6.28906 16.5792 6.77096 16.5792 7.36328C16.5792 7.95561 16.0973 8.4375 15.505 8.4375C14.9126 8.4375 14.4308 7.95561 14.4308 7.36328ZM7.66317 9.08203C7.66317 8.48971 8.14507 8.00781 8.73739 8.00781C9.32972 8.00781 9.81161 8.48971 9.81161 9.08203C9.81161 9.67436 9.32972 10.1562 8.73739 10.1562C8.14507 10.1562 7.66317 9.67436 7.66317 9.08203ZM8.73739 17.0742C8.14507 17.0742 7.66317 16.5923 7.66317 16C7.66317 15.4077 8.14507 14.9258 8.73739 14.9258C9.32972 14.9258 9.81161 15.4077 9.81161 16C9.81161 16.5923 9.32972 17.0742 8.73739 17.0742ZM18.7994 21.4311C19.1588 21.5105 19.4571 21.7302 19.6394 22.0497C19.822 22.3697 19.8595 22.739 19.7448 23.0896C19.4484 23.9975 19.0054 25.1238 18.7693 25.7106L13.3545 25.7077C13.0408 24.953 12.5264 23.6139 12.4345 22.9113C12.4325 22.8961 12.43 22.8811 12.4269 22.8661C12.3151 22.3177 12.4509 21.7515 12.7994 21.3128C13.0074 21.0511 13.2768 20.8533 13.579 20.7323V22.4883C13.579 22.8442 13.8676 23.1328 14.2236 23.1328C14.5795 23.1328 14.8681 22.8442 14.8681 22.4883V19.954V16.5586C14.8681 16.2032 15.1572 15.9141 15.5126 15.9141C15.868 15.9141 16.1571 16.2032 16.1571 16.5586V20.3321C16.1571 20.6515 16.391 20.9227 16.7069 20.9696L16.7249 20.9723L18.7994 21.4311ZM22.2725 17.0742C21.6802 17.0742 21.1983 16.5923 21.1983 16C21.1983 15.4077 21.6802 14.9258 22.2725 14.9258C22.8649 14.9258 23.3468 15.4077 23.3468 16C23.3468 16.5923 22.8649 17.0742 22.2725 17.0742Z" fill="white"/>
</svg>
