<svg width="96" height="32" viewBox="0 0 96 32" fill="none" xmlns="http://www.w3.org/2000/svg">
<circle cx="16" cy="16" r="16" fill="#B1DADA"/>
<g filter="url(#filter0_f_2133_18722)">
<path d="M23.4236 24.8699C24.6314 24.5051 26.8304 23.5083 27.6207 22.7705C28.532 21.9983 26.6418 21.1343 26.4175 21.0041C26.1933 20.8739 15.1717 15.4058 13.2494 14.5596C11.327 13.7133 5.23972 15.4986 3.76574 16.3172C2.56427 16.9844 3.41331 17.4564 3.57351 17.5866C3.7337 17.7168 12.9147 22.8356 16.2147 24.3979C18.7139 25.5811 21.0527 25.5859 23.4236 24.8699Z" fill="black" fill-opacity="0.2"/>
</g>
<path fill-rule="evenodd" clip-rule="evenodd" d="M14.7035 19.1354L15.9228 18.5698L15.9231 18.5706C15.931 18.5668 15.9389 18.5631 15.9469 18.5595C16.6732 18.2334 17.7093 18.9721 18.2611 20.2094C18.8129 21.4467 18.6715 22.7141 17.9452 23.0402C17.9347 23.0449 17.9241 23.0494 17.9134 23.0537L16.7391 23.5992L16.0864 22.1678C15.9149 21.9406 15.7598 21.679 15.631 21.3902C15.5122 21.1239 15.4256 20.8563 15.37 20.5969L14.7035 19.1354Z" fill="white"/>
<ellipse cx="1.44216" cy="2.45001" rx="1.44216" ry="2.45001" transform="matrix(-0.911862 0.409373 0.407504 0.913706 16.0537 18.5333)" fill="white"/>
<g filter="url(#filter1_i_2133_18722)">
<ellipse cx="1.08167" cy="1.83759" rx="1.08167" ry="1.83759" transform="matrix(-0.911862 0.409373 0.407504 0.913706 15.9329 19.2417)" fill="url(#paint0_linear_2133_18722)"/>
</g>
<g filter="url(#filter2_di_2133_18722)">
<path fill-rule="evenodd" clip-rule="evenodd" d="M15.8726 20.144C15.9822 20.2274 16.0888 20.3321 16.1879 20.4549L15.8726 21.0028L15.8726 20.144ZM15.8726 22.079L16.2739 22.7765C16.1496 22.8195 16.0127 22.8159 15.8726 22.7724L15.8726 22.079ZM15.676 22.6866L15.676 21.8793C15.6566 21.8676 15.6372 21.8542 15.6182 21.8391L15.3031 22.3865C15.4218 22.5133 15.5484 22.615 15.676 22.6866ZM15.676 20.8453L15.676 20.0192C15.4655 19.9116 15.2542 19.8872 15.0736 19.9682C15.0232 19.9909 14.9772 20.0208 14.9359 20.0572L15.4011 20.8656C15.4171 20.8516 15.4348 20.8401 15.4542 20.8314C15.5209 20.8014 15.5983 20.8086 15.676 20.8453ZM16.4449 22.6794L15.9867 21.8832C16.015 21.8594 16.0379 21.8281 16.0552 21.7909L16.7047 22.1671C16.6676 22.3865 16.5799 22.5664 16.4449 22.6794ZM15.345 21.4329C15.3375 21.4111 15.3309 21.3895 15.3252 21.368L14.6754 20.9916C14.6932 21.1779 14.7386 21.3762 14.8127 21.576L15.345 21.4329ZM16.0804 21.439C16.0903 21.4901 16.0951 21.5397 16.0951 21.5866L16.7247 21.9513C16.7292 21.7479 16.6972 21.5227 16.6268 21.2921L16.0804 21.439ZM16.5618 21.1058L16.0227 21.2507L16.0138 21.23C16.0073 21.2154 16.0005 21.2011 15.9934 21.187L16.3148 20.6286C16.3889 20.7406 16.4567 20.8635 16.5156 20.9956C16.532 21.0323 16.5473 21.069 16.5618 21.1058ZM15.4774 21.6896L15.1682 22.2268C15.0637 22.09 14.9686 21.9328 14.8888 21.7593L15.4283 21.6143C15.4438 21.6407 15.4602 21.6659 15.4774 21.6896ZM15.2972 21.1244L14.6676 20.7597C14.6743 20.55 14.7203 20.3644 14.8034 20.2211L15.3007 21.0852C15.2991 21.098 15.298 21.1111 15.2972 21.1244Z" fill="#4C4C4C"/>
</g>
<path fill-rule="evenodd" clip-rule="evenodd" d="M14.7042 19.1097L15.9235 18.544L15.9237 18.5444C15.9312 18.5407 15.9388 18.5372 15.9465 18.5338C16.6728 18.2077 17.7089 18.9464 18.2607 20.1837C18.8125 21.421 18.6711 22.6884 17.9448 23.0145C17.9371 23.0179 17.9294 23.0212 17.9216 23.0244L16.7399 23.5735L16.0889 22.146C15.9163 21.9178 15.7601 21.6549 15.6306 21.3645C15.5111 21.0966 15.4241 20.8273 15.3685 20.5664L14.7042 19.1097Z" fill="white"/>
<path d="M14.408 21.9527C14.9594 23.189 15.9951 23.9269 16.7214 23.6009C17.4477 23.2748 17.5895 22.0083 17.0381 20.7719C16.4867 19.5356 15.4198 18.7311 14.6935 19.0571C13.9672 19.3832 13.8566 20.7163 14.408 21.9527Z" fill="#2E2E2E"/>
<g filter="url(#filter3_i_2133_18722)">
<ellipse cx="1.01375" cy="1.77215" rx="1.01375" ry="1.77215" transform="matrix(-0.907827 0.41954 0.394422 0.918899 15.9299 19.3097)" fill="url(#paint1_linear_2133_18722)"/>
</g>
<g filter="url(#filter4_di_2133_18722)">
<path fill-rule="evenodd" clip-rule="evenodd" d="M15.2716 22.1082C15.386 22.2632 15.5139 22.3879 15.6444 22.474L15.4517 22.0338L15.2716 22.1082ZM14.9895 21.5853C14.8687 21.267 14.8293 20.9507 14.8651 20.6935L15.2147 21.4923L14.9895 21.5853ZM16.3743 21.0135C16.1032 20.4085 15.625 20.0347 15.2616 20.1312L15.5323 20.7498C15.6974 20.7401 15.8967 20.9037 16.0207 21.1595L16.3743 21.0135ZM16.5437 21.5829C16.6055 21.9969 16.5213 22.357 16.3066 22.519L16.0357 21.9001C16.0677 21.8645 16.0916 21.8178 16.1071 21.7632L16.5437 21.5829Z" fill="#A9A8A8"/>
</g>
<path fill-rule="evenodd" clip-rule="evenodd" d="M5.54153 14.5259L6.61595 14.248L6.61614 14.2487C6.62302 14.2468 6.62994 14.245 6.63691 14.2433C7.27528 14.0866 8.00721 14.841 8.27173 15.9282C8.53624 17.0155 8.23316 18.024 7.59479 18.1807C7.58508 18.1831 7.57536 18.1852 7.56561 18.1872L6.53225 18.4551L6.21477 17.196C6.10909 16.9857 6.02177 16.7498 5.95997 16.4958C5.90297 16.2615 5.87233 16.0308 5.86572 15.8116L5.54153 14.5259Z" fill="white"/>
<ellipse cx="1.19107" cy="2.02306" rx="1.19107" ry="2.02306" transform="matrix(-0.970456 0.238231 0.236561 0.972367 6.72681 14.2379)" fill="white"/>
<g filter="url(#filter5_i_2133_18722)">
<ellipse cx="0.893348" cy="1.51738" rx="0.893348" ry="1.51738" transform="matrix(-0.970456 0.238231 0.236561 0.972367 6.52417 14.7953)" fill="url(#paint2_linear_2133_18722)"/>
</g>
<g filter="url(#filter6_di_2133_18722)">
<path fill-rule="evenodd" clip-rule="evenodd" d="M6.3403 15.519C6.41703 15.6031 6.48819 15.7042 6.55046 15.8187L6.21268 16.2172L6.3403 15.519ZM6.05296 17.0909L6.27544 17.7173C6.16809 17.7338 6.05738 17.7104 5.95 17.6542L6.05296 17.0909ZM5.80312 17.5552L5.92292 16.8998C5.90887 16.8875 5.89516 16.8737 5.8819 16.8586L5.54495 17.2561C5.62244 17.3767 5.71015 17.4781 5.80312 17.5552ZM6.07648 16.0598L6.1992 15.3884C6.04416 15.2697 5.87621 15.2184 5.71752 15.2574C5.67315 15.2683 5.63137 15.2857 5.5924 15.3092L5.85025 16.0352C5.86522 16.0262 5.88126 16.0196 5.89828 16.0154C5.9569 16.001 6.01877 16.0183 6.07648 16.0598ZM6.42874 17.664L6.17484 16.9491C6.20124 16.934 6.22442 16.912 6.24399 16.8845L6.71582 17.2869C6.65304 17.4594 6.55514 17.5924 6.42874 17.664ZM5.72019 16.4877C5.71736 16.469 5.71522 16.4505 5.71375 16.4322L5.24205 16.0299C5.22891 16.1837 5.23635 16.3514 5.26688 16.5246L5.72019 16.4877ZM6.31673 16.6021C6.31718 16.6452 6.31375 16.6864 6.30675 16.7245L6.76412 17.1146C6.79808 16.95 6.80555 16.7621 6.78256 16.5642L6.31673 16.6021ZM6.75745 16.4031L6.29784 16.4406L6.29367 16.4226C6.29056 16.4098 6.28717 16.3972 6.28354 16.3848L6.62773 15.9787C6.67129 16.0807 6.70806 16.1907 6.73628 16.3066C6.74414 16.3389 6.75119 16.3711 6.75745 16.4031ZM5.78971 16.7162L5.45907 17.1063C5.39443 16.9796 5.34052 16.8377 5.30147 16.6849L5.76088 16.6474C5.76959 16.6713 5.77924 16.6943 5.78971 16.7162ZM5.72723 16.2302L5.27008 15.8403C5.30664 15.6708 5.37157 15.5267 5.46045 15.4227L5.73597 16.1984C5.73275 16.2087 5.72984 16.2193 5.72723 16.2302Z" fill="#4C4C4C"/>
</g>
<path fill-rule="evenodd" clip-rule="evenodd" d="M5.53793 14.5542L6.61235 14.2763L6.6124 14.2765C6.6191 14.2747 6.62584 14.2729 6.63262 14.2712C7.271 14.1145 8.00293 14.8689 8.26744 15.9562C8.53195 17.0435 8.22888 18.0519 7.5905 18.2086C7.58469 18.2101 7.57888 18.2114 7.57305 18.2127L6.52865 18.4834L6.21165 17.2262C6.10545 17.0153 6.01771 16.7787 5.95568 16.5237C5.89846 16.2885 5.8678 16.057 5.86135 15.837L5.53793 14.5542Z" fill="white"/>
<ellipse cx="1.2043" cy="2.04554" rx="1.2043" ry="2.04554" transform="matrix(-0.970456 0.238231 0.236561 0.972367 6.73071 14.2171)" fill="#2E2E2E"/>
<g filter="url(#filter7_i_2133_18722)">
<g filter="url(#filter8_i_2133_18722)">
<ellipse cx="0.838089" cy="1.4651" rx="0.838089" ry="1.4651" transform="matrix(-0.955804 0.291458 0.30431 0.953325 6.32959 14.988)" fill="url(#paint3_linear_2133_18722)"/>
</g>
<g filter="url(#filter9_di_2133_18722)">
<path fill-rule="evenodd" clip-rule="evenodd" d="M5.51165 17.1809C5.58451 17.3129 5.67021 17.4247 5.76198 17.5094L5.66057 17.1488L5.51165 17.1809ZM5.33212 16.7043C5.27051 16.4344 5.27383 16.1776 5.33088 15.9768L5.52391 16.663L5.33212 16.7043ZM6.54353 16.4436C6.39014 15.9162 6.03849 15.5455 5.72677 15.5709L5.87811 16.109C6.016 16.1243 6.16208 16.2853 6.23497 16.51L6.54353 16.4436ZM6.61701 16.9431C6.6162 17.279 6.50476 17.5506 6.31117 17.6485L6.15989 17.1107C6.18665 17.0899 6.20933 17.0614 6.22751 17.0269L6.61701 16.9431Z" fill="#A9A8A8"/>
</g>
</g>
<g filter="url(#filter10_ii_2133_18722)">
<path fill-rule="evenodd" clip-rule="evenodd" d="M21.5437 13.8888C21.579 13.9188 21.6164 13.9466 21.6578 13.9672C21.6869 13.9817 21.7137 13.9924 21.7385 13.999C22.1912 14.1202 25.9834 16.2004 26.8102 17.0363C27.6148 17.8498 27.5702 18.336 27.5494 18.5617C27.5464 18.5943 27.544 18.6215 27.5446 18.6434C27.5478 18.7528 27.5469 18.9729 27.5459 19.253C27.5453 19.4179 27.5446 19.6036 27.5446 19.7997L27.5446 20.4661C27.543 20.5159 27.5432 20.5667 27.5435 20.6185C27.5444 20.8388 27.5455 21.0782 27.4105 21.3405C27.2441 21.6639 26.4407 22.8497 22.5421 24.0746C21.2205 24.4898 19.6854 24.0288 18.7062 23.623C18.3943 23.5068 18.1402 23.3936 17.9691 23.3126C17.9394 23.2986 17.9123 23.2809 17.888 23.2603C17.862 23.2381 17.8354 23.2161 17.8051 23.2004C17.7722 23.1833 17.7505 23.1505 17.7472 23.1136C17.7182 22.7869 17.6421 22.3433 17.5328 21.8987C17.4009 21.391 17.2262 20.8867 17.0344 20.5586C16.5866 19.7929 15.6336 18.8485 14.8843 19.1073C14.0338 19.4009 14.0991 20.624 14.1155 20.9161C14.1203 21.002 14.1302 21.0593 14.1401 21.1158C14.1425 21.1301 14.1437 21.1441 14.1437 21.1576C14.1437 21.1905 14.1459 21.2238 14.1529 21.256C14.1541 21.2613 14.1552 21.267 14.1562 21.2731C14.1741 21.3787 14.0536 21.4459 13.9584 21.3967C13.9347 21.3845 13.9081 21.3799 13.8815 21.3775C13.8478 21.3745 13.8135 21.365 13.7805 21.3481L7.52144 18.1458C7.45321 18.1109 7.39696 18.0573 7.36273 17.9921C7.36096 17.9888 7.35825 17.986 7.35488 17.9843C7.34995 17.9817 7.34645 17.977 7.34552 17.9716C7.34414 17.9634 7.34293 17.9552 7.3419 17.947C7.34134 17.9426 7.34041 17.9383 7.33916 17.9341C7.33269 17.9121 7.32859 17.8892 7.32715 17.8655C7.32033 17.7532 7.32064 17.6295 7.32098 17.496C7.32228 16.9781 7.32397 16.3124 6.91072 15.5892C6.53299 14.9282 5.98269 14.4907 5.48311 14.6475C4.98354 14.8042 4.84766 15.3423 4.82043 15.642C4.79368 15.9363 4.80958 16.2064 4.8188 16.363V16.3631C4.82251 16.4261 4.82514 16.4708 4.82347 16.4912C4.81766 16.5626 4.09835 15.9436 4.05211 15.7077C3.91138 14.9899 3.88206 14.3178 3.95591 13.5892C3.96633 13.4864 4.00041 13.2483 4.0311 13.1088C4.04361 13.052 4.05095 12.9937 4.04959 12.9355C4.04388 12.6899 4.08591 12.3659 4.14903 12.2223C4.15515 12.2084 4.16112 12.1937 4.16738 12.1783C4.24052 11.9986 4.35473 11.7179 5.23498 11.3243C6.48488 10.7652 9.88837 9.52082 10.0201 9.49173C10.3312 9.423 10.7297 9.45253 11.0524 9.47643C11.2417 9.49046 11.4048 9.50255 11.5089 9.49172C13.0117 9.3353 14.7537 9.54275 17.0523 10.7021C17.3604 10.8328 17.665 10.9819 17.96 11.1522C18.6973 11.5779 19.3183 12.03 19.8346 12.4458C20.4349 12.9047 20.8979 13.3172 21.2304 13.6135C21.3522 13.722 21.4565 13.8149 21.5437 13.8888Z" fill="url(#paint4_linear_2133_18722)"/>
</g>
<g filter="url(#filter11_ddi_2133_18722)">
<path d="M15.5625 16.5275C14.7571 16.1941 14.2915 15.1273 13.1242 13.8596C13.0295 13.7568 13.0649 13.5894 13.1946 13.5373L18.1595 11.5432C18.1889 11.5314 18.2203 11.5272 18.2506 11.5364C18.4044 11.5832 18.9674 11.8221 20.3264 13.0171C21.0697 13.6708 21.2185 13.841 21.6025 14.0999C21.6632 14.1408 21.6526 14.231 21.4295 14.4149C20.7182 15.0012 16.7986 17.0392 15.5625 16.5275Z" fill="url(#paint5_linear_2133_18722)"/>
</g>
<path d="M9.66688 12.1247C8.5681 11.7789 8.28535 11.7769 7.52682 11.7342C7.00487 11.7047 6.17616 11.7819 6.08575 12.0169C5.99534 12.2519 6.99864 12.99 7.41393 13.2199C7.61689 13.3322 14.619 16.8415 14.3963 16.4267C14.122 15.9157 12.8594 14.4561 12.4282 13.86C11.7093 12.8663 10.7657 12.4706 9.66688 12.1247Z" fill="url(#paint6_linear_2133_18722)"/>
<g filter="url(#filter12_di_2133_18722)">
<path d="M7.17663 11.4329L11.7864 9.55524C11.7864 9.55524 11.6831 9.59166 11.1174 9.58333C10.92 9.58043 6.1358 11.5472 6.10085 11.5779L7.17663 11.4329Z" fill="url(#paint7_linear_2133_18722)"/>
</g>
<g filter="url(#filter13_f_2133_18722)">
<path d="M17.6805 19.0593C15.9101 18.2363 14.9154 17.2032 13.8489 16.2589C17.0249 17.2007 23.6726 19.2616 23.5684 19.3957C23.4382 19.5633 22.9607 19.7622 21.3743 19.8692C19.8124 19.9745 17.8832 19.1535 17.6805 19.0593Z" fill="url(#paint8_linear_2133_18722)" fill-opacity="0.21"/>
</g>
<g filter="url(#filter14_f_2133_18722)">
<path d="M24.5167 15.131C24.4161 15.0483 23.1522 13.7383 22.2058 13.0861C22.988 14.6128 24.7715 17.9311 24.9374 17.9145C25.1447 17.8937 26.0934 17.7161 26.3728 17.0706C26.6479 16.4351 24.6425 15.2344 24.5167 15.131Z" fill="url(#paint9_linear_2133_18722)" fill-opacity="0.13"/>
</g>
<g filter="url(#filter15_di_2133_18722)">
<path d="M11.3812 16.6202C11.3812 16.5792 11.3579 16.5419 11.3211 16.524L10.8047 16.2728C10.7337 16.2383 10.6511 16.29 10.6511 16.369C10.6511 16.4102 10.6747 16.4478 10.7117 16.4657L11.2285 16.7161C11.2992 16.7503 11.3812 16.6988 11.3812 16.6202Z" fill="#2E2E2E"/>
</g>
<g filter="url(#filter16_di_2133_18722)">
<path d="M7.99427 15.125C7.99427 15.0841 7.97091 15.0467 7.93415 15.0288L7.41773 14.7776C7.3467 14.7431 7.26419 14.7948 7.26419 14.8739C7.26419 14.915 7.28771 14.9526 7.32472 14.9705L7.84153 15.2209C7.91225 15.2551 7.99427 15.2036 7.99427 15.125Z" fill="#2E2E2E"/>
</g>
<g filter="url(#filter17_f_2133_18722)">
<path d="M12.9223 20.566L7.83194 18.0738C7.73372 18.0258 7.65993 17.9392 7.62886 17.8343C7.47078 17.3009 7.22628 16.4338 7.22081 16.2404C7.21321 15.9718 14.0496 19.2243 13.8103 19.832C13.7779 19.9144 13.7525 19.9962 13.7328 20.0761C13.6513 20.4078 13.2291 20.7162 12.9223 20.566Z" fill="url(#paint10_linear_2133_18722)" fill-opacity="0.22"/>
</g>
<path d="M19.0105 15.7534L14.9755 12.8135C14.5134 12.9386 13.4617 13.4095 13.2613 13.4848C13.0017 13.5823 12.9585 13.6367 12.9585 13.6367C12.9585 13.7151 12.9986 13.7494 13.1246 13.8719C13.3053 14.0475 13.3818 14.1283 13.8294 14.6999C14.4741 15.5231 14.9646 16.289 15.4349 16.4728C15.809 16.619 16.3926 16.7468 17.2231 16.4728C17.9654 16.2278 18.4223 15.9509 19.0105 15.7534Z" fill="#C4C4C4" fill-opacity="0.2"/>
<g opacity="0.17" filter="url(#filter18_f_2133_18722)">
<path d="M26.1655 18.0826C25.0661 18.9526 22.6204 20.1962 21.5284 20.3859" stroke="url(#paint11_linear_2133_18722)" stroke-width="6.49057" stroke-linecap="round" stroke-linejoin="round"/>
</g>
<g filter="url(#filter19_ddii_2133_18722)">
<path d="M27.005 18.4C27.2108 18.122 27.1614 17.8979 27.1298 17.556C27.127 17.5255 27.1195 17.4952 27.1121 17.4655C27.0604 17.2579 27.4318 17.8172 27.4721 18.2091C27.4859 18.3442 27.4773 18.4126 27.4646 18.5373C27.4588 18.5943 27.3415 18.9426 27.3589 19.0177C27.3763 19.0929 27.338 19.6111 27.3407 19.6894C27.3433 19.7677 27.0163 20.3504 26.1573 20.9125C25.4438 21.3793 24.4193 21.6858 24.3142 21.7009C24.2092 21.716 24.1063 21.3636 24.03 21.3441C23.8305 21.2932 23.2411 21.5097 23.021 21.5651C22.7643 21.6296 22.1652 21.7785 21.5104 21.6944C20.7006 21.5903 20.5767 21.4982 19.8322 21.0928C19.5216 20.9236 19.2677 20.6542 19.09 20.4051C18.9292 20.1797 19.1251 19.9712 19.3882 20.0574C19.964 20.2461 20.8293 20.5052 21.7806 20.6027C23.5678 20.786 24.9794 19.9365 25.1817 19.8144C26.0318 19.3011 26.4783 19.1113 27.005 18.4Z" fill="#2E2E2E"/>
</g>
<mask id="mask0_2133_18722" style="mask-type:alpha" maskUnits="userSpaceOnUse" x="19" y="18" width="9" height="4">
<path d="M27.005 18.3964C27.0195 18.3767 27.0328 18.3568 27.0451 18.3367C27.1913 18.0955 27.5162 17.9425 27.559 18.2213C27.5729 18.3564 27.5696 18.4422 27.557 18.5669C27.5513 18.624 27.3418 18.9387 27.3593 19.0139C27.3767 19.0891 27.3388 19.6073 27.3415 19.6856C27.3442 19.7639 27.0176 20.3468 26.159 20.9094C25.4457 21.3767 24.4213 21.6838 24.3163 21.699C24.2113 21.7141 24.1082 21.3618 24.0319 21.3424C23.8323 21.2916 23.243 21.5085 23.0231 21.564C22.7663 21.6287 22.1674 21.7779 21.5126 21.6942C20.7026 21.5907 20.5787 21.4987 19.8339 21.0937C19.5232 20.9248 19.2692 20.6555 19.0913 20.4066C18.9304 20.1813 19.1261 19.9726 19.3892 20.0586C19.9652 20.247 20.8306 20.5055 21.782 20.6025C23.5693 20.7846 24.9804 19.9342 25.1826 19.812C26.0324 19.2981 26.4788 19.108 27.005 18.3964Z" fill="#999999"/>
</mask>
<g mask="url(#mask0_2133_18722)">
<g filter="url(#filter20_d_2133_18722)">
<path d="M22.4768 20.2989C22.4771 20.3004 22.4774 20.302 22.4778 20.3036C22.49 20.3631 22.4956 20.4384 22.4769 20.5139C22.4589 20.5862 22.4172 20.6646 22.3237 20.7346C22.2278 20.8064 22.07 20.8747 21.8126 20.9093C21.6638 20.9293 21.4539 20.9288 21.2376 20.8878C21.0209 20.8466 20.8083 20.7668 20.6447 20.6363C20.5598 20.5686 20.4475 20.4264 20.3497 20.2874C20.3448 20.2804 20.3399 20.2735 20.3351 20.2666L22.4768 20.2989Z" stroke="#2E2E2E" stroke-width="0.292653"/>
</g>
<g filter="url(#filter21_d_2133_18722)">
<path d="M27.1128 17.8555C27.1485 17.9751 27.1611 18.1279 27.0859 18.2899C27.067 18.3305 27.0458 18.345 27.0381 18.3481C27.0355 18.3491 27.0344 18.3491 27.0332 18.3489C27.0316 18.3486 27.0239 18.3471 27.0106 18.337C26.9552 18.2951 26.887 18.2831 26.8412 18.2785C26.8388 18.2783 26.8365 18.2781 26.8342 18.2779L27.1128 17.8555Z" stroke="#2E2E2E" stroke-width="0.292653"/>
</g>
</g>
<path d="M40.882 21.5V11.938H47.238V13.548H42.814V15.872H46.398V17.454H42.814V19.89H47.238V21.5H40.882ZM51.3509 21.654C50.5483 21.654 49.9183 21.5327 49.4609 21.29C49.0129 21.038 48.6956 20.6367 48.5089 20.086C48.3316 19.5353 48.2429 18.812 48.2429 17.916C48.2429 17.0293 48.3456 16.3247 48.5509 15.802C48.7563 15.27 49.0876 14.892 49.5449 14.668C50.0116 14.4347 50.6183 14.318 51.3649 14.318C51.5609 14.318 51.7896 14.332 52.0509 14.36C52.3123 14.388 52.5736 14.4253 52.8349 14.472C53.1056 14.5093 53.3343 14.5467 53.5209 14.584L53.4509 16.082C53.2736 16.0633 53.0729 16.0493 52.8489 16.04C52.6249 16.0213 52.4056 16.0073 52.1909 15.998C51.9856 15.9793 51.8176 15.97 51.6869 15.97C51.2856 15.97 50.9683 16.0353 50.7349 16.166C50.5109 16.2873 50.3523 16.4927 50.2589 16.782C50.1749 17.062 50.1329 17.44 50.1329 17.916C50.1329 18.4293 50.1749 18.84 50.2589 19.148C50.3429 19.456 50.4923 19.6753 50.7069 19.806C50.9309 19.9367 51.2576 20.002 51.6869 20.002C51.8176 20.002 51.9903 19.9973 52.2049 19.988C52.4196 19.9693 52.6389 19.9507 52.8629 19.932C53.0963 19.9133 53.3016 19.8993 53.4789 19.89L53.5349 21.388C53.3483 21.4253 53.1243 21.4627 52.8629 21.5C52.6016 21.5467 52.3356 21.584 52.0649 21.612C51.8036 21.64 51.5656 21.654 51.3509 21.654ZM57.7667 21.654C56.9733 21.654 56.334 21.5233 55.8487 21.262C55.3727 21.0007 55.0273 20.5993 54.8127 20.058C54.598 19.5073 54.4907 18.798 54.4907 17.93C54.4907 17.09 54.6027 16.4087 54.8267 15.886C55.0507 15.354 55.4053 14.962 55.8907 14.71C56.376 14.4487 57.0013 14.318 57.7667 14.318C58.5413 14.318 59.1667 14.4487 59.6427 14.71C60.128 14.962 60.4827 15.354 60.7067 15.886C60.94 16.4087 61.0567 17.09 61.0567 17.93C61.0567 18.798 60.9493 19.5073 60.7347 20.058C60.52 20.5993 60.17 21.0007 59.6847 21.262C59.2087 21.5233 58.5693 21.654 57.7667 21.654ZM57.7667 20.114C58.1587 20.114 58.4527 20.044 58.6487 19.904C58.8447 19.7547 58.9753 19.5213 59.0407 19.204C59.1153 18.8773 59.1527 18.4527 59.1527 17.93C59.1527 17.4167 59.1107 17.0107 59.0267 16.712C58.9427 16.404 58.8027 16.1847 58.6067 16.054C58.4107 15.9233 58.1307 15.858 57.7667 15.858C57.412 15.858 57.132 15.9233 56.9267 16.054C56.7307 16.1847 56.5907 16.404 56.5067 16.712C56.4227 17.0107 56.3807 17.4167 56.3807 17.93C56.3807 18.4527 56.4133 18.8773 56.4787 19.204C56.5533 19.5213 56.6887 19.7547 56.8847 19.904C57.0807 20.044 57.3747 20.114 57.7667 20.114ZM62.3305 21.5V14.472H64.1925V14.92C64.3419 14.8267 64.5239 14.738 64.7385 14.654C64.9532 14.5607 65.1772 14.4813 65.4105 14.416C65.6532 14.3507 65.8865 14.318 66.1105 14.318C66.7639 14.318 67.2679 14.4347 67.6225 14.668C67.9865 14.892 68.2432 15.2653 68.3925 15.788C68.5419 16.3013 68.6165 16.992 68.6165 17.86V21.5H66.7405V17.958C66.7405 17.4727 66.7125 17.0853 66.6565 16.796C66.6005 16.4973 66.4932 16.2827 66.3345 16.152C66.1759 16.0213 65.9425 15.956 65.6345 15.956C65.4665 15.956 65.2892 15.9747 65.1025 16.012C64.9252 16.04 64.7525 16.082 64.5845 16.138C64.4259 16.194 64.2952 16.25 64.1925 16.306V21.5H62.3305ZM73.0928 21.654C72.2995 21.654 71.6602 21.5233 71.1748 21.262C70.6988 21.0007 70.3535 20.5993 70.1388 20.058C69.9242 19.5073 69.8168 18.798 69.8168 17.93C69.8168 17.09 69.9288 16.4087 70.1528 15.886C70.3768 15.354 70.7315 14.962 71.2168 14.71C71.7022 14.4487 72.3275 14.318 73.0928 14.318C73.8675 14.318 74.4928 14.4487 74.9688 14.71C75.4542 14.962 75.8088 15.354 76.0328 15.886C76.2662 16.4087 76.3828 17.09 76.3828 17.93C76.3828 18.798 76.2755 19.5073 76.0608 20.058C75.8462 20.5993 75.4962 21.0007 75.0108 21.262C74.5348 21.5233 73.8955 21.654 73.0928 21.654ZM73.0928 20.114C73.4848 20.114 73.7788 20.044 73.9748 19.904C74.1708 19.7547 74.3015 19.5213 74.3668 19.204C74.4415 18.8773 74.4788 18.4527 74.4788 17.93C74.4788 17.4167 74.4368 17.0107 74.3528 16.712C74.2688 16.404 74.1288 16.1847 73.9328 16.054C73.7368 15.9233 73.4568 15.858 73.0928 15.858C72.7382 15.858 72.4582 15.9233 72.2528 16.054C72.0568 16.1847 71.9168 16.404 71.8328 16.712C71.7488 17.0107 71.7068 17.4167 71.7068 17.93C71.7068 18.4527 71.7395 18.8773 71.8048 19.204C71.8795 19.5213 72.0148 19.7547 72.2108 19.904C72.4068 20.044 72.7008 20.114 73.0928 20.114ZM77.6567 21.5V14.472H79.5187V14.92C79.7334 14.7893 80.0227 14.6587 80.3867 14.528C80.7507 14.388 81.0961 14.318 81.4227 14.318C81.8521 14.318 82.2021 14.3787 82.4727 14.5C82.7434 14.612 82.9674 14.78 83.1447 15.004C83.3127 14.9013 83.5227 14.7987 83.7747 14.696C84.0267 14.5933 84.3021 14.5047 84.6007 14.43C84.8994 14.3553 85.1887 14.318 85.4687 14.318C86.1594 14.318 86.6867 14.4393 87.0507 14.682C87.4147 14.9247 87.6667 15.3073 87.8067 15.83C87.9467 16.3433 88.0167 17.0153 88.0167 17.846V21.5H86.1547V18.014C86.1547 17.5287 86.1267 17.1367 86.0707 16.838C86.0241 16.53 85.9214 16.306 85.7627 16.166C85.6134 16.026 85.3847 15.956 85.0767 15.956C84.8061 15.956 84.5401 15.9933 84.2787 16.068C84.0174 16.1427 83.8121 16.2173 83.6627 16.292C83.7094 16.488 83.7421 16.74 83.7607 17.048C83.7887 17.356 83.8027 17.678 83.8027 18.014V21.5H81.9407V18.042C81.9407 17.5473 81.9127 17.146 81.8567 16.838C81.8101 16.53 81.7074 16.306 81.5487 16.166C81.3901 16.026 81.1614 15.956 80.8627 15.956C80.6014 15.956 80.3447 15.9933 80.0927 16.068C79.8501 16.1427 79.6587 16.2173 79.5187 16.292V21.5H77.6567ZM91.2186 24.454L92.1146 21.5H90.6166L88.9506 14.472H90.8966L92.1426 19.918H92.5066L93.7526 14.472H95.6286L93.2066 24.454H91.2186Z" fill="#0D3244"/>
<defs>
<filter id="filter0_f_2133_18722" x="2.27591" y="13.4804" width="26.4484" height="12.7339" filterUnits="userSpaceOnUse" color-interpolation-filters="sRGB">
<feFlood flood-opacity="0" result="BackgroundImageFix"/>
<feBlend mode="normal" in="SourceGraphic" in2="BackgroundImageFix" result="shape"/>
<feGaussianBlur stdDeviation="0.42845" result="effect1_foregroundBlur_2133_18722"/>
</filter>
<filter id="filter1_i_2133_18722" x="14.4568" y="19.6267" width="2.47705" height="3.47369" filterUnits="userSpaceOnUse" color-interpolation-filters="sRGB">
<feFlood flood-opacity="0" result="BackgroundImageFix"/>
<feBlend mode="normal" in="SourceGraphic" in2="BackgroundImageFix" result="shape"/>
<feColorMatrix in="SourceAlpha" type="matrix" values="0 0 0 0 0 0 0 0 0 0 0 0 0 0 0 0 0 0 127 0" result="hardAlpha"/>
<feMorphology radius="0.0983419" operator="erode" in="SourceAlpha" result="effect1_innerShadow_2133_18722"/>
<feOffset/>
<feGaussianBlur stdDeviation="0.049171"/>
<feComposite in2="hardAlpha" operator="arithmetic" k2="-1" k3="1"/>
<feColorMatrix type="matrix" values="0 0 0 0 0 0 0 0 0 0 0 0 0 0 0 0 0 0 0.25 0"/>
<feBlend mode="normal" in2="shape" result="effect1_innerShadow_2133_18722"/>
</filter>
<filter id="filter2_di_2133_18722" x="14.3725" y="19.9005" width="2.41165" height="3.10313" filterUnits="userSpaceOnUse" color-interpolation-filters="sRGB">
<feFlood flood-opacity="0" result="BackgroundImageFix"/>
<feColorMatrix in="SourceAlpha" type="matrix" values="0 0 0 0 0 0 0 0 0 0 0 0 0 0 0 0 0 0 127 0" result="hardAlpha"/>
<feOffset dy="0.0393368"/>
<feGaussianBlur stdDeviation="0.0295026"/>
<feColorMatrix type="matrix" values="0 0 0 0 1 0 0 0 0 1 0 0 0 0 1 0 0 0 0.41 0"/>
<feBlend mode="normal" in2="BackgroundImageFix" result="effect1_dropShadow_2133_18722"/>
<feBlend mode="normal" in="SourceGraphic" in2="effect1_dropShadow_2133_18722" result="shape"/>
<feColorMatrix in="SourceAlpha" type="matrix" values="0 0 0 0 0 0 0 0 0 0 0 0 0 0 0 0 0 0 127 0" result="hardAlpha"/>
<feOffset dx="-0.295026" dy="0.196684"/>
<feGaussianBlur stdDeviation="0.147513"/>
<feComposite in2="hardAlpha" operator="arithmetic" k2="-1" k3="1"/>
<feColorMatrix type="matrix" values="0 0 0 0 0 0 0 0 0 0 0 0 0 0 0 0 0 0 0.25 0"/>
<feBlend mode="normal" in2="shape" result="effect2_innerShadow_2133_18722"/>
</filter>
<filter id="filter3_i_2133_18722" x="14.553" y="19.68" width="2.31128" height="3.36691" filterUnits="userSpaceOnUse" color-interpolation-filters="sRGB">
<feFlood flood-opacity="0" result="BackgroundImageFix"/>
<feBlend mode="normal" in="SourceGraphic" in2="BackgroundImageFix" result="shape"/>
<feColorMatrix in="SourceAlpha" type="matrix" values="0 0 0 0 0 0 0 0 0 0 0 0 0 0 0 0 0 0 127 0" result="hardAlpha"/>
<feMorphology radius="0.243877" operator="erode" in="SourceAlpha" result="effect1_innerShadow_2133_18722"/>
<feOffset/>
<feGaussianBlur stdDeviation="0.121939"/>
<feComposite in2="hardAlpha" operator="arithmetic" k2="-1" k3="1"/>
<feColorMatrix type="matrix" values="0 0 0 0 0 0 0 0 0 0 0 0 0 0 0 0 0 0 0.25 0"/>
<feBlend mode="normal" in2="shape" result="effect1_innerShadow_2133_18722"/>
</filter>
<filter id="filter4_di_2133_18722" x="14.5404" y="20.0953" width="2.12704" height="2.63168" filterUnits="userSpaceOnUse" color-interpolation-filters="sRGB">
<feFlood flood-opacity="0" result="BackgroundImageFix"/>
<feColorMatrix in="SourceAlpha" type="matrix" values="0 0 0 0 0 0 0 0 0 0 0 0 0 0 0 0 0 0 127 0" result="hardAlpha"/>
<feOffset dy="0.0831723"/>
<feGaussianBlur stdDeviation="0.0519827"/>
<feColorMatrix type="matrix" values="0 0 0 0 1 0 0 0 0 1 0 0 0 0 1 0 0 0 0.59 0"/>
<feBlend mode="normal" in2="BackgroundImageFix" result="effect1_dropShadow_2133_18722"/>
<feBlend mode="normal" in="SourceGraphic" in2="effect1_dropShadow_2133_18722" result="shape"/>
<feColorMatrix in="SourceAlpha" type="matrix" values="0 0 0 0 0 0 0 0 0 0 0 0 0 0 0 0 0 0 127 0" result="hardAlpha"/>
<feOffset dx="-0.311896" dy="0.207931"/>
<feGaussianBlur stdDeviation="0.155948"/>
<feComposite in2="hardAlpha" operator="arithmetic" k2="-1" k3="1"/>
<feColorMatrix type="matrix" values="0 0 0 0 0 0 0 0 0 0 0 0 0 0 0 0 0 0 0.25 0"/>
<feBlend mode="normal" in2="shape" result="effect2_innerShadow_2133_18722"/>
</filter>
<filter id="filter5_i_2133_18722" x="5.07764" y="14.9927" width="1.8772" height="2.98181" filterUnits="userSpaceOnUse" color-interpolation-filters="sRGB">
<feFlood flood-opacity="0" result="BackgroundImageFix"/>
<feBlend mode="normal" in="SourceGraphic" in2="BackgroundImageFix" result="shape"/>
<feColorMatrix in="SourceAlpha" type="matrix" values="0 0 0 0 0 0 0 0 0 0 0 0 0 0 0 0 0 0 127 0" result="hardAlpha"/>
<feMorphology radius="0.081212" operator="erode" in="SourceAlpha" result="effect1_innerShadow_2133_18722"/>
<feOffset/>
<feGaussianBlur stdDeviation="0.040606"/>
<feComposite in2="hardAlpha" operator="arithmetic" k2="-1" k3="1"/>
<feColorMatrix type="matrix" values="0 0 0 0 0 0 0 0 0 0 0 0 0 0 0 0 0 0 0.25 0"/>
<feBlend mode="normal" in2="shape" result="effect1_innerShadow_2133_18722"/>
</filter>
<filter id="filter6_di_2133_18722" x="4.9922" y="15.2283" width="1.85242" height="2.65666" filterUnits="userSpaceOnUse" color-interpolation-filters="sRGB">
<feFlood flood-opacity="0" result="BackgroundImageFix"/>
<feColorMatrix in="SourceAlpha" type="matrix" values="0 0 0 0 0 0 0 0 0 0 0 0 0 0 0 0 0 0 127 0" result="hardAlpha"/>
<feOffset dy="0.0324848"/>
<feGaussianBlur stdDeviation="0.0243636"/>
<feColorMatrix type="matrix" values="0 0 0 0 1 0 0 0 0 1 0 0 0 0 1 0 0 0 0.41 0"/>
<feBlend mode="normal" in2="BackgroundImageFix" result="effect1_dropShadow_2133_18722"/>
<feBlend mode="normal" in="SourceGraphic" in2="effect1_dropShadow_2133_18722" result="shape"/>
<feColorMatrix in="SourceAlpha" type="matrix" values="0 0 0 0 0 0 0 0 0 0 0 0 0 0 0 0 0 0 127 0" result="hardAlpha"/>
<feOffset dx="-0.243636" dy="0.162424"/>
<feGaussianBlur stdDeviation="0.121818"/>
<feComposite in2="hardAlpha" operator="arithmetic" k2="-1" k3="1"/>
<feColorMatrix type="matrix" values="0 0 0 0 0 0 0 0 0 0 0 0 0 0 0 0 0 0 0.25 0"/>
<feBlend mode="normal" in2="shape" result="effect2_innerShadow_2133_18722"/>
</filter>
<filter id="filter7_i_2133_18722" x="5.05737" y="15.2108" width="1.83398" height="2.8363" filterUnits="userSpaceOnUse" color-interpolation-filters="sRGB">
<feFlood flood-opacity="0" result="BackgroundImageFix"/>
<feBlend mode="normal" in="SourceGraphic" in2="BackgroundImageFix" result="shape"/>
<feColorMatrix in="SourceAlpha" type="matrix" values="0 0 0 0 0 0 0 0 0 0 0 0 0 0 0 0 0 0 127 0" result="hardAlpha"/>
<feMorphology radius="0.243877" operator="erode" in="SourceAlpha" result="effect1_innerShadow_2133_18722"/>
<feOffset/>
<feGaussianBlur stdDeviation="0.121939"/>
<feComposite in2="hardAlpha" operator="arithmetic" k2="-1" k3="1"/>
<feColorMatrix type="matrix" values="0 0 0 0 0 0 0 0 0 0 0 0 0 0 0 0 0 0 0.25 0"/>
<feBlend mode="normal" in2="shape" result="effect1_innerShadow_2133_18722"/>
</filter>
<filter id="filter8_i_2133_18722" x="5.05737" y="15.2108" width="1.83398" height="2.8363" filterUnits="userSpaceOnUse" color-interpolation-filters="sRGB">
<feFlood flood-opacity="0" result="BackgroundImageFix"/>
<feBlend mode="normal" in="SourceGraphic" in2="BackgroundImageFix" result="shape"/>
<feColorMatrix in="SourceAlpha" type="matrix" values="0 0 0 0 0 0 0 0 0 0 0 0 0 0 0 0 0 0 127 0" result="hardAlpha"/>
<feMorphology radius="0.0730898" operator="erode" in="SourceAlpha" result="effect1_innerShadow_2133_18722"/>
<feOffset/>
<feGaussianBlur stdDeviation="0.0365449"/>
<feComposite in2="hardAlpha" operator="arithmetic" k2="-1" k3="1"/>
<feColorMatrix type="matrix" values="0 0 0 0 0 0 0 0 0 0 0 0 0 0 0 0 0 0 0.25 0"/>
<feBlend mode="normal" in2="shape" result="effect1_innerShadow_2133_18722"/>
</filter>
<filter id="filter9_di_2133_18722" x="4.97521" y="15.5489" width="1.7457" height="2.30755" filterUnits="userSpaceOnUse" color-interpolation-filters="sRGB">
<feFlood flood-opacity="0" result="BackgroundImageFix"/>
<feColorMatrix in="SourceAlpha" type="matrix" values="0 0 0 0 0 0 0 0 0 0 0 0 0 0 0 0 0 0 127 0" result="hardAlpha"/>
<feOffset dy="0.0831723"/>
<feGaussianBlur stdDeviation="0.0519827"/>
<feColorMatrix type="matrix" values="0 0 0 0 1 0 0 0 0 1 0 0 0 0 1 0 0 0 0.59 0"/>
<feBlend mode="normal" in2="BackgroundImageFix" result="effect1_dropShadow_2133_18722"/>
<feBlend mode="normal" in="SourceGraphic" in2="effect1_dropShadow_2133_18722" result="shape"/>
<feColorMatrix in="SourceAlpha" type="matrix" values="0 0 0 0 0 0 0 0 0 0 0 0 0 0 0 0 0 0 127 0" result="hardAlpha"/>
<feOffset dx="-0.311896" dy="0.207931"/>
<feGaussianBlur stdDeviation="0.155948"/>
<feComposite in2="hardAlpha" operator="arithmetic" k2="-1" k3="1"/>
<feColorMatrix type="matrix" values="0 0 0 0 0 0 0 0 0 0 0 0 0 0 0 0 0 0 0.25 0"/>
<feBlend mode="normal" in2="shape" result="effect2_innerShadow_2133_18722"/>
</filter>
<filter id="filter10_ii_2133_18722" x="3.91675" y="7.49497" width="25.1044" height="16.7428" filterUnits="userSpaceOnUse" color-interpolation-filters="sRGB">
<feFlood flood-opacity="0" result="BackgroundImageFix"/>
<feBlend mode="normal" in="SourceGraphic" in2="BackgroundImageFix" result="shape"/>
<feColorMatrix in="SourceAlpha" type="matrix" values="0 0 0 0 0 0 0 0 0 0 0 0 0 0 0 0 0 0 127 0" result="hardAlpha"/>
<feOffset dx="1.46326" dy="-1.95102"/>
<feGaussianBlur stdDeviation="5.85305"/>
<feComposite in2="hardAlpha" operator="arithmetic" k2="-1" k3="1"/>
<feColorMatrix type="matrix" values="0 0 0 0 0 0 0 0 0 0 0 0 0 0 0 0 0 0 0.07 0"/>
<feBlend mode="normal" in2="shape" result="effect1_innerShadow_2133_18722"/>
<feColorMatrix in="SourceAlpha" type="matrix" values="0 0 0 0 0 0 0 0 0 0 0 0 0 0 0 0 0 0 127 0" result="hardAlpha"/>
<feOffset dy="-0.243877"/>
<feGaussianBlur stdDeviation="0.487754"/>
<feComposite in2="hardAlpha" operator="arithmetic" k2="-1" k3="1"/>
<feColorMatrix type="matrix" values="0 0 0 0 0 0 0 0 0 0 0 0 0 0 0 0 0 0 0.09 0"/>
<feBlend mode="normal" in2="effect1_innerShadow_2133_18722" result="effect2_innerShadow_2133_18722"/>
</filter>
<filter id="filter11_ddi_2133_18722" x="12.6772" y="11.2363" width="9.15377" height="5.66784" filterUnits="userSpaceOnUse" color-interpolation-filters="sRGB">
<feFlood flood-opacity="0" result="BackgroundImageFix"/>
<feColorMatrix in="SourceAlpha" type="matrix" values="0 0 0 0 0 0 0 0 0 0 0 0 0 0 0 0 0 0 127 0" result="hardAlpha"/>
<feOffset dx="-0.196684" dy="0.0983419"/>
<feGaussianBlur stdDeviation="0.0983419"/>
<feColorMatrix type="matrix" values="0 0 0 0 1 0 0 0 0 1 0 0 0 0 1 0 0 0 0.28 0"/>
<feBlend mode="normal" in2="BackgroundImageFix" result="effect1_dropShadow_2133_18722"/>
<feColorMatrix in="SourceAlpha" type="matrix" values="0 0 0 0 0 0 0 0 0 0 0 0 0 0 0 0 0 0 127 0" result="hardAlpha"/>
<feOffset dy="-0.0983419"/>
<feGaussianBlur stdDeviation="0.0983419"/>
<feColorMatrix type="matrix" values="0 0 0 0 1 0 0 0 0 1 0 0 0 0 1 0 0 0 0.56 0"/>
<feBlend mode="normal" in2="effect1_dropShadow_2133_18722" result="effect2_dropShadow_2133_18722"/>
<feBlend mode="normal" in="SourceGraphic" in2="effect2_dropShadow_2133_18722" result="shape"/>
<feColorMatrix in="SourceAlpha" type="matrix" values="0 0 0 0 0 0 0 0 0 0 0 0 0 0 0 0 0 0 127 0" result="hardAlpha"/>
<feOffset dx="-0.0983419" dy="0.295026"/>
<feGaussianBlur stdDeviation="0.147513"/>
<feComposite in2="hardAlpha" operator="arithmetic" k2="-1" k3="1"/>
<feColorMatrix type="matrix" values="0 0 0 0 0 0 0 0 0 0 0 0 0 0 0 0 0 0 0.75 0"/>
<feBlend mode="normal" in2="shape" result="effect3_innerShadow_2133_18722"/>
</filter>
<filter id="filter12_di_2133_18722" x="5.70746" y="9.55524" width="6.18061" height="2.41607" filterUnits="userSpaceOnUse" color-interpolation-filters="sRGB">
<feFlood flood-opacity="0" result="BackgroundImageFix"/>
<feColorMatrix in="SourceAlpha" type="matrix" values="0 0 0 0 0 0 0 0 0 0 0 0 0 0 0 0 0 0 127 0" result="hardAlpha"/>
<feOffset dy="0.101698"/>
<feGaussianBlur stdDeviation="0.0508492"/>
<feColorMatrix type="matrix" values="0 0 0 0 0.925374 0 0 0 0 0.925374 0 0 0 0 0.925374 0 0 0 0.37 0"/>
<feBlend mode="normal" in2="BackgroundImageFix" result="effect1_dropShadow_2133_18722"/>
<feBlend mode="normal" in="SourceGraphic" in2="effect1_dropShadow_2133_18722" result="shape"/>
<feColorMatrix in="SourceAlpha" type="matrix" values="0 0 0 0 0 0 0 0 0 0 0 0 0 0 0 0 0 0 127 0" result="hardAlpha"/>
<feOffset dx="-0.393368" dy="0.49171"/>
<feGaussianBlur stdDeviation="0.196684"/>
<feComposite in2="hardAlpha" operator="arithmetic" k2="-1" k3="1"/>
<feColorMatrix type="matrix" values="0 0 0 0 0 0 0 0 0 0 0 0 0 0 0 0 0 0 0.8 0"/>
<feBlend mode="normal" in2="shape" result="effect2_innerShadow_2133_18722"/>
</filter>
<filter id="filter13_f_2133_18722" x="11.0953" y="13.5053" width="15.2279" height="9.12681" filterUnits="userSpaceOnUse" color-interpolation-filters="sRGB">
<feFlood flood-opacity="0" result="BackgroundImageFix"/>
<feBlend mode="normal" in="SourceGraphic" in2="BackgroundImageFix" result="shape"/>
<feGaussianBlur stdDeviation="1.37679" result="effect1_foregroundBlur_2133_18722"/>
</filter>
<filter id="filter14_f_2133_18722" x="20.4357" y="11.3159" width="7.73318" height="8.36877" filterUnits="userSpaceOnUse" color-interpolation-filters="sRGB">
<feFlood flood-opacity="0" result="BackgroundImageFix"/>
<feBlend mode="normal" in="SourceGraphic" in2="BackgroundImageFix" result="shape"/>
<feGaussianBlur stdDeviation="0.885077" result="effect1_foregroundBlur_2133_18722"/>
</filter>
<filter id="filter15_di_2133_18722" x="10.6023" y="16.1644" width="0.827775" height="0.806363" filterUnits="userSpaceOnUse" color-interpolation-filters="sRGB">
<feFlood flood-opacity="0" result="BackgroundImageFix"/>
<feColorMatrix in="SourceAlpha" type="matrix" values="0 0 0 0 0 0 0 0 0 0 0 0 0 0 0 0 0 0 127 0" result="hardAlpha"/>
<feOffset dy="-0.0487754"/>
<feGaussianBlur stdDeviation="0.0243877"/>
<feColorMatrix type="matrix" values="0 0 0 0 0.78755 0 0 0 0 0.78755 0 0 0 0 0.78755 0 0 0 0.19 0"/>
<feBlend mode="normal" in2="BackgroundImageFix" result="effect1_dropShadow_2133_18722"/>
<feBlend mode="normal" in="SourceGraphic" in2="effect1_dropShadow_2133_18722" result="shape"/>
<feColorMatrix in="SourceAlpha" type="matrix" values="0 0 0 0 0 0 0 0 0 0 0 0 0 0 0 0 0 0 127 0" result="hardAlpha"/>
<feOffset dy="0.243877"/>
<feGaussianBlur stdDeviation="0.121939"/>
<feComposite in2="hardAlpha" operator="arithmetic" k2="-1" k3="1"/>
<feColorMatrix type="matrix" values="0 0 0 0 0 0 0 0 0 0 0 0 0 0 0 0 0 0 0.74 0"/>
<feBlend mode="normal" in2="shape" result="effect2_innerShadow_2133_18722"/>
</filter>
<filter id="filter16_di_2133_18722" x="7.21538" y="14.6692" width="0.827775" height="0.806363" filterUnits="userSpaceOnUse" color-interpolation-filters="sRGB">
<feFlood flood-opacity="0" result="BackgroundImageFix"/>
<feColorMatrix in="SourceAlpha" type="matrix" values="0 0 0 0 0 0 0 0 0 0 0 0 0 0 0 0 0 0 127 0" result="hardAlpha"/>
<feOffset dy="-0.0487754"/>
<feGaussianBlur stdDeviation="0.0243877"/>
<feColorMatrix type="matrix" values="0 0 0 0 0.78755 0 0 0 0 0.78755 0 0 0 0 0.78755 0 0 0 0.19 0"/>
<feBlend mode="normal" in2="BackgroundImageFix" result="effect1_dropShadow_2133_18722"/>
<feBlend mode="normal" in="SourceGraphic" in2="effect1_dropShadow_2133_18722" result="shape"/>
<feColorMatrix in="SourceAlpha" type="matrix" values="0 0 0 0 0 0 0 0 0 0 0 0 0 0 0 0 0 0 127 0" result="hardAlpha"/>
<feOffset dy="0.243877"/>
<feGaussianBlur stdDeviation="0.121939"/>
<feComposite in2="hardAlpha" operator="arithmetic" k2="-1" k3="1"/>
<feColorMatrix type="matrix" values="0 0 0 0 0 0 0 0 0 0 0 0 0 0 0 0 0 0 0.74 0"/>
<feBlend mode="normal" in2="shape" result="effect2_innerShadow_2133_18722"/>
</filter>
<filter id="filter17_f_2133_18722" x="6.63065" y="15.6346" width="7.77581" height="5.5605" filterUnits="userSpaceOnUse" color-interpolation-filters="sRGB">
<feFlood flood-opacity="0" result="BackgroundImageFix"/>
<feBlend mode="normal" in="SourceGraphic" in2="BackgroundImageFix" result="shape"/>
<feGaussianBlur stdDeviation="0.295026" result="effect1_foregroundBlur_2133_18722"/>
</filter>
<filter id="filter18_f_2133_18722" x="17.2991" y="13.8538" width="13.0953" height="10.7614" filterUnits="userSpaceOnUse" color-interpolation-filters="sRGB">
<feFlood flood-opacity="0" result="BackgroundImageFix"/>
<feBlend mode="normal" in="SourceGraphic" in2="BackgroundImageFix" result="shape"/>
<feGaussianBlur stdDeviation="0.49171" result="effect1_foregroundBlur_2133_18722"/>
</filter>
<filter id="filter19_ddii_2133_18722" x="18.9093" y="17.2371" width="8.69231" height="5.32605" filterUnits="userSpaceOnUse" color-interpolation-filters="sRGB">
<feFlood flood-opacity="0" result="BackgroundImageFix"/>
<feColorMatrix in="SourceAlpha" type="matrix" values="0 0 0 0 0 0 0 0 0 0 0 0 0 0 0 0 0 0 127 0" result="hardAlpha"/>
<feOffset dy="0.0918004"/>
<feGaussianBlur stdDeviation="0.0612002"/>
<feColorMatrix type="matrix" values="0 0 0 0 0 0 0 0 0 0 0 0 0 0 0 0 0 0 0.57 0"/>
<feBlend mode="normal" in2="BackgroundImageFix" result="effect1_dropShadow_2133_18722"/>
<feColorMatrix in="SourceAlpha" type="matrix" values="0 0 0 0 0 0 0 0 0 0 0 0 0 0 0 0 0 0 127 0" result="hardAlpha"/>
<feOffset dy="-0.0612002"/>
<feGaussianBlur stdDeviation="0.0612002"/>
<feColorMatrix type="matrix" values="0 0 0 0 0 0 0 0 0 0 0 0 0 0 0 0 0 0 1 0"/>
<feBlend mode="normal" in2="effect1_dropShadow_2133_18722" result="effect2_dropShadow_2133_18722"/>
<feBlend mode="normal" in="SourceGraphic" in2="effect2_dropShadow_2133_18722" result="shape"/>
<feColorMatrix in="SourceAlpha" type="matrix" values="0 0 0 0 0 0 0 0 0 0 0 0 0 0 0 0 0 0 127 0" result="hardAlpha"/>
<feOffset dy="0.843717"/>
<feGaussianBlur stdDeviation="0.859839"/>
<feComposite in2="hardAlpha" operator="arithmetic" k2="-1" k3="1"/>
<feColorMatrix type="matrix" values="0 0 0 0 0 0 0 0 0 0 0 0 0 0 0 0 0 0 1 0"/>
<feBlend mode="normal" in2="shape" result="effect3_innerShadow_2133_18722"/>
<feColorMatrix in="SourceAlpha" type="matrix" values="0 0 0 0 0 0 0 0 0 0 0 0 0 0 0 0 0 0 127 0" result="hardAlpha"/>
<feOffset dy="-0.0919405"/>
<feGaussianBlur stdDeviation="0.0919405"/>
<feComposite in2="hardAlpha" operator="arithmetic" k2="-1" k3="1"/>
<feColorMatrix type="matrix" values="0 0 0 0 0 0 0 0 0 0 0 0 0 0 0 0 0 0 1 0"/>
<feBlend mode="normal" in2="effect3_innerShadow_2133_18722" result="effect4_innerShadow_2133_18722"/>
</filter>
<filter id="filter20_d_2133_18722" x="20.0379" y="20.1161" width="2.81608" height="1.19468" filterUnits="userSpaceOnUse" color-interpolation-filters="sRGB">
<feFlood flood-opacity="0" result="BackgroundImageFix"/>
<feColorMatrix in="SourceAlpha" type="matrix" values="0 0 0 0 0 0 0 0 0 0 0 0 0 0 0 0 0 0 127 0" result="hardAlpha"/>
<feOffset dx="0.0975509" dy="0.121177"/>
<feGaussianBlur stdDeviation="0.0605883"/>
<feColorMatrix type="matrix" values="0 0 0 0 1 0 0 0 0 1 0 0 0 0 1 0 0 0 0.24 0"/>
<feBlend mode="normal" in2="BackgroundImageFix" result="effect1_dropShadow_2133_18722"/>
<feBlend mode="normal" in="SourceGraphic" in2="effect1_dropShadow_2133_18722" result="shape"/>
</filter>
<filter id="filter21_d_2133_18722" x="26.5247" y="17.5611" width="0.981367" height="1.17662" filterUnits="userSpaceOnUse" color-interpolation-filters="sRGB">
<feFlood flood-opacity="0" result="BackgroundImageFix"/>
<feColorMatrix in="SourceAlpha" type="matrix" values="0 0 0 0 0 0 0 0 0 0 0 0 0 0 0 0 0 0 127 0" result="hardAlpha"/>
<feOffset dx="0.0975508" dy="0.121176"/>
<feGaussianBlur stdDeviation="0.0605882"/>
<feColorMatrix type="matrix" values="0 0 0 0 1 0 0 0 0 1 0 0 0 0 1 0 0 0 0.24 0"/>
<feBlend mode="normal" in2="BackgroundImageFix" result="effect1_dropShadow_2133_18722"/>
<feBlend mode="normal" in="SourceGraphic" in2="effect1_dropShadow_2133_18722" result="shape"/>
</filter>
<linearGradient id="paint0_linear_2133_18722" x1="2.55143" y1="2.80321" x2="2.67849" y2="0.913419" gradientUnits="userSpaceOnUse">
<stop stop-color="#3F3F3F"/>
<stop offset="1" stop-color="#5C5C5C"/>
</linearGradient>
<linearGradient id="paint1_linear_2133_18722" x1="2.39121" y1="2.70337" x2="2.51726" y2="0.881369" gradientUnits="userSpaceOnUse">
<stop stop-color="#AAAAAA"/>
<stop offset="1" stop-color="#C2C2C2"/>
</linearGradient>
<linearGradient id="paint2_linear_2133_18722" x1="2.10721" y1="2.31472" x2="2.21211" y2="0.754245" gradientUnits="userSpaceOnUse">
<stop stop-color="#3F3F3F"/>
<stop offset="1" stop-color="#5C5C5C"/>
</linearGradient>
<linearGradient id="paint3_linear_2133_18722" x1="1.97687" y1="2.23498" x2="2.08108" y2="0.728662" gradientUnits="userSpaceOnUse">
<stop stop-color="#AAAAAA"/>
<stop offset="1" stop-color="#C2C2C2"/>
</linearGradient>
<linearGradient id="paint4_linear_2133_18722" x1="17.2396" y1="23.5441" x2="28.075" y2="10.341" gradientUnits="userSpaceOnUse">
<stop stop-color="#D8D8D8"/>
<stop offset="1" stop-color="white"/>
</linearGradient>
<linearGradient id="paint5_linear_2133_18722" x1="18.2555" y1="7.04763" x2="12.0821" y2="12.8879" gradientUnits="userSpaceOnUse">
<stop stop-color="#E8EAE9"/>
<stop offset="0.498386" stop-color="#707072"/>
<stop offset="1" stop-color="#2F3032"/>
</linearGradient>
<linearGradient id="paint6_linear_2133_18722" x1="8.12035" y1="26.6137" x2="14.0184" y2="15.8356" gradientUnits="userSpaceOnUse">
<stop stop-color="#E8EAE9"/>
<stop offset="0.498386" stop-color="#707072"/>
<stop offset="1" stop-color="#2F3032"/>
</linearGradient>
<linearGradient id="paint7_linear_2133_18722" x1="5.60504" y1="15.4744" x2="8.89371" y2="10.662" gradientUnits="userSpaceOnUse">
<stop stop-color="#E8EAE9"/>
<stop offset="0.498386" stop-color="#707072"/>
<stop offset="1" stop-color="#2F3032"/>
</linearGradient>
<linearGradient id="paint8_linear_2133_18722" x1="18.388" y1="20.0882" x2="19.1542" y2="17.8486" gradientUnits="userSpaceOnUse">
<stop stop-color="#ECEAEA"/>
<stop offset="1" stop-color="white" stop-opacity="0"/>
</linearGradient>
<linearGradient id="paint9_linear_2133_18722" x1="27.0938" y1="16.0981" x2="24.203" y2="17.1068" gradientUnits="userSpaceOnUse">
<stop stop-color="#ECEAEA"/>
<stop offset="1" stop-color="white" stop-opacity="0"/>
</linearGradient>
<linearGradient id="paint10_linear_2133_18722" x1="11.5139" y1="20.4721" x2="12.3837" y2="18.6218" gradientUnits="userSpaceOnUse">
<stop stop-color="#040404"/>
<stop offset="1" stop-color="#3C3C3C" stop-opacity="0"/>
</linearGradient>
<linearGradient id="paint11_linear_2133_18722" x1="23.9181" y1="20.3615" x2="23.4015" y2="19.3569" gradientUnits="userSpaceOnUse">
<stop stop-color="#4B4B4B"/>
<stop offset="0.899322" stop-opacity="0"/>
</linearGradient>
</defs>
</svg>
