<svg xmlns="http://www.w3.org/2000/svg" width="92" height="93" viewBox="0 0 92 93" fill="none">
  <g opacity="0.5">
    <path d="M72.1863 54.9596H2.509C1.9886 54.9596 1.56665 54.5376 1.56665 54.0172V25.6015C1.56665 25.0811 1.9886 24.6592 2.509 24.6592H72.1863C72.7067 24.6592 73.1287 25.0811 73.1287 25.6015V54.0172C73.1287 54.5378 72.7069 54.9596 72.1863 54.9596Z" fill="#B1B1B1"/>
    <path d="M72.1863 91.6392H2.509C1.9886 91.6392 1.56665 91.2173 1.56665 90.6969V62.2812C1.56665 61.7608 1.9886 61.3389 2.509 61.3389H72.1863C72.7067 61.3389 73.1287 61.7608 73.1287 62.2812V90.6969C73.1287 91.2175 72.7069 91.6392 72.1863 91.6392Z" fill="#D1D1D1"/>
    <path d="M73.1292 25.602V54.0173C73.1292 54.5383 72.707 54.9604 72.1861 54.9604H68.5308C69.0517 54.9604 69.4738 54.5383 69.4738 54.0173V25.602C69.4738 25.0811 69.0517 24.6589 68.5308 24.6589H72.1861C72.7069 24.6589 73.1292 25.0813 73.1292 25.602Z" fill="#999999"/>
    <path d="M73.1292 62.2804V90.6975C73.1292 91.2166 72.707 91.6388 72.1861 91.6388H68.5308C69.0517 91.6388 69.4738 91.2166 69.4738 90.6975V62.2804C69.4738 61.7612 69.0517 61.3391 68.5308 61.3391H72.1861C72.7069 61.3391 73.1292 61.7614 73.1292 62.2804Z" fill="#BABABA"/>
    <path d="M73.1288 35.9699C82.6858 35.9699 90.4333 28.2224 90.4333 18.6654C90.4333 9.10835 82.6858 1.36084 73.1288 1.36084C63.5717 1.36084 55.8242 9.10835 55.8242 18.6654C55.8242 28.2224 63.5717 35.9699 73.1288 35.9699Z" fill="#F8F6F6"/>
    <path d="M90.4336 18.665C90.4336 28.222 82.6859 35.9697 73.1289 35.9697C69.7585 35.9697 66.6131 35.0065 63.9539 33.3377C65.6317 33.8825 67.421 34.1747 69.2797 34.1747C78.8368 34.1747 86.5845 26.427 86.5845 16.87C86.5845 10.6833 83.3385 5.255 78.4548 2.19727C85.4056 4.4418 90.4336 10.9667 90.4336 18.665Z" fill="#EBEBEB"/>
    <path d="M72.1865 59.9778H2.5092C1.23916 59.9778 0.205992 61.011 0.205992 62.281V68.8151C0.205992 69.5668 0.815215 70.1758 1.56684 70.1758C2.31847 70.1758 2.9277 69.5666 2.9277 68.8151V62.6993H71.7682V90.2783H2.92751V75.1173C2.92751 74.3657 2.31829 73.7565 1.56666 73.7565C0.815215 73.7565 0.205811 74.3657 0.205811 75.1173V90.6967C0.205811 91.9667 1.23898 92.9999 2.50901 92.9999H72.1864C73.4564 92.9999 74.4896 91.9667 74.4896 90.6967V62.281C74.4897 61.011 73.4566 59.9778 72.1865 59.9778Z" fill="black"/>
    <path d="M12.6314 68.4351H24.2738C25.0252 68.4351 25.6346 67.8259 25.6346 67.0742C25.6346 66.3226 25.0254 65.7134 24.2738 65.7134H12.6314C11.8797 65.7134 11.2705 66.3226 11.2705 67.0742C11.2705 67.8259 11.8799 68.4351 12.6314 68.4351Z" fill="black"/>
    <path d="M12.6314 74.7115H24.2738C25.0252 74.7115 25.6346 74.1023 25.6346 73.3508C25.6346 72.5992 25.0254 71.99 24.2738 71.99H12.6314C11.8797 71.99 11.2705 72.5992 11.2705 73.3508C11.2707 74.1023 11.8799 74.7115 12.6314 74.7115Z" fill="black"/>
    <path d="M12.6314 80.9881H62.0641C62.8158 80.9881 63.425 80.3788 63.425 79.6272C63.425 78.8756 62.8158 78.2664 62.0641 78.2664H12.6314C11.8797 78.2664 11.2705 78.8756 11.2705 79.6272C11.2705 80.3788 11.8799 80.9881 12.6314 80.9881Z" fill="black"/>
    <path d="M12.6314 87.2644H62.0641C62.8158 87.2644 63.425 86.6552 63.425 85.9036C63.425 85.1519 62.8158 84.5427 62.0641 84.5427H12.6314C11.8797 84.5427 11.2705 85.1519 11.2705 85.9036C11.2705 86.6552 11.8799 87.2644 12.6314 87.2644Z" fill="black"/>
    <path d="M12.6314 31.7557H24.2738C25.0252 31.7557 25.6346 31.1465 25.6346 30.3949C25.6346 29.6432 25.0254 29.0342 24.2738 29.0342H12.6314C11.8797 29.0342 11.2705 29.6434 11.2705 30.3949C11.2707 31.1465 11.8799 31.7557 12.6314 31.7557Z" fill="black"/>
    <path d="M12.6314 38.0322H24.2738C25.0252 38.0322 25.6346 37.423 25.6346 36.6714C25.6346 35.9198 25.0254 35.3105 24.2738 35.3105H12.6314C11.8797 35.3105 11.2705 35.9198 11.2705 36.6714C11.2705 37.423 11.8799 38.0322 12.6314 38.0322Z" fill="black"/>
    <path d="M11.2708 42.9478C11.2708 43.6994 11.88 44.3086 12.6316 44.3086H62.0644C62.816 44.3086 63.4252 43.6994 63.4252 42.9478C63.4252 42.1961 62.816 41.5869 62.0644 41.5869H12.6314C11.88 41.5869 11.2708 42.1961 11.2708 42.9478Z" fill="black"/>
    <path d="M62.0641 47.8635H12.6314C11.8797 47.8635 11.2705 48.4727 11.2705 49.2244C11.2705 49.976 11.8797 50.585 12.6314 50.585H62.0641C62.8158 50.585 63.425 49.9758 63.425 49.2244C63.4248 48.4727 62.8158 47.8635 62.0641 47.8635Z" fill="black"/>
    <path d="M73.129 0C70.1335 0 67.1548 0.726926 64.515 2.10231C63.8486 2.44961 63.5897 3.27135 63.937 3.93797C64.2843 4.60459 65.1063 4.86343 65.7727 4.51595C68.0579 3.3253 70.5328 2.7217 73.129 2.7217C81.9204 2.7217 89.0726 9.87399 89.0726 18.6654C89.0726 27.4568 81.9204 34.6091 73.129 34.6091C64.3375 34.6091 57.1853 27.4568 57.1853 18.6654C57.1853 14.775 58.6019 11.0283 61.1741 8.11589C61.6716 7.55262 61.6184 6.69273 61.0549 6.19522C60.4917 5.6977 59.6314 5.75129 59.1343 6.31437C56.1223 9.72449 54.4636 14.1109 54.4636 18.6656C54.4636 20.2644 54.6659 21.8169 55.0459 23.2989H2.50926C1.23923 23.2989 0.206055 24.332 0.206055 25.6019V54.0177C0.206055 55.2876 1.23923 56.3208 2.50926 56.3208H72.1866C73.4566 56.3208 74.4898 55.2876 74.4898 54.0177V37.281C84.1489 36.5817 91.7943 28.5 91.7943 18.6656C91.7943 8.37327 83.4211 0 73.129 0ZM71.7683 53.5991H2.92758V26.02H55.975C58.6647 32.2696 64.6729 36.767 71.7681 37.2807V53.5991H71.7683Z" fill="black"/>
    <path d="M73.1289 7.2749C72.3773 7.2749 71.7681 7.88413 71.7681 8.63575V18.6654C71.7681 18.9293 71.8447 19.1878 71.9889 19.4089L74.9482 23.9459C75.2092 24.346 75.6448 24.5635 76.0893 24.5635C76.3443 24.5635 76.6021 24.4919 76.8315 24.3422C77.4609 23.9317 77.6383 23.0885 77.2278 22.459L74.4896 18.2609V8.63575C74.4898 7.88413 73.8805 7.2749 73.1289 7.2749Z" fill="black"/>
  </g>
</svg>