<svg xmlns="http://www.w3.org/2000/svg" width="24" height="24" viewBox="0 0 24 24" fill="none">
    <path fill-rule="evenodd" clip-rule="evenodd" d="M6.14461 0H14.1767L20.9738 7.09489V20.873C20.9738 22.5985 19.5811 24 17.8556 24H6.14461C4.42782 24 3.02637 22.5985 3.02637 20.873V3.11824C3.02634 1.40145 4.42782 0 6.14461 0Z" fill="#00733B"/>
    <path opacity="0.302" fill-rule="evenodd" clip-rule="evenodd" d="M14.168 0V7.03358H20.9738L14.168 0Z" fill="white"/>
    <path d="M10.4892 17.4745H9.32427L8.52721 16.1344L7.73012 17.4745H6.5564L7.94035 15.1446L6.72284 13.1212H7.89653L8.52718 14.1723L9.14906 13.1212H10.3228L9.11401 15.1533L10.4892 17.4745ZM10.9009 17.4745V13.1212H12.0133V16.5285H13.9053V17.4745H10.9009V17.4745ZM15.7447 17.527C15.3067 17.527 14.9213 17.3869 14.5885 17.1154C14.2644 16.8526 14.0805 16.5197 14.0542 16.1256L15.009 15.8453C15.0352 16.0555 15.1228 16.2395 15.2717 16.3796C15.4294 16.5198 15.6046 16.5898 15.7973 16.5898C15.9549 16.5898 16.0863 16.5548 16.1914 16.4847C16.2878 16.4146 16.3403 16.3183 16.3403 16.2044C16.3403 16.1081 16.2965 16.0293 16.2177 15.9592C16.1389 15.8979 16.0337 15.8453 15.9111 15.8015C15.7885 15.7577 15.6396 15.7139 15.4907 15.6789C15.333 15.6351 15.1753 15.5826 15.0264 15.5125C14.8688 15.4512 14.7286 15.3723 14.606 15.276C14.4746 15.1884 14.3783 15.057 14.2994 14.8906C14.2206 14.7329 14.1768 14.5402 14.1768 14.3212C14.1768 13.9621 14.3257 13.6643 14.6323 13.4278C14.9388 13.1825 15.3067 13.0687 15.7359 13.0687C16.1651 13.0687 16.5417 13.1738 16.8571 13.3752C17.1724 13.5854 17.3739 13.857 17.4527 14.1898L16.4542 14.6103C16.4104 14.4263 16.3228 14.2774 16.2001 14.1636C16.0775 14.0585 15.9199 13.9972 15.7359 13.9972C15.5957 13.9972 15.4906 14.0322 15.4031 14.0848C15.3242 14.1373 15.2892 14.2162 15.2892 14.3125C15.2892 14.4001 15.3418 14.4789 15.4469 14.5402C15.552 14.5928 15.6921 14.6366 15.8498 14.6629C16.0074 14.6891 16.1826 14.7329 16.3666 14.7942C16.5593 14.8643 16.7257 14.9344 16.8921 15.0307C17.0498 15.1184 17.1811 15.2672 17.2862 15.4599C17.4001 15.6614 17.4527 15.8979 17.4527 16.1694C17.4527 16.5724 17.295 16.9052 16.9797 17.1504C16.6643 17.3957 16.2527 17.527 15.7447 17.527Z" fill="white"/>
</svg>