<svg width="74" height="32" viewBox="0 0 74 32" fill="none" xmlns="http://www.w3.org/2000/svg">
<circle cx="16" cy="16" r="16" fill="#DAD1B1"/>
<g filter="url(#filter0_f_2133_18723)">
<path d="M23.4779 24.599C24.563 24.2714 26.5387 23.3762 27.2487 22.7137C28.0674 22.0202 26.7097 21.1848 26.5082 21.0679C26.3067 20.951 13.3797 14.5076 11.6526 13.7476C9.92551 12.9876 5.50612 15.6656 4.18185 16.4007C3.10241 16.9999 3.86521 17.4238 4.00914 17.5407C4.15306 17.6576 14.0364 22.7721 17.0012 24.1752C19.2465 25.2377 21.3478 25.2421 23.4779 24.599Z" fill="black" fill-opacity="0.2"/>
</g>
<path fill-rule="evenodd" clip-rule="evenodd" d="M14.0732 18.2383L15.3971 17.6244L15.3975 17.6254C15.406 17.6212 15.4147 17.6172 15.4233 17.6133C16.2119 17.2594 17.3369 18.0611 17.936 19.404C18.5351 20.7469 18.3816 22.1223 17.593 22.4762C17.5809 22.4817 17.5687 22.4868 17.5565 22.4917L16.2835 23.0829L15.5747 21.5293C15.3886 21.2827 15.2202 20.9988 15.0804 20.6855C14.9515 20.3966 14.8574 20.1062 14.797 19.8247L14.0732 18.2383Z" fill="#2E2E2E"/>
<ellipse cx="1.56563" cy="2.65934" rx="1.56563" ry="2.65934" transform="matrix(-0.911976 0.409256 0.40762 0.913593 15.5388 17.5848)" fill="#2E2E2E"/>
<g filter="url(#filter1_i_2133_18723)">
<ellipse cx="1.17428" cy="1.9946" rx="1.17428" ry="1.9946" transform="matrix(-0.911976 0.409256 0.40762 0.913593 15.408 18.3535)" fill="url(#paint0_linear_2133_18723)"/>
</g>
<g filter="url(#filter2_di_2133_18723)">
<path fill-rule="evenodd" clip-rule="evenodd" d="M15.3097 19.3088C15.4403 19.403 15.5676 19.5252 15.6851 19.6708L15.3428 20.2654C15.3319 20.2527 15.3209 20.2405 15.3097 20.2288L15.3097 19.3088ZM15.3097 21.3103L15.8092 22.1779C15.6568 22.2407 15.4851 22.2359 15.3097 22.1747L15.3097 21.3103ZM15.1287 22.0922L15.1287 21.2157C15.0993 21.198 15.07 21.1766 15.0415 21.1517L14.7015 21.7423C14.8367 21.8912 14.9821 22.0099 15.1287 22.0922ZM15.1287 20.0935L15.1287 19.1973C14.9001 19.0806 14.6708 19.054 14.4747 19.142C14.4202 19.1665 14.3705 19.1988 14.3258 19.238L14.831 20.1156C14.8482 20.1005 14.8674 20.0881 14.8884 20.0787C14.9606 20.0463 15.0445 20.0539 15.1287 20.0935ZM15.9641 22.0839L15.4668 21.22C15.5047 21.1881 15.5337 21.1436 15.5534 21.0899L16.2511 21.4939C16.2144 21.7473 16.1175 21.9554 15.9641 22.0839ZM14.7698 20.7316C14.7566 20.6933 14.7459 20.6551 14.7377 20.6176L14.0389 20.213C14.0554 20.4266 14.1057 20.6559 14.1915 20.8871L14.7698 20.7316ZM15.5616 20.7066C15.5768 20.7732 15.5843 20.8379 15.5842 20.8984L16.2674 21.2939C16.2725 21.0642 16.2346 20.8089 16.1515 20.5481L15.5616 20.7066ZM16.0905 20.3767L15.5057 20.5339L15.496 20.5114C15.4836 20.4837 15.4703 20.4569 15.4563 20.4313L15.8027 19.8294C15.8909 19.9588 15.9712 20.1021 16.0403 20.257C16.0581 20.2969 16.0749 20.3368 16.0905 20.3767ZM14.9138 21.0105L14.578 21.5939C14.4583 21.4375 14.3501 21.2565 14.2606 21.0562L14.8439 20.8995C14.8654 20.939 14.8889 20.9762 14.9138 21.0105ZM14.718 20.3968L14.0339 20.0007C14.0417 19.7572 14.0984 19.5436 14.201 19.3844L14.7302 20.3036C14.7239 20.3329 14.7198 20.3641 14.718 20.3968Z" fill="#4C4C4C"/>
</g>
<path fill-rule="evenodd" clip-rule="evenodd" d="M14.0736 18.2102L15.3975 17.5963L15.3979 17.5971C15.4061 17.5931 15.4144 17.5892 15.4228 17.5855C16.2114 17.2316 17.3363 18.0333 17.9355 19.3762C18.5346 20.7191 18.381 22.0945 17.5925 22.4484C17.5808 22.4536 17.5691 22.4586 17.5573 22.4633L16.2838 23.0547L15.5768 21.505C15.3897 21.2576 15.2203 20.9725 15.0798 20.6577C14.9503 20.3673 14.8559 20.0754 14.7956 19.7926L14.0736 18.2102Z" fill="#2E2E2E"/>
<path d="M13.7579 21.2958C14.3566 22.6377 15.4812 23.4385 16.2698 23.0847C17.0583 22.7308 17.2123 21.3562 16.6136 20.0144C16.0149 18.6726 14.8565 17.7994 14.0679 18.1533C13.2793 18.5072 13.1593 19.954 13.7579 21.2958Z" fill="#2E2E2E"/>
<g filter="url(#filter3_i_2133_18723)">
<ellipse cx="1.10062" cy="1.92342" rx="1.10062" ry="1.92342" transform="matrix(-0.939744 0.342056 0.316393 0.948614 15.5906 18.4552)" fill="url(#paint1_linear_2133_18723)"/>
</g>
<g filter="url(#filter4_di_2133_18723)">
<path fill-rule="evenodd" clip-rule="evenodd" d="M14.5737 21.3361C14.7283 21.6152 14.9252 21.8278 15.1278 21.9415L14.8871 21.2365L14.5737 21.3361ZM14.3661 20.8309C14.2432 20.4023 14.2483 19.9878 14.3606 19.6945L14.7111 20.7212L14.3661 20.8309ZM15.5215 20.4636C15.4103 20.1758 15.2095 19.9808 15.0299 19.9766L14.793 19.2829C15.1949 19.2121 15.6779 19.6597 15.9163 20.3381L15.5215 20.4636ZM16.0392 20.8702L15.59 21.013C15.5715 21.1209 15.5308 21.21 15.4704 21.2666L15.7071 21.9599C15.9714 21.7927 16.0944 21.3661 16.0392 20.8702Z" fill="#A9A8A8"/>
</g>
<path fill-rule="evenodd" clip-rule="evenodd" d="M4.8097 14.3445L5.80144 13.8846L5.80165 13.8851C5.80782 13.8821 5.81404 13.8792 5.82032 13.8764C6.41106 13.6113 7.25381 14.2119 7.70265 15.2179C8.15148 16.2239 8.03645 17.2543 7.44571 17.5194C7.43824 17.5228 7.43072 17.526 7.42317 17.529L6.46545 17.9738L5.93576 16.8128C5.79553 16.6274 5.66863 16.4138 5.56338 16.1779C5.4663 15.9603 5.39559 15.7416 5.35038 15.5297L4.8097 14.3445Z" fill="#2E2E2E"/>
<ellipse cx="1.17287" cy="1.99222" rx="1.17287" ry="1.99222" transform="matrix(-0.945518 0.324327 0.322551 0.946978 6.11621 13.8882)" fill="#2E2E2E"/>
<g filter="url(#filter5_i_2133_18723)">
<ellipse cx="0.879697" cy="1.49423" rx="0.879697" ry="1.49423" transform="matrix(-0.911976 0.409256 0.40762 0.913593 5.80933 14.4309)" fill="url(#paint2_linear_2133_18723)"/>
</g>
<g filter="url(#filter6_di_2133_18723)">
<path fill-rule="evenodd" clip-rule="evenodd" d="M5.78005 15.1809C5.86181 15.2459 5.94128 15.3254 6.01549 15.4173L5.78005 15.8263L5.78005 15.1809ZM5.78005 16.8168L6.06478 17.3114C5.97559 17.3374 5.87899 17.335 5.78005 17.3077L5.78005 16.8168ZM5.59898 17.2316L5.59898 16.5749C5.58906 16.5689 5.57918 16.5624 5.56935 16.5553L5.31111 17.0039C5.40311 17.0994 5.50069 17.1765 5.59898 17.2316ZM5.59898 15.7342L5.59898 15.063C5.42776 14.9756 5.25595 14.9557 5.10911 15.0216C5.0681 15.04 5.03077 15.0643 4.99718 15.0939L5.37567 15.7513C5.38871 15.7398 5.40322 15.7304 5.41915 15.7232C5.4732 15.699 5.53596 15.7046 5.59898 15.7342ZM6.22452 17.2258L5.85195 16.5786C5.87006 16.5635 5.88547 16.5446 5.89811 16.5225L6.43183 16.8315C6.39959 16.9998 6.32975 17.1378 6.22452 17.2258ZM5.33028 16.2122C5.32765 16.2046 5.32515 16.197 5.32279 16.1893L4.78791 15.8796C4.80399 16.0235 4.84005 16.1755 4.89689 16.3287L5.33028 16.2122ZM5.93219 16.2382C5.93775 16.2725 5.94047 16.3058 5.94043 16.3375L6.45205 16.6338C6.4556 16.4744 6.43153 16.2986 6.37849 16.1183L5.93219 16.2382ZM6.31952 15.9464L5.88155 16.0641L5.8743 16.0474L5.86876 16.0352L6.13171 15.5784C6.18692 15.6641 6.23755 15.7573 6.28198 15.8569C6.29528 15.8867 6.3078 15.9166 6.31952 15.9464ZM5.43781 16.4208L5.18612 16.858C5.10499 16.7519 5.03088 16.6307 4.96789 16.4973L5.40948 16.3787C5.4186 16.3932 5.42806 16.4073 5.43781 16.4208ZM5.28603 15.9586L4.77885 15.665C4.784 15.5049 4.8173 15.362 4.87738 15.2488L5.28603 15.9586Z" fill="#4C4C4C"/>
</g>
<path fill-rule="evenodd" clip-rule="evenodd" d="M4.80927 14.3235L5.80101 13.8636L5.80115 13.8639C5.80738 13.8609 5.81367 13.8579 5.82001 13.8551C6.41075 13.59 7.25349 14.1906 7.70233 15.1966C8.15116 16.2026 8.03612 17.233 7.44538 17.4981C7.43908 17.5009 7.43274 17.5037 7.42638 17.5063L6.46503 17.9527L5.93489 16.7907C5.79488 16.6055 5.66818 16.3922 5.56307 16.1566C5.46613 15.9393 5.39549 15.7209 5.35027 15.5093L4.80927 14.3235Z" fill="#2E2E2E"/>
<path d="M4.45678 16.4521C4.72289 17.5202 5.50136 18.2445 6.19555 18.07C6.88974 17.8954 7.23676 16.8881 6.97065 15.82C6.70454 14.752 5.91043 13.97 5.21624 14.1445C4.52206 14.319 4.19066 15.3841 4.45678 16.4521Z" fill="#2E2E2E"/>
<g filter="url(#filter7_i_2133_18723)">
<ellipse cx="0.824515" cy="1.44091" rx="0.824515" ry="1.44091" transform="matrix(-0.963522 0.267857 0.241582 0.970366 5.9978 14.5973)" fill="url(#paint3_linear_2133_18723)"/>
</g>
<g filter="url(#filter8_di_2133_18723)">
<path fill-rule="evenodd" clip-rule="evenodd" d="M5.13615 16.8157C5.17598 16.8857 5.21962 16.9491 5.26594 17.0047L5.21288 16.7978L5.13615 16.8157ZM4.94665 16.301C4.90274 16.0859 4.89978 15.8785 4.9316 15.7013L5.07759 16.2704L4.94665 16.301ZM5.83017 16.0943C5.764 15.8728 5.62538 15.7154 5.49152 15.7016L5.35512 15.1699C5.65952 15.1399 5.99457 15.5024 6.13312 16.0234L5.83017 16.0943ZM6.19234 16.5686C6.17471 16.8786 6.06263 17.1276 5.88173 17.2228L5.74523 16.6906C5.75387 16.6837 5.76211 16.6759 5.76992 16.6674L6.19234 16.5686Z" fill="#A9A8A8"/>
</g>
<g filter="url(#filter9_ii_2133_18723)">
<path d="M4.07109 13.7166C3.90007 13.9021 3.89369 15.292 3.91644 15.587C3.93924 15.8826 4.3216 15.7675 4.36197 15.4737L4.3723 15.3978C4.48563 14.558 5.0801 14.2346 5.44115 14.3136C5.85152 14.4034 6.21897 14.7425 6.43968 15.3093C6.6123 15.7526 6.71831 16.0089 6.84507 16.9709C6.8569 17.0607 6.89761 17.1388 6.97516 17.1855C7.85754 17.7173 13.5293 20.5969 13.5097 20.5262C13.4547 20.3279 13.4533 19.3898 13.6507 18.9325C14.0386 18.0341 14.644 18.1198 14.9694 18.1695C15.3143 18.2222 16.1159 18.6429 16.5321 19.4896C17.1921 20.8322 17.028 21.7442 17.1921 22.224C17.2459 22.3814 19.8708 23.3755 20.8043 23.6096C23.1384 24.3053 26.4352 21.9354 27.057 21.4765C27.6788 21.0175 27.7294 19.6679 27.638 18.1695C27.6394 17.2937 27.452 16.8397 27.3179 16.7C26.6872 16.0427 25.2055 14.9836 24.231 14.4513C24.183 14.4251 24.1386 14.3903 24.1016 14.35C21.7602 11.7946 21.6059 11.4726 20.7917 11.077C19.1281 10.2685 12.3542 7.51797 10.8648 7.51797C9.98477 7.51797 6.88646 8.51861 6.04957 9.15648C5.39952 9.65194 4.77608 10.7381 4.43345 11.4721C4.41335 11.5151 4.4002 11.5603 4.39436 11.6074C4.32647 12.156 4.20185 13.5748 4.07109 13.7166Z" fill="url(#paint4_linear_2133_18723)"/>
</g>
<mask id="mask0_2133_18723" style="mask-type:alpha" maskUnits="userSpaceOnUse" x="3" y="7" width="25" height="17">
<path d="M4.07095 13.7166C3.89993 13.9021 3.89355 15.292 3.9163 15.587C3.9391 15.8827 4.31042 15.7654 4.35033 15.4716L4.35943 15.4043C4.47276 14.5645 5.07996 14.2346 5.44101 14.3136C5.85138 14.4034 6.21884 14.7425 6.43954 15.3093C6.61216 15.7526 6.71818 16.0089 6.84493 16.9709C6.85676 17.0607 6.89747 17.1388 6.97502 17.1855C7.8574 17.7173 13.5292 20.5969 13.5096 20.5262C13.4545 20.3279 13.4532 19.3899 13.6506 18.9325C14.0384 18.0341 14.6439 18.1198 14.9693 18.1695C15.3142 18.2222 16.1158 18.6429 16.5319 19.4896C17.192 20.8322 17.0279 21.7442 17.192 22.224C17.2458 22.3814 19.8706 23.3755 20.8042 23.6097C23.1383 24.3053 26.435 21.9355 27.0569 21.4765C27.6787 21.0175 27.7293 19.6679 27.6379 18.1695C27.6393 17.2937 27.4518 16.8397 27.3177 16.7C26.6871 16.0427 25.2053 14.9836 24.2309 14.4513C24.1829 14.4251 24.1385 14.3904 24.1015 14.3501C21.759 11.7946 21.5371 11.4657 20.3529 10.8901C18.6892 10.0817 12.3541 7.51799 10.8647 7.51799C9.98464 7.51799 6.88632 8.51863 6.04943 9.1565C5.39938 9.65196 4.77594 10.7381 4.43331 11.4721C4.41321 11.5151 4.40006 11.5603 4.39422 11.6075C4.32634 12.156 4.20171 13.5748 4.07095 13.7166Z" fill="url(#paint5_linear_2133_18723)"/>
</mask>
<g mask="url(#mask0_2133_18723)">
<g filter="url(#filter10_ddii_2133_18723)">
<path d="M22.4814 19.8688C22.0682 19.8985 21.4285 19.9642 20.7135 19.8132C20.372 19.7412 19.7339 20.401 20.0434 20.5625C20.4426 20.7708 21.5834 21.1615 22.6813 20.9707C22.6974 20.9679 22.7138 20.9655 22.7299 20.9686C22.8581 20.9933 23.1409 21.2091 23.3935 21.3064C23.8108 21.4224 25.638 20.4305 26.0986 20.1703C27.071 19.6208 27.4032 19.2181 27.455 19.1114C27.5358 18.9448 27.4814 18.6005 27.4975 18.4931C27.5084 18.4204 27.5664 18.2799 27.6029 18.1965C27.6222 18.1524 27.6329 18.105 27.6317 18.0568C27.6286 17.9205 27.6157 17.6179 27.5632 17.3618C27.5584 17.338 27.5557 17.3136 27.5552 17.2893C27.5452 16.7452 27.3158 16.3818 27.3159 16.6691C27.3159 17.063 27.2165 17.5343 26.9399 17.7732C26.9205 17.7899 26.9024 17.8044 26.8809 17.8182C26.5374 18.0373 23.3201 19.8086 22.4814 19.8688Z" fill="#ABB7C2"/>
</g>
<mask id="mask1_2133_18723" style="mask-type:alpha" maskUnits="userSpaceOnUse" x="19" y="16" width="9" height="6">
<path d="M22.4814 19.8688C22.0065 19.903 21.2324 19.9846 20.3887 19.7303C20.1187 19.649 19.6463 20.0963 19.8093 20.3265C19.8878 20.4375 19.9667 20.5225 20.0434 20.5625C20.4433 20.7711 21.5874 21.1629 22.687 20.9697C22.6993 20.9675 22.7117 20.9658 22.7241 20.9676C22.8493 20.9866 23.137 21.2076 23.3935 21.3064C23.8108 21.4224 25.638 20.4305 26.0986 20.1703C27.071 19.6208 27.4457 19.1871 27.4975 19.0805C27.5783 18.9139 27.4814 18.5812 27.4975 18.4738C27.5087 18.3985 27.5706 18.2599 27.6067 18.1837C27.6235 18.148 27.6328 18.1093 27.632 18.0699C27.6294 17.9394 27.6172 17.6197 27.5615 17.3533C27.5577 17.3351 27.5556 17.3165 27.5554 17.2979C27.5477 16.7491 27.3158 16.3803 27.3159 16.6691C27.3159 17.0663 27.2148 17.5421 26.9329 17.7791C26.918 17.7917 26.9044 17.8029 26.8881 17.8135C26.5857 18.0107 23.3264 19.8081 22.4814 19.8688Z" fill="#211F1F"/>
</mask>
<g mask="url(#mask1_2133_18723)">
<g filter="url(#filter11_ddii_2133_18723)">
<path d="M22.4814 19.8688C22.0682 19.8985 21.4285 19.9642 20.7135 19.8132C20.372 19.7412 19.7339 20.401 20.0434 20.5625C20.4426 20.7708 21.5834 21.1615 22.6813 20.9707C22.6974 20.9679 22.7138 20.9655 22.7299 20.9686C22.8581 20.9933 23.1409 21.2091 23.3935 21.3064C23.8108 21.4224 25.638 20.4305 26.0986 20.1703C27.071 19.6208 27.3839 19.2297 27.4356 19.123C27.5165 18.9564 27.4621 18.5851 27.4781 18.4776C27.4884 18.4093 27.5482 18.2871 27.5903 18.2073C27.6174 18.1561 27.6329 18.0996 27.6314 18.0417C27.6276 17.8991 27.6138 17.6088 27.5632 17.3618C27.5583 17.338 27.5557 17.3136 27.5552 17.2893C27.5452 16.7453 27.3158 16.3818 27.3159 16.6691C27.3159 17.063 27.2165 17.5343 26.9398 17.7732C26.9205 17.7899 26.9024 17.8044 26.8809 17.8182C26.5375 18.0373 23.3201 19.8086 22.4814 19.8688Z" fill="#DADADA"/>
</g>
<g filter="url(#filter12_d_2133_18723)">
<path d="M27.264 17.0789C27.2663 17.0846 27.2685 17.0904 27.2707 17.0963C27.3124 17.2095 27.3317 17.3518 27.2634 17.4983C27.2465 17.5345 27.2126 17.5748 27.1785 17.596C27.1624 17.606 27.1521 17.6081 27.1482 17.6084C27.148 17.6084 27.1479 17.6084 27.1478 17.6084C27.1466 17.6085 27.1456 17.6086 27.1419 17.6059C27.1038 17.5782 27.0574 17.5593 27.0184 17.5461C26.9984 17.5393 26.9779 17.5333 26.9577 17.5279L27.264 17.0789Z" stroke="white" stroke-opacity="0.9" stroke-width="0.263708"/>
</g>
<g filter="url(#filter13_d_2133_18723)">
<path d="M20.6301 19.7325L22.5531 19.7614C22.5534 19.7627 22.5536 19.764 22.5539 19.7652C22.5648 19.8186 22.5699 19.8862 22.5531 19.9539C22.537 20.0188 22.4996 20.089 22.4157 20.1519C22.3295 20.2164 22.1878 20.2777 21.9566 20.3087C21.823 20.3266 21.6344 20.3262 21.4402 20.2894C21.2455 20.2524 21.0545 20.1807 20.9076 20.0637C20.8314 20.0029 20.7305 19.8752 20.6427 19.7504C20.6384 19.7444 20.6342 19.7384 20.6301 19.7325Z" stroke="white" stroke-opacity="0.9" stroke-width="0.263708"/>
</g>
</g>
<g filter="url(#filter14_ddi_2133_18723)">
<path d="M17.5823 17.1544C17.0577 16.9373 16.4492 15.2354 15.8052 13.9847C15.6563 13.6956 15.7783 13.3308 16.0803 13.2099L20.791 11.3232C20.9213 11.271 21.0639 11.2793 21.1734 11.3673C21.4458 11.5864 22.0759 12.1713 23.3663 13.6934C23.8398 14.2519 23.9095 14.3213 24.1464 14.5808C24.1817 14.6194 24.0554 14.8028 23.9322 14.9044C23.425 15.3223 18.9764 17.7313 17.5823 17.1544Z" fill="url(#paint6_linear_2133_18723)"/>
</g>
<g filter="url(#filter15_f_2133_18723)">
<path d="M19.6 19.0687C18.3203 18.5211 17.5888 17.8068 16.8081 17.1573C19.0922 17.7589 23.875 19.082 23.8037 19.1798C23.7145 19.3021 23.3786 19.4542 22.2502 19.5651C21.1394 19.6742 19.7465 19.1315 19.6 19.0687Z" fill="url(#paint7_linear_2133_18723)" fill-opacity="0.21"/>
</g>
<path d="M21.8806 16.0535L17.7044 12.5233C17.3161 12.6856 16.0889 13.195 15.9089 13.2626C15.6756 13.3502 15.5757 13.4251 15.5757 13.4251C15.531 13.4698 15.4989 13.4253 15.5757 13.5632C15.7139 13.811 15.9118 14.2212 16.1973 14.8266C16.701 15.8951 17.1801 17.0583 17.6151 17.1869C18.1919 17.3575 19.1277 17.1284 19.8738 16.8822C20.5407 16.6622 21.386 16.2545 21.8806 16.0535Z" fill="#C4C4C4" fill-opacity="0.2"/>
<g filter="url(#filter16_di_2133_18723)">
<path d="M13.7496 17.0892C13.7496 17.052 13.7284 17.018 13.6949 17.0017L13.2246 16.773C13.1599 16.7416 13.0847 16.7887 13.0847 16.8607C13.0847 16.8981 13.1062 16.9323 13.1399 16.9486L13.6105 17.1765C13.6749 17.2077 13.7496 17.1608 13.7496 17.0892Z" fill="#2E2E2E"/>
</g>
<g filter="url(#filter17_di_2133_18723)">
<path d="M5.7031 10.1575C6.04965 9.5728 6.08511 9.36099 5.86385 9.32651C5.57038 9.4867 4.70743 10.6799 4.56074 11.2239C4.53289 11.3272 4.7529 11.2922 4.99395 11.122C5.235 10.9518 5.2699 10.8884 5.7031 10.1575Z" fill="url(#paint8_linear_2133_18723)"/>
</g>
<g filter="url(#filter18_f_2133_18723)">
<path d="M5.34802 13.3162L5.28418 13.2838C5.30567 13.294 5.32695 13.3049 5.34802 13.3162L13.9959 17.7137C14.1442 17.7891 14.1419 18.0193 14.0109 18.1219C13.7655 18.3143 13.4924 18.636 13.4094 19.1361C13.3856 19.2792 13.2312 19.3743 13.1017 19.3089L7.03506 16.2465C6.96668 16.212 6.92447 16.1412 6.91479 16.0653C6.84437 15.5123 6.32368 13.8424 5.34802 13.3162Z" fill="url(#paint9_linear_2133_18723)" fill-opacity="0.12"/>
</g>
<g filter="url(#filter19_di_2133_18723)">
<path d="M14.7153 13.7453C13.8208 13.2599 8.59117 10.5391 7.07713 9.75181C6.84266 9.62988 6.55746 9.70805 6.41766 9.93231C6.0398 10.5384 5.37756 11.6374 5.49992 11.7051C8.71552 13.4838 14.977 16.5364 15.145 16.617C15.4274 16.7524 16.1024 17.1811 15.9827 16.8327C15.7959 16.2884 15.2511 14.036 14.7153 13.7453Z" fill="url(#paint10_linear_2133_18723)"/>
</g>
</g>
<path d="M40.882 21.5V11.938H42.814V19.862H46.594V21.5H40.882ZM49.3579 21.654C48.6299 21.654 48.0792 21.472 47.7059 21.108C47.3419 20.7347 47.1599 20.1747 47.1599 19.428C47.1599 18.9053 47.2532 18.4993 47.4399 18.21C47.6266 17.9113 47.9019 17.6967 48.2659 17.566C48.6392 17.426 49.0919 17.342 49.6239 17.314L51.3319 17.16V16.74C51.3319 16.404 51.2479 16.1707 51.0799 16.04C50.9119 15.9 50.6646 15.83 50.3379 15.83C50.0766 15.83 49.7732 15.8393 49.4279 15.858C49.0919 15.8767 48.7559 15.9 48.4199 15.928C48.0932 15.956 47.8086 15.984 47.5659 16.012L47.5099 14.696C47.7526 14.64 48.0419 14.584 48.3779 14.528C48.7232 14.4627 49.0826 14.4113 49.4559 14.374C49.8292 14.3367 50.1746 14.318 50.4919 14.318C51.0892 14.318 51.5886 14.3927 51.9899 14.542C52.3912 14.6913 52.6946 14.9387 52.8999 15.284C53.1052 15.62 53.2079 16.0773 53.2079 16.656V19.862C53.2266 19.9927 53.2966 20.0953 53.4179 20.17C53.5392 20.2353 53.6792 20.282 53.8379 20.31L53.7959 21.598C53.5719 21.6073 53.3526 21.612 53.1379 21.612C52.9232 21.612 52.7412 21.598 52.5919 21.57C52.3772 21.542 52.1906 21.486 52.0319 21.402C51.8826 21.318 51.7612 21.2293 51.6679 21.136C51.5186 21.2013 51.3179 21.276 51.0659 21.36C50.8139 21.444 50.5386 21.514 50.2399 21.57C49.9506 21.626 49.6566 21.654 49.3579 21.654ZM49.8059 20.268C49.9832 20.268 50.1699 20.2493 50.3659 20.212C50.5619 20.1747 50.7439 20.1327 50.9119 20.086C51.0892 20.03 51.2292 19.9787 51.3319 19.932V18.322L49.9039 18.448C49.5959 18.476 49.3719 18.5693 49.2319 18.728C49.1012 18.8773 49.0359 19.092 49.0359 19.372C49.0359 19.652 49.0966 19.8713 49.2179 20.03C49.3486 20.1887 49.5446 20.268 49.8059 20.268ZM54.852 21.5V14.472H56.714V15.298C56.8727 15.1767 57.0687 15.0507 57.302 14.92C57.5354 14.78 57.7874 14.654 58.058 14.542C58.338 14.4207 58.604 14.3413 58.856 14.304V16.11C58.6134 16.1473 58.3567 16.2127 58.086 16.306C57.8154 16.39 57.5587 16.4833 57.316 16.586C57.0827 16.6887 56.882 16.782 56.714 16.866V21.5H54.852ZM62.9226 24.706C62.1759 24.706 61.5506 24.65 61.0466 24.538C60.5519 24.426 60.1786 24.2207 59.9266 23.922C59.6746 23.6327 59.5486 23.2127 59.5486 22.662C59.5486 22.4193 59.5813 22.2 59.6466 22.004C59.7213 21.8173 59.8333 21.64 59.9826 21.472C60.1413 21.304 60.3373 21.1313 60.5706 20.954C60.4399 20.8607 60.3326 20.7253 60.2486 20.548C60.1739 20.3613 60.1366 20.1607 60.1366 19.946C60.1366 19.834 60.2019 19.6707 60.3326 19.456C60.4726 19.232 60.6079 19.036 60.7386 18.868C60.5519 18.784 60.3746 18.6627 60.2066 18.504C60.0386 18.336 59.8986 18.112 59.7866 17.832C59.6839 17.552 59.6326 17.1927 59.6326 16.754C59.6326 15.8673 59.8846 15.242 60.3886 14.878C60.9019 14.5047 61.6299 14.318 62.5726 14.318C62.8153 14.318 63.0766 14.3367 63.3566 14.374C63.6366 14.4113 63.8606 14.4487 64.0286 14.486L66.3106 14.444V15.704L65.2466 15.69C65.3306 15.802 65.4053 15.9467 65.4706 16.124C65.5453 16.292 65.5826 16.502 65.5826 16.754C65.5826 17.398 65.4706 17.8973 65.2466 18.252C65.0319 18.6067 64.7053 18.854 64.2666 18.994C63.8279 19.1247 63.2726 19.19 62.6006 19.19C62.5259 19.19 62.4233 19.1853 62.2926 19.176C62.1619 19.1573 62.0546 19.1433 61.9706 19.134C61.9333 19.2273 61.8959 19.3347 61.8586 19.456C61.8213 19.568 61.8026 19.6473 61.8026 19.694C61.8026 19.8153 61.8399 19.9087 61.9146 19.974C61.9986 20.0393 62.1619 20.086 62.4046 20.114C62.6566 20.1327 63.0346 20.142 63.5386 20.142C64.2013 20.142 64.7286 20.2027 65.1206 20.324C65.5219 20.4453 65.8066 20.66 65.9746 20.968C66.1426 21.276 66.2266 21.71 66.2266 22.27C66.2266 23.1007 65.9326 23.712 65.3446 24.104C64.7659 24.5053 63.9586 24.706 62.9226 24.706ZM62.8246 23.32C63.4033 23.32 63.8186 23.25 64.0706 23.11C64.3319 22.9793 64.4626 22.76 64.4626 22.452C64.4626 22.2093 64.4159 22.032 64.3226 21.92C64.2386 21.808 64.0939 21.7333 63.8886 21.696C63.6833 21.668 63.4033 21.654 63.0486 21.654C62.9553 21.654 62.8433 21.6493 62.7126 21.64C62.5819 21.64 62.4466 21.6353 62.3066 21.626C62.1759 21.626 62.0546 21.6213 61.9426 21.612C61.8399 21.6027 61.7653 21.598 61.7186 21.598C61.5133 21.738 61.3733 21.864 61.2986 21.976C61.2239 22.0973 61.1866 22.256 61.1866 22.452C61.1866 22.6667 61.2379 22.8347 61.3406 22.956C61.4433 23.0867 61.6113 23.18 61.8446 23.236C62.0873 23.292 62.4139 23.32 62.8246 23.32ZM62.5866 17.874C63.0159 17.874 63.3193 17.79 63.4966 17.622C63.6833 17.4447 63.7766 17.1553 63.7766 16.754C63.7766 16.3527 63.6833 16.0633 63.4966 15.886C63.3193 15.7087 63.0159 15.62 62.5866 15.62C62.1759 15.62 61.8773 15.7087 61.6906 15.886C61.5133 16.0633 61.4246 16.3527 61.4246 16.754C61.4246 17.1553 61.5133 17.4447 61.6906 17.622C61.8773 17.79 62.1759 17.874 62.5866 17.874ZM70.1354 21.654C69.3608 21.654 68.7448 21.5233 68.2874 21.262C67.8394 21.0007 67.5174 20.604 67.3214 20.072C67.1254 19.54 67.0274 18.8727 67.0274 18.07C67.0274 17.202 67.1488 16.4927 67.3914 15.942C67.6434 15.3913 68.0074 14.9853 68.4834 14.724C68.9594 14.4533 69.5474 14.318 70.2474 14.318C71.2834 14.318 72.0628 14.5793 72.5854 15.102C73.1174 15.6247 73.3834 16.4507 73.3834 17.58L73.2994 18.616H68.9034C68.9128 19.1387 69.0201 19.5307 69.2254 19.792C69.4308 20.0533 69.7854 20.184 70.2894 20.184C70.5788 20.184 70.8961 20.1793 71.2414 20.17C71.5868 20.1513 71.9274 20.1327 72.2634 20.114C72.6088 20.0953 72.9028 20.0767 73.1454 20.058L73.1874 21.36C72.9541 21.3973 72.6601 21.4393 72.3054 21.486C71.9508 21.5327 71.5821 21.57 71.1994 21.598C70.8261 21.6353 70.4714 21.654 70.1354 21.654ZM68.9034 17.426H71.5214C71.5214 16.7913 71.4188 16.348 71.2134 16.096C71.0174 15.844 70.6954 15.718 70.2474 15.718C69.8088 15.718 69.4728 15.8487 69.2394 16.11C69.0154 16.3713 68.9034 16.81 68.9034 17.426Z" fill="#0D3244"/>
<defs>
<filter id="filter0_f_2133_18723" x="2.84113" y="12.841" width="25.4398" height="12.968" filterUnits="userSpaceOnUse" color-interpolation-filters="sRGB">
<feFlood flood-opacity="0" result="BackgroundImageFix"/>
<feBlend mode="normal" in="SourceGraphic" in2="BackgroundImageFix" result="shape"/>
<feGaussianBlur stdDeviation="0.386075" result="effect1_foregroundBlur_2133_18723"/>
</filter>
<filter id="filter1_i_2133_18723" x="13.8054" y="18.7713" width="2.68921" height="3.77005" filterUnits="userSpaceOnUse" color-interpolation-filters="sRGB">
<feFlood flood-opacity="0" result="BackgroundImageFix"/>
<feBlend mode="normal" in="SourceGraphic" in2="BackgroundImageFix" result="shape"/>
<feColorMatrix in="SourceAlpha" type="matrix" values="0 0 0 0 0 0 0 0 0 0 0 0 0 0 0 0 0 0 127 0" result="hardAlpha"/>
<feMorphology radius="0.0905896" operator="erode" in="SourceAlpha" result="effect1_innerShadow_2133_18723"/>
<feOffset/>
<feGaussianBlur stdDeviation="0.0452948"/>
<feComposite in2="hardAlpha" operator="arithmetic" k2="-1" k3="1"/>
<feColorMatrix type="matrix" values="0 0 0 0 0 0 0 0 0 0 0 0 0 0 0 0 0 0 0.25 0"/>
<feBlend mode="normal" in2="shape" result="effect1_innerShadow_2133_18723"/>
</filter>
<filter id="filter2_di_2133_18723" x="13.7622" y="19.0717" width="2.56001" height="3.33232" filterUnits="userSpaceOnUse" color-interpolation-filters="sRGB">
<feFlood flood-opacity="0" result="BackgroundImageFix"/>
<feColorMatrix in="SourceAlpha" type="matrix" values="0 0 0 0 0 0 0 0 0 0 0 0 0 0 0 0 0 0 127 0" result="hardAlpha"/>
<feOffset dy="0.0362358"/>
<feGaussianBlur stdDeviation="0.0271769"/>
<feColorMatrix type="matrix" values="0 0 0 0 1 0 0 0 0 1 0 0 0 0 1 0 0 0 0.41 0"/>
<feBlend mode="normal" in2="BackgroundImageFix" result="effect1_dropShadow_2133_18723"/>
<feBlend mode="normal" in="SourceGraphic" in2="effect1_dropShadow_2133_18723" result="shape"/>
<feColorMatrix in="SourceAlpha" type="matrix" values="0 0 0 0 0 0 0 0 0 0 0 0 0 0 0 0 0 0 127 0" result="hardAlpha"/>
<feOffset dx="-0.271769" dy="0.181179"/>
<feGaussianBlur stdDeviation="0.135884"/>
<feComposite in2="hardAlpha" operator="arithmetic" k2="-1" k3="1"/>
<feColorMatrix type="matrix" values="0 0 0 0 0 0 0 0 0 0 0 0 0 0 0 0 0 0 0.25 0"/>
<feBlend mode="normal" in2="shape" result="effect2_innerShadow_2133_18723"/>
</filter>
<filter id="filter3_i_2133_18723" x="13.9646" y="18.7929" width="2.40039" height="3.72678" filterUnits="userSpaceOnUse" color-interpolation-filters="sRGB">
<feFlood flood-opacity="0" result="BackgroundImageFix"/>
<feBlend mode="normal" in="SourceGraphic" in2="BackgroundImageFix" result="shape"/>
<feColorMatrix in="SourceAlpha" type="matrix" values="0 0 0 0 0 0 0 0 0 0 0 0 0 0 0 0 0 0 127 0" result="hardAlpha"/>
<feMorphology radius="0.120712" operator="erode" in="SourceAlpha" result="effect1_innerShadow_2133_18723"/>
<feOffset/>
<feGaussianBlur stdDeviation="0.0603558"/>
<feComposite in2="hardAlpha" operator="arithmetic" k2="-1" k3="1"/>
<feColorMatrix type="matrix" values="0 0 0 0 0 0 0 0 0 0 0 0 0 0 0 0 0 0 0.25 0"/>
<feBlend mode="normal" in2="shape" result="effect1_innerShadow_2133_18723"/>
</filter>
<filter id="filter4_di_2133_18723" x="14.1208" y="19.2653" width="1.98294" height="2.79754" filterUnits="userSpaceOnUse" color-interpolation-filters="sRGB">
<feFlood flood-opacity="0" result="BackgroundImageFix"/>
<feColorMatrix in="SourceAlpha" type="matrix" values="0 0 0 0 0 0 0 0 0 0 0 0 0 0 0 0 0 0 127 0" result="hardAlpha"/>
<feOffset dy="0.0411677"/>
<feGaussianBlur stdDeviation="0.0257298"/>
<feColorMatrix type="matrix" values="0 0 0 0 1 0 0 0 0 1 0 0 0 0 1 0 0 0 0.59 0"/>
<feBlend mode="normal" in2="BackgroundImageFix" result="effect1_dropShadow_2133_18723"/>
<feBlend mode="normal" in="SourceGraphic" in2="effect1_dropShadow_2133_18723" result="shape"/>
<feColorMatrix in="SourceAlpha" type="matrix" values="0 0 0 0 0 0 0 0 0 0 0 0 0 0 0 0 0 0 127 0" result="hardAlpha"/>
<feOffset dx="-0.154379" dy="0.102919"/>
<feGaussianBlur stdDeviation="0.0771894"/>
<feComposite in2="hardAlpha" operator="arithmetic" k2="-1" k3="1"/>
<feColorMatrix type="matrix" values="0 0 0 0 0 0 0 0 0 0 0 0 0 0 0 0 0 0 0.25 0"/>
<feBlend mode="normal" in2="shape" result="effect2_innerShadow_2133_18723"/>
</filter>
<filter id="filter5_i_2133_18723" x="4.60889" y="14.7439" width="2.01465" height="2.82431" filterUnits="userSpaceOnUse" color-interpolation-filters="sRGB">
<feFlood flood-opacity="0" result="BackgroundImageFix"/>
<feBlend mode="normal" in="SourceGraphic" in2="BackgroundImageFix" result="shape"/>
<feColorMatrix in="SourceAlpha" type="matrix" values="0 0 0 0 0 0 0 0 0 0 0 0 0 0 0 0 0 0 127 0" result="hardAlpha"/>
<feMorphology radius="0.0905896" operator="erode" in="SourceAlpha" result="effect1_innerShadow_2133_18723"/>
<feOffset/>
<feGaussianBlur stdDeviation="0.0452948"/>
<feComposite in2="hardAlpha" operator="arithmetic" k2="-1" k3="1"/>
<feColorMatrix type="matrix" values="0 0 0 0 0 0 0 0 0 0 0 0 0 0 0 0 0 0 0.25 0"/>
<feBlend mode="normal" in2="shape" result="effect1_innerShadow_2133_18723"/>
</filter>
<filter id="filter6_di_2133_18723" x="4.50704" y="14.9644" width="1.99971" height="2.54637" filterUnits="userSpaceOnUse" color-interpolation-filters="sRGB">
<feFlood flood-opacity="0" result="BackgroundImageFix"/>
<feColorMatrix in="SourceAlpha" type="matrix" values="0 0 0 0 0 0 0 0 0 0 0 0 0 0 0 0 0 0 127 0" result="hardAlpha"/>
<feOffset dy="0.0362358"/>
<feGaussianBlur stdDeviation="0.0271769"/>
<feColorMatrix type="matrix" values="0 0 0 0 1 0 0 0 0 1 0 0 0 0 1 0 0 0 0.41 0"/>
<feBlend mode="normal" in2="BackgroundImageFix" result="effect1_dropShadow_2133_18723"/>
<feBlend mode="normal" in="SourceGraphic" in2="effect1_dropShadow_2133_18723" result="shape"/>
<feColorMatrix in="SourceAlpha" type="matrix" values="0 0 0 0 0 0 0 0 0 0 0 0 0 0 0 0 0 0 127 0" result="hardAlpha"/>
<feOffset dx="-0.271769" dy="0.181179"/>
<feGaussianBlur stdDeviation="0.135884"/>
<feComposite in2="hardAlpha" operator="arithmetic" k2="-1" k3="1"/>
<feColorMatrix type="matrix" values="0 0 0 0 0 0 0 0 0 0 0 0 0 0 0 0 0 0 0.25 0"/>
<feBlend mode="normal" in2="shape" result="effect2_innerShadow_2133_18723"/>
</filter>
<filter id="filter7_i_2133_18723" x="4.68384" y="14.8006" width="1.73511" height="2.83151" filterUnits="userSpaceOnUse" color-interpolation-filters="sRGB">
<feFlood flood-opacity="0" result="BackgroundImageFix"/>
<feBlend mode="normal" in="SourceGraphic" in2="BackgroundImageFix" result="shape"/>
<feColorMatrix in="SourceAlpha" type="matrix" values="0 0 0 0 0 0 0 0 0 0 0 0 0 0 0 0 0 0 127 0" result="hardAlpha"/>
<feMorphology radius="0.120712" operator="erode" in="SourceAlpha" result="effect1_innerShadow_2133_18723"/>
<feOffset/>
<feGaussianBlur stdDeviation="0.0603558"/>
<feComposite in2="hardAlpha" operator="arithmetic" k2="-1" k3="1"/>
<feColorMatrix type="matrix" values="0 0 0 0 0 0 0 0 0 0 0 0 0 0 0 0 0 0 0.25 0"/>
<feBlend mode="normal" in2="shape" result="effect1_innerShadow_2133_18723"/>
</filter>
<filter id="filter8_di_2133_18723" x="4.75602" y="15.1578" width="1.48782" height="2.16787" filterUnits="userSpaceOnUse" color-interpolation-filters="sRGB">
<feFlood flood-opacity="0" result="BackgroundImageFix"/>
<feColorMatrix in="SourceAlpha" type="matrix" values="0 0 0 0 0 0 0 0 0 0 0 0 0 0 0 0 0 0 127 0" result="hardAlpha"/>
<feOffset dy="0.0411677"/>
<feGaussianBlur stdDeviation="0.0257298"/>
<feColorMatrix type="matrix" values="0 0 0 0 1 0 0 0 0 1 0 0 0 0 1 0 0 0 0.59 0"/>
<feBlend mode="normal" in2="BackgroundImageFix" result="effect1_dropShadow_2133_18723"/>
<feBlend mode="normal" in="SourceGraphic" in2="effect1_dropShadow_2133_18723" result="shape"/>
<feColorMatrix in="SourceAlpha" type="matrix" values="0 0 0 0 0 0 0 0 0 0 0 0 0 0 0 0 0 0 127 0" result="hardAlpha"/>
<feOffset dx="-0.154379" dy="0.102919"/>
<feGaussianBlur stdDeviation="0.0771894"/>
<feComposite in2="hardAlpha" operator="arithmetic" k2="-1" k3="1"/>
<feColorMatrix type="matrix" values="0 0 0 0 0 0 0 0 0 0 0 0 0 0 0 0 0 0 0.25 0"/>
<feBlend mode="normal" in2="shape" result="effect2_innerShadow_2133_18723"/>
</filter>
<filter id="filter9_ii_2133_18723" x="3.90698" y="6.55228" width="24.4906" height="17.1843" filterUnits="userSpaceOnUse" color-interpolation-filters="sRGB">
<feFlood flood-opacity="0" result="BackgroundImageFix"/>
<feBlend mode="normal" in="SourceGraphic" in2="BackgroundImageFix" result="shape"/>
<feColorMatrix in="SourceAlpha" type="matrix" values="0 0 0 0 0 0 0 0 0 0 0 0 0 0 0 0 0 0 127 0" result="hardAlpha"/>
<feOffset dx="0.724269" dy="-0.965693"/>
<feGaussianBlur stdDeviation="2.89708"/>
<feComposite in2="hardAlpha" operator="arithmetic" k2="-1" k3="1"/>
<feColorMatrix type="matrix" values="0 0 0 0 0 0 0 0 0 0 0 0 0 0 0 0 0 0 0.07 0"/>
<feBlend mode="normal" in2="shape" result="effect1_innerShadow_2133_18723"/>
<feColorMatrix in="SourceAlpha" type="matrix" values="0 0 0 0 0 0 0 0 0 0 0 0 0 0 0 0 0 0 127 0" result="hardAlpha"/>
<feOffset dy="-0.120712"/>
<feGaussianBlur stdDeviation="0.241423"/>
<feComposite in2="hardAlpha" operator="arithmetic" k2="-1" k3="1"/>
<feColorMatrix type="matrix" values="0 0 0 0 0 0 0 0 0 0 0 0 0 0 0 0 0 0 0.09 0"/>
<feBlend mode="normal" in2="effect1_innerShadow_2133_18723" result="effect2_innerShadow_2133_18723"/>
</filter>
<filter id="filter10_ddii_2133_18723" x="19.8506" y="16.4027" width="7.89149" height="5.67336" filterUnits="userSpaceOnUse" color-interpolation-filters="sRGB">
<feFlood flood-opacity="0" result="BackgroundImageFix"/>
<feColorMatrix in="SourceAlpha" type="matrix" values="0 0 0 0 0 0 0 0 0 0 0 0 0 0 0 0 0 0 127 0" result="hardAlpha"/>
<feOffset dy="0.082721"/>
<feGaussianBlur stdDeviation="0.0551473"/>
<feColorMatrix type="matrix" values="0 0 0 0 0 0 0 0 0 0 0 0 0 0 0 0 0 0 0.57 0"/>
<feBlend mode="normal" in2="BackgroundImageFix" result="effect1_dropShadow_2133_18723"/>
<feColorMatrix in="SourceAlpha" type="matrix" values="0 0 0 0 0 0 0 0 0 0 0 0 0 0 0 0 0 0 127 0" result="hardAlpha"/>
<feOffset dy="-0.0551473"/>
<feGaussianBlur stdDeviation="0.0551473"/>
<feColorMatrix type="matrix" values="0 0 0 0 0 0 0 0 0 0 0 0 0 0 0 0 0 0 1 0"/>
<feBlend mode="normal" in2="effect1_dropShadow_2133_18723" result="effect2_dropShadow_2133_18723"/>
<feBlend mode="normal" in="SourceGraphic" in2="effect2_dropShadow_2133_18723" result="shape"/>
<feColorMatrix in="SourceAlpha" type="matrix" values="0 0 0 0 0 0 0 0 0 0 0 0 0 0 0 0 0 0 127 0" result="hardAlpha"/>
<feOffset dy="0.76027"/>
<feGaussianBlur stdDeviation="0.774798"/>
<feComposite in2="hardAlpha" operator="arithmetic" k2="-1" k3="1"/>
<feColorMatrix type="matrix" values="0 0 0 0 0 0 0 0 0 0 0 0 0 0 0 0 0 0 1 0"/>
<feBlend mode="normal" in2="shape" result="effect3_innerShadow_2133_18723"/>
<feColorMatrix in="SourceAlpha" type="matrix" values="0 0 0 0 0 0 0 0 0 0 0 0 0 0 0 0 0 0 127 0" result="hardAlpha"/>
<feOffset dy="-0.0828472"/>
<feGaussianBlur stdDeviation="0.0828472"/>
<feComposite in2="hardAlpha" operator="arithmetic" k2="-1" k3="1"/>
<feColorMatrix type="matrix" values="0 0 0 0 0 0 0 0 0 0 0 0 0 0 0 0 0 0 1 0"/>
<feBlend mode="normal" in2="effect3_innerShadow_2133_18723" result="effect4_innerShadow_2133_18723"/>
</filter>
<filter id="filter11_ddii_2133_18723" x="19.8506" y="16.4027" width="7.89124" height="5.67336" filterUnits="userSpaceOnUse" color-interpolation-filters="sRGB">
<feFlood flood-opacity="0" result="BackgroundImageFix"/>
<feColorMatrix in="SourceAlpha" type="matrix" values="0 0 0 0 0 0 0 0 0 0 0 0 0 0 0 0 0 0 127 0" result="hardAlpha"/>
<feOffset dy="0.082721"/>
<feGaussianBlur stdDeviation="0.0551473"/>
<feColorMatrix type="matrix" values="0 0 0 0 0 0 0 0 0 0 0 0 0 0 0 0 0 0 0.57 0"/>
<feBlend mode="normal" in2="BackgroundImageFix" result="effect1_dropShadow_2133_18723"/>
<feColorMatrix in="SourceAlpha" type="matrix" values="0 0 0 0 0 0 0 0 0 0 0 0 0 0 0 0 0 0 127 0" result="hardAlpha"/>
<feOffset dy="-0.0551473"/>
<feGaussianBlur stdDeviation="0.0551473"/>
<feColorMatrix type="matrix" values="0 0 0 0 0.670588 0 0 0 0 0.717647 0 0 0 0 0.760784 0 0 0 1 0"/>
<feBlend mode="normal" in2="effect1_dropShadow_2133_18723" result="effect2_dropShadow_2133_18723"/>
<feBlend mode="normal" in="SourceGraphic" in2="effect2_dropShadow_2133_18723" result="shape"/>
<feColorMatrix in="SourceAlpha" type="matrix" values="0 0 0 0 0 0 0 0 0 0 0 0 0 0 0 0 0 0 127 0" result="hardAlpha"/>
<feOffset dy="0.76027"/>
<feGaussianBlur stdDeviation="0.774798"/>
<feComposite in2="hardAlpha" operator="arithmetic" k2="-1" k3="1"/>
<feColorMatrix type="matrix" values="0 0 0 0 0.768627 0 0 0 0 0.768627 0 0 0 0 0.768627 0 0 0 1 0"/>
<feBlend mode="normal" in2="shape" result="effect3_innerShadow_2133_18723"/>
<feColorMatrix in="SourceAlpha" type="matrix" values="0 0 0 0 0 0 0 0 0 0 0 0 0 0 0 0 0 0 127 0" result="hardAlpha"/>
<feOffset dy="-0.0828472"/>
<feGaussianBlur stdDeviation="0.0828472"/>
<feComposite in2="hardAlpha" operator="arithmetic" k2="-1" k3="1"/>
<feColorMatrix type="matrix" values="0 0 0 0 0.670588 0 0 0 0 0.717647 0 0 0 0 0.760784 0 0 0 1 0"/>
<feBlend mode="normal" in2="effect3_innerShadow_2133_18723" result="effect4_innerShadow_2133_18723"/>
</filter>
<filter id="filter12_d_2133_18723" x="26.715" y="16.8304" width="0.922241" height="1.1282" filterUnits="userSpaceOnUse" color-interpolation-filters="sRGB">
<feFlood flood-opacity="0" result="BackgroundImageFix"/>
<feColorMatrix in="SourceAlpha" type="matrix" values="0 0 0 0 0 0 0 0 0 0 0 0 0 0 0 0 0 0 127 0" result="hardAlpha"/>
<feOffset dx="0.0879027" dy="0.109192"/>
<feGaussianBlur stdDeviation="0.0545959"/>
<feColorMatrix type="matrix" values="0 0 0 0 1 0 0 0 0 1 0 0 0 0 1 0 0 0 0.24 0"/>
<feBlend mode="normal" in2="BackgroundImageFix" result="effect1_dropShadow_2133_18723"/>
<feBlend mode="normal" in="SourceGraphic" in2="effect1_dropShadow_2133_18723" result="shape"/>
</filter>
<filter id="filter13_d_2133_18723" x="20.3623" y="19.5969" width="2.53064" height="1.07364" filterUnits="userSpaceOnUse" color-interpolation-filters="sRGB">
<feFlood flood-opacity="0" result="BackgroundImageFix"/>
<feColorMatrix in="SourceAlpha" type="matrix" values="0 0 0 0 0 0 0 0 0 0 0 0 0 0 0 0 0 0 127 0" result="hardAlpha"/>
<feOffset dx="0.0879027" dy="0.109192"/>
<feGaussianBlur stdDeviation="0.0545959"/>
<feColorMatrix type="matrix" values="0 0 0 0 1 0 0 0 0 1 0 0 0 0 1 0 0 0 0.24 0"/>
<feBlend mode="normal" in2="BackgroundImageFix" result="effect1_dropShadow_2133_18723"/>
<feBlend mode="normal" in="SourceGraphic" in2="effect1_dropShadow_2133_18723" result="shape"/>
</filter>
<filter id="filter14_ddi_2133_18723" x="15.4713" y="11.088" width="8.81622" height="6.3579" filterUnits="userSpaceOnUse" color-interpolation-filters="sRGB">
<feFlood flood-opacity="0" result="BackgroundImageFix"/>
<feColorMatrix in="SourceAlpha" type="matrix" values="0 0 0 0 0 0 0 0 0 0 0 0 0 0 0 0 0 0 127 0" result="hardAlpha"/>
<feOffset dx="-0.135191" dy="0.0675955"/>
<feGaussianBlur stdDeviation="0.0675955"/>
<feColorMatrix type="matrix" values="0 0 0 0 1 0 0 0 0 1 0 0 0 0 1 0 0 0 0.28 0"/>
<feBlend mode="normal" in2="BackgroundImageFix" result="effect1_dropShadow_2133_18723"/>
<feColorMatrix in="SourceAlpha" type="matrix" values="0 0 0 0 0 0 0 0 0 0 0 0 0 0 0 0 0 0 127 0" result="hardAlpha"/>
<feOffset dy="-0.0675955"/>
<feGaussianBlur stdDeviation="0.0675955"/>
<feColorMatrix type="matrix" values="0 0 0 0 1 0 0 0 0 1 0 0 0 0 1 0 0 0 0.56 0"/>
<feBlend mode="normal" in2="effect1_dropShadow_2133_18723" result="effect2_dropShadow_2133_18723"/>
<feBlend mode="normal" in="SourceGraphic" in2="effect2_dropShadow_2133_18723" result="shape"/>
<feColorMatrix in="SourceAlpha" type="matrix" values="0 0 0 0 0 0 0 0 0 0 0 0 0 0 0 0 0 0 127 0" result="hardAlpha"/>
<feOffset dx="-0.0675955" dy="0.202787"/>
<feGaussianBlur stdDeviation="0.101393"/>
<feComposite in2="hardAlpha" operator="arithmetic" k2="-1" k3="1"/>
<feColorMatrix type="matrix" values="0 0 0 0 0 0 0 0 0 0 0 0 0 0 0 0 0 0 0.75 0"/>
<feBlend mode="normal" in2="shape" result="effect3_innerShadow_2133_18723"/>
</filter>
<filter id="filter15_f_2133_18723" x="14.9154" y="15.2647" width="10.7817" height="6.20753" filterUnits="userSpaceOnUse" color-interpolation-filters="sRGB">
<feFlood flood-opacity="0" result="BackgroundImageFix"/>
<feBlend mode="normal" in="SourceGraphic" in2="BackgroundImageFix" result="shape"/>
<feGaussianBlur stdDeviation="0.946338" result="effect1_foregroundBlur_2133_18723"/>
</filter>
<filter id="filter16_di_2133_18723" x="13.0512" y="16.6961" width="0.731847" height="0.657899" filterUnits="userSpaceOnUse" color-interpolation-filters="sRGB">
<feFlood flood-opacity="0" result="BackgroundImageFix"/>
<feColorMatrix in="SourceAlpha" type="matrix" values="0 0 0 0 0 0 0 0 0 0 0 0 0 0 0 0 0 0 127 0" result="hardAlpha"/>
<feOffset dy="-0.0335259"/>
<feGaussianBlur stdDeviation="0.0167629"/>
<feColorMatrix type="matrix" values="0 0 0 0 0.78755 0 0 0 0 0.78755 0 0 0 0 0.78755 0 0 0 0.19 0"/>
<feBlend mode="normal" in2="BackgroundImageFix" result="effect1_dropShadow_2133_18723"/>
<feBlend mode="normal" in="SourceGraphic" in2="effect1_dropShadow_2133_18723" result="shape"/>
<feColorMatrix in="SourceAlpha" type="matrix" values="0 0 0 0 0 0 0 0 0 0 0 0 0 0 0 0 0 0 127 0" result="hardAlpha"/>
<feOffset dy="0.167629"/>
<feGaussianBlur stdDeviation="0.0838147"/>
<feComposite in2="hardAlpha" operator="arithmetic" k2="-1" k3="1"/>
<feColorMatrix type="matrix" values="0 0 0 0 0 0 0 0 0 0 0 0 0 0 0 0 0 0 0.74 0"/>
<feBlend mode="normal" in2="shape" result="effect2_innerShadow_2133_18723"/>
</filter>
<filter id="filter17_di_2133_18723" x="4.21767" y="9.32651" width="1.8731" height="2.2961" filterUnits="userSpaceOnUse" color-interpolation-filters="sRGB">
<feFlood flood-opacity="0" result="BackgroundImageFix"/>
<feColorMatrix in="SourceAlpha" type="matrix" values="0 0 0 0 0 0 0 0 0 0 0 0 0 0 0 0 0 0 127 0" result="hardAlpha"/>
<feOffset dy="0.0880777"/>
<feGaussianBlur stdDeviation="0.0440388"/>
<feColorMatrix type="matrix" values="0 0 0 0 0.925374 0 0 0 0 0.925374 0 0 0 0 0.925374 0 0 0 0.37 0"/>
<feBlend mode="normal" in2="BackgroundImageFix" result="effect1_dropShadow_2133_18723"/>
<feBlend mode="normal" in="SourceGraphic" in2="effect1_dropShadow_2133_18723" result="shape"/>
<feColorMatrix in="SourceAlpha" type="matrix" values="0 0 0 0 0 0 0 0 0 0 0 0 0 0 0 0 0 0 127 0" result="hardAlpha"/>
<feOffset dx="-0.340683" dy="0.425854"/>
<feGaussianBlur stdDeviation="0.170342"/>
<feComposite in2="hardAlpha" operator="arithmetic" k2="-1" k3="1"/>
<feColorMatrix type="matrix" values="0 0 0 0 0 0 0 0 0 0 0 0 0 0 0 0 0 0 0.8 0"/>
<feBlend mode="normal" in2="shape" result="effect2_innerShadow_2133_18723"/>
</filter>
<filter id="filter18_f_2133_18723" x="4.99212" y="12.9917" width="9.40809" height="6.63029" filterUnits="userSpaceOnUse" color-interpolation-filters="sRGB">
<feFlood flood-opacity="0" result="BackgroundImageFix"/>
<feBlend mode="normal" in="SourceGraphic" in2="BackgroundImageFix" result="shape"/>
<feGaussianBlur stdDeviation="0.146029" result="effect1_foregroundBlur_2133_18723"/>
</filter>
<filter id="filter19_di_2133_18723" x="5.01907" y="9.69446" width="11.0477" height="7.60901" filterUnits="userSpaceOnUse" color-interpolation-filters="sRGB">
<feFlood flood-opacity="0" result="BackgroundImageFix"/>
<feColorMatrix in="SourceAlpha" type="matrix" values="0 0 0 0 0 0 0 0 0 0 0 0 0 0 0 0 0 0 127 0" result="hardAlpha"/>
<feOffset dy="0.0699026"/>
<feGaussianBlur stdDeviation="0.0349513"/>
<feColorMatrix type="matrix" values="0 0 0 0 0.925374 0 0 0 0 0.925374 0 0 0 0 0.925374 0 0 0 0.37 0"/>
<feBlend mode="normal" in2="BackgroundImageFix" result="effect1_dropShadow_2133_18723"/>
<feBlend mode="normal" in="SourceGraphic" in2="effect1_dropShadow_2133_18723" result="shape"/>
<feColorMatrix in="SourceAlpha" type="matrix" values="0 0 0 0 0 0 0 0 0 0 0 0 0 0 0 0 0 0 127 0" result="hardAlpha"/>
<feOffset dx="-0.466041" dy="0.337344"/>
<feGaussianBlur stdDeviation="0.233021"/>
<feComposite in2="hardAlpha" operator="arithmetic" k2="-1" k3="1"/>
<feColorMatrix type="matrix" values="0 0 0 0 0 0 0 0 0 0 0 0 0 0 0 0 0 0 0.63 0"/>
<feBlend mode="normal" in2="shape" result="effect2_innerShadow_2133_18723"/>
</filter>
<linearGradient id="paint0_linear_2133_18723" x1="2.76986" y1="3.04272" x2="2.90776" y2="0.991461" gradientUnits="userSpaceOnUse">
<stop stop-color="#3F3F3F"/>
<stop offset="1" stop-color="#5C5C5C"/>
</linearGradient>
<linearGradient id="paint1_linear_2133_18723" x1="2.59611" y1="2.93413" x2="2.73289" y2="0.956599" gradientUnits="userSpaceOnUse">
<stop stop-color="#AAAAAA"/>
<stop offset="1" stop-color="#C2C2C2"/>
</linearGradient>
<linearGradient id="paint2_linear_2133_18723" x1="2.07501" y1="2.27942" x2="2.17832" y2="0.742742" gradientUnits="userSpaceOnUse">
<stop stop-color="#3F3F3F"/>
<stop offset="1" stop-color="#5C5C5C"/>
</linearGradient>
<linearGradient id="paint3_linear_2133_18723" x1="1.94485" y1="2.19807" x2="2.04731" y2="0.716626" gradientUnits="userSpaceOnUse">
<stop stop-color="#AAAAAA"/>
<stop offset="1" stop-color="#C2C2C2"/>
</linearGradient>
<linearGradient id="paint4_linear_2133_18723" x1="12.8531" y1="19.3487" x2="18.5357" y2="7.8776" gradientUnits="userSpaceOnUse">
<stop stop-color="#1B1B1B"/>
<stop offset="1" stop-color="#0D3244"/>
</linearGradient>
<linearGradient id="paint5_linear_2133_18723" x1="13.5834" y1="21.9764" x2="4.80951" y2="7.22088" gradientUnits="userSpaceOnUse">
<stop stop-color="#121212"/>
<stop offset="1" stop-color="#1B1B1B"/>
</linearGradient>
<linearGradient id="paint6_linear_2133_18723" x1="23.1693" y1="9.72807" x2="17.3628" y2="14.6201" gradientUnits="userSpaceOnUse">
<stop stop-color="#E8EAE9"/>
<stop offset="0.498386" stop-color="#707072"/>
<stop offset="1" stop-color="#2F3032"/>
</linearGradient>
<linearGradient id="paint7_linear_2133_18723" x1="20.1267" y1="19.7863" x2="20.6235" y2="18.1739" gradientUnits="userSpaceOnUse">
<stop stop-color="#ECEAEA"/>
<stop offset="1" stop-color="white" stop-opacity="0"/>
</linearGradient>
<linearGradient id="paint8_linear_2133_18723" x1="5.99593" y1="14.0617" x2="3.77382" y2="12.3809" gradientUnits="userSpaceOnUse">
<stop stop-color="#E8EAE9"/>
<stop offset="0.498386" stop-color="#707072"/>
<stop offset="1" stop-color="#2F3032"/>
</linearGradient>
<linearGradient id="paint9_linear_2133_18723" x1="8.53309" y1="18.764" x2="10.2639" y2="15.3743" gradientUnits="userSpaceOnUse">
<stop stop-color="#040404"/>
<stop offset="1" stop-color="#3C3C3C" stop-opacity="0"/>
</linearGradient>
<linearGradient id="paint10_linear_2133_18723" x1="7.13773" y1="27.0525" x2="7.81315" y2="12.6498" gradientUnits="userSpaceOnUse">
<stop stop-color="#E8EAE9"/>
<stop offset="0.498386" stop-color="#707072"/>
<stop offset="1" stop-color="#2F3032"/>
</linearGradient>
</defs>
</svg>
