<svg xmlns="http://www.w3.org/2000/svg" width="24" height="24" viewBox="0 0 24 24" fill="none">
    <path fill-rule="evenodd" clip-rule="evenodd" d="M6.14982 0H14.1738L20.9744 7.08846V20.8756C20.9744 22.6027 19.5771 24 17.8559 24H6.14982C4.42269 24 3.02539 22.6027 3.02539 20.8756V3.12443C3.02536 1.3973 4.42266 0 6.14982 0Z" fill="#E5252A"/>
    <path opacity="0.302" fill-rule="evenodd" clip-rule="evenodd" d="M14.1677 0V7.03449H20.9743L14.1677 0Z" fill="white"/>
    <path d="M6.49756 17.9071V13.5233H8.36263C8.8244 13.5233 9.19023 13.6492 9.46609 13.9071C9.74195 14.1589 9.87989 14.5008 9.87989 14.9266C9.87989 15.3523 9.74195 15.6942 9.46609 15.946C9.19023 16.2039 8.8244 16.3299 8.36263 16.3299H7.619V17.9071H6.49756ZM7.619 15.3763H8.2367C8.4046 15.3763 8.53654 15.3404 8.62651 15.2564C8.71645 15.1785 8.76445 15.0705 8.76445 14.9266C8.76445 14.7827 8.71648 14.6747 8.62651 14.5968C8.53657 14.5128 8.40463 14.4768 8.2367 14.4768H7.619V15.3763ZM10.3416 17.9071V13.5233H11.8949C12.2007 13.5233 12.4886 13.5652 12.7584 13.6552C13.0283 13.7451 13.2742 13.8711 13.49 14.045C13.706 14.2129 13.8799 14.4408 14.0058 14.7287C14.1257 15.0165 14.1917 15.3464 14.1917 15.7182C14.1917 16.084 14.1258 16.4138 14.0058 16.7017C13.8799 16.9895 13.706 17.2174 13.49 17.3853C13.2741 17.5592 13.0283 17.6852 12.7584 17.7751C12.4886 17.8651 12.2007 17.9071 11.8949 17.9071H10.3416ZM11.4391 16.9536H11.7629C11.9368 16.9536 12.0988 16.9356 12.2487 16.8936C12.3926 16.8516 12.5305 16.7856 12.6625 16.6957C12.7884 16.6057 12.8904 16.4798 12.9623 16.3119C13.0343 16.144 13.0703 15.946 13.0703 15.7182C13.0703 15.4843 13.0343 15.2864 12.9623 15.1185C12.8904 14.9506 12.7884 14.8246 12.6625 14.7347C12.5305 14.6447 12.3926 14.5787 12.2487 14.5368C12.0988 14.4948 11.9368 14.4768 11.7629 14.4768H11.4391V16.9536ZM14.7554 17.9071V13.5233H17.8739V14.4768H15.8769V15.1784H17.4721V16.126H15.8769V17.9071H14.7554Z" fill="white"/>
</svg>