<svg width="68" height="32" viewBox="0 0 68 32" fill="none" xmlns="http://www.w3.org/2000/svg">
<circle cx="16" cy="16" r="16" fill="#B1BCDA"/>
<path d="M40.882 21.5V11.938H44.48C45.2733 11.938 45.9313 12.05 46.454 12.274C46.9767 12.4887 47.3687 12.8387 47.63 13.324C47.9007 13.8093 48.036 14.458 48.036 15.27C48.036 16.082 47.9007 16.7447 47.63 17.258C47.3687 17.762 46.9767 18.1353 46.454 18.378C45.9313 18.6113 45.2733 18.728 44.48 18.728H42.814V21.5H40.882ZM42.814 17.146H44.424C45.012 17.146 45.432 16.992 45.684 16.684C45.936 16.3667 46.062 15.9 46.062 15.284C46.062 14.6493 45.936 14.1967 45.684 13.926C45.432 13.6553 45.012 13.52 44.424 13.52H42.814V17.146ZM52.0065 21.654C51.2319 21.654 50.6159 21.5233 50.1585 21.262C49.7105 21.0007 49.3885 20.604 49.1925 20.072C48.9965 19.54 48.8985 18.8727 48.8985 18.07C48.8985 17.202 49.0199 16.4927 49.2625 15.942C49.5145 15.3913 49.8785 14.9853 50.3545 14.724C50.8305 14.4533 51.4185 14.318 52.1185 14.318C53.1545 14.318 53.9339 14.5793 54.4565 15.102C54.9885 15.6247 55.2545 16.4507 55.2545 17.58L55.1705 18.616H50.7745C50.7839 19.1387 50.8912 19.5307 51.0965 19.792C51.3019 20.0533 51.6565 20.184 52.1605 20.184C52.4499 20.184 52.7672 20.1793 53.1125 20.17C53.4579 20.1513 53.7985 20.1327 54.1345 20.114C54.4799 20.0953 54.7739 20.0767 55.0165 20.058L55.0585 21.36C54.8252 21.3973 54.5312 21.4393 54.1765 21.486C53.8219 21.5327 53.4532 21.57 53.0705 21.598C52.6972 21.6353 52.3425 21.654 52.0065 21.654ZM50.7745 17.426H53.3925C53.3925 16.7913 53.2899 16.348 53.0845 16.096C52.8885 15.844 52.5665 15.718 52.1185 15.718C51.6799 15.718 51.3439 15.8487 51.1105 16.11C50.8865 16.3713 50.7745 16.81 50.7745 17.426ZM58.9567 21.668C58.4433 21.668 58.028 21.5933 57.7107 21.444C57.3933 21.2947 57.1647 21.038 57.0247 20.674C56.894 20.3007 56.8287 19.7827 56.8287 19.12V16.026H56.0027V14.472H56.8287V12.61H58.6907V14.472H60.4827V16.026H58.6907V18.63C58.6907 18.994 58.7047 19.2787 58.7327 19.484C58.77 19.6893 58.8447 19.834 58.9567 19.918C59.0687 20.002 59.2413 20.044 59.4747 20.044C59.54 20.044 59.638 20.0393 59.7687 20.03C59.8993 20.0207 60.03 20.0113 60.1607 20.002C60.2913 19.9927 60.3987 19.9833 60.4827 19.974L60.5387 21.472C60.3147 21.5093 60.044 21.5513 59.7267 21.598C59.4187 21.6447 59.162 21.668 58.9567 21.668ZM64.0579 21.654C63.7499 21.654 63.4186 21.6353 63.0639 21.598C62.7186 21.57 62.3919 21.5327 62.0839 21.486C61.7852 21.4393 61.5286 21.3927 61.3139 21.346L61.3699 19.96C61.6126 19.988 61.8832 20.0207 62.1819 20.058C62.4899 20.0953 62.7886 20.128 63.0779 20.156C63.3766 20.1747 63.6192 20.184 63.8059 20.184C64.0859 20.184 64.3146 20.1607 64.4919 20.114C64.6786 20.0673 64.8186 19.9927 64.9119 19.89C65.0052 19.778 65.0519 19.6193 65.0519 19.414C65.0519 19.2553 65.0099 19.134 64.9259 19.05C64.8512 18.966 64.7019 18.896 64.4779 18.84C64.2632 18.7747 63.9459 18.7093 63.5259 18.644C63.0032 18.5693 62.5692 18.462 62.2239 18.322C61.8879 18.182 61.6406 17.9767 61.4819 17.706C61.3232 17.426 61.2439 17.048 61.2439 16.572C61.2439 15.9933 61.3699 15.5407 61.6219 15.214C61.8739 14.8873 62.2099 14.6587 62.6299 14.528C63.0499 14.388 63.5072 14.318 64.0019 14.318C64.3286 14.318 64.6646 14.3367 65.0099 14.374C65.3552 14.402 65.6819 14.4393 65.9899 14.486C66.2979 14.5327 66.5546 14.5793 66.7599 14.626L66.7039 16.04C66.4706 16.0027 66.1999 15.97 65.8919 15.942C65.5839 15.9047 65.2759 15.8767 64.9679 15.858C64.6692 15.8393 64.4172 15.83 64.2119 15.83C63.9972 15.83 63.8059 15.8533 63.6379 15.9C63.4699 15.9373 63.3392 16.0027 63.2459 16.096C63.1619 16.1893 63.1199 16.3293 63.1199 16.516C63.1199 16.6467 63.1572 16.754 63.2319 16.838C63.3066 16.922 63.4466 16.9967 63.6519 17.062C63.8666 17.118 64.1746 17.174 64.5759 17.23C65.1546 17.314 65.6166 17.4307 65.9619 17.58C66.3072 17.7293 66.5546 17.944 66.7039 18.224C66.8626 18.504 66.9419 18.882 66.9419 19.358C66.9419 20.2073 66.6899 20.8047 66.1859 21.15C65.6912 21.486 64.9819 21.654 64.0579 21.654Z" fill="#0D3244"/>
<g filter="url(#filter0_f_2133_18434)">
<path d="M23.9791 25.3318C25.0908 24.9962 27.1148 24.0791 27.8422 23.4003C28.681 22.6898 27.29 21.834 27.0836 21.7142C26.8771 21.5945 13.6339 14.9934 11.8645 14.2148C10.0952 13.4363 5.56764 16.1797 4.21098 16.9329C3.10513 17.5467 3.8866 17.981 4.03404 18.1007C4.18149 18.2205 14.3066 23.4602 17.344 24.8976C19.6442 25.9861 21.7969 25.9906 23.9791 25.3318Z" fill="black" fill-opacity="0.2"/>
</g>
<path fill-rule="evenodd" clip-rule="evenodd" d="M14.3448 18.8154L15.701 18.1865L15.7015 18.1875C15.7102 18.1833 15.719 18.1791 15.7279 18.1752C16.5358 17.8126 17.6883 18.634 18.3021 20.0097C18.9159 21.3854 18.7585 22.7945 17.9507 23.1571C17.938 23.1628 17.9252 23.1682 17.9124 23.1733L16.6091 23.7785L15.8831 22.1871C15.6924 21.9344 15.5198 21.6436 15.3766 21.3225C15.2445 21.0265 15.1481 20.7289 15.0862 20.4405L14.3448 18.8154Z" fill="#2E2E2E"/>
<ellipse cx="1.60393" cy="2.72441" rx="1.60393" ry="2.72441" transform="matrix(-0.911976 0.409256 0.40762 0.913593 15.8464 18.1459)" fill="#2E2E2E"/>
<g filter="url(#filter1_i_2133_18434)">
<ellipse cx="1.20301" cy="2.0434" rx="1.20301" ry="2.0434" transform="matrix(-0.911976 0.409256 0.40762 0.913593 15.7122 18.9335)" fill="url(#paint0_linear_2133_18434)"/>
</g>
<g filter="url(#filter2_di_2133_18434)">
<path fill-rule="evenodd" clip-rule="evenodd" d="M15.6071 19.9088C15.7425 20.0057 15.8745 20.1321 15.9962 20.2829L15.6454 20.8921C15.6329 20.8774 15.6201 20.8633 15.6071 20.85L15.6071 19.9088ZM15.6071 21.9458L16.1275 22.8498C15.9689 22.9164 15.7899 22.9113 15.6071 22.8465L15.6071 21.9458ZM15.4261 22.7635L15.4261 21.8656C15.3948 21.8468 15.3637 21.8239 15.3334 21.7972L14.9855 22.4016C15.1248 22.5557 15.2748 22.6786 15.4261 22.7635ZM15.4261 20.716L15.4261 19.7978C15.1919 19.6783 14.9571 19.6511 14.7563 19.7412C14.7004 19.7663 14.6495 19.7995 14.6037 19.8397L15.1212 20.7386C15.1388 20.7232 15.1584 20.7105 15.18 20.7008C15.2539 20.6676 15.3398 20.6754 15.4261 20.716ZM16.2821 22.7552L15.7725 21.8701C15.8123 21.8365 15.8426 21.7894 15.8628 21.7326L16.5768 22.1461C16.5397 22.4078 16.4401 22.6228 16.2821 22.7552ZM15.0585 21.3698C15.0443 21.3285 15.0329 21.2875 15.0243 21.2472L14.3094 20.8332C14.3259 21.0536 14.3776 21.2903 14.4662 21.529L15.0585 21.3698ZM15.8686 21.3398C15.8849 21.4096 15.8929 21.4774 15.8928 21.5406L16.5928 21.9459C16.5981 21.7094 16.5588 21.4462 16.4727 21.1775L15.8686 21.3398ZM16.4116 21.0062L15.8124 21.1672L15.8024 21.1441C15.789 21.1141 15.7746 21.0852 15.7592 21.0575L16.1139 20.4414C16.2054 20.5749 16.2887 20.7232 16.3602 20.8835C16.3784 20.9244 16.3956 20.9653 16.4116 21.0062ZM15.206 21.6555L14.862 22.253C14.7393 22.0927 14.6284 21.9072 14.5367 21.7018L14.5351 21.6982L15.1322 21.5377C15.1549 21.5798 15.1797 21.6192 15.206 21.6555ZM15.0054 21.0268L14.3047 20.621C14.3127 20.3695 14.3717 20.1491 14.4786 19.9854L15.0194 20.9248C15.012 20.9567 15.0073 20.9909 15.0054 21.0268Z" fill="#4C4C4C"/>
</g>
<path fill-rule="evenodd" clip-rule="evenodd" d="M14.3451 18.7866L15.7014 18.1577L15.7018 18.1586C15.7102 18.1545 15.7188 18.1505 15.7274 18.1466C16.5353 17.7841 17.6877 18.6055 18.3015 19.9812C18.9153 21.3569 18.758 22.766 17.9502 23.1286C17.938 23.134 17.9258 23.1392 17.9135 23.1441L16.6094 23.7497L15.885 22.1618C15.6933 21.9084 15.5199 21.6165 15.376 21.294C15.2434 20.9967 15.1467 20.6977 15.0849 20.4081L14.3451 18.7866Z" fill="#2E2E2E"/>
<path d="M14.0215 21.9478C14.6349 23.3224 15.787 24.1429 16.5948 23.7803C17.4027 23.4178 17.5604 22.0096 16.947 20.6349C16.3337 19.2603 15.1469 18.3658 14.3391 18.7283C13.5312 19.0909 13.4082 20.5731 14.0215 21.9478Z" fill="#2E2E2E"/>
<g filter="url(#filter3_i_2133_18434)">
<ellipse cx="1.12754" cy="1.97048" rx="1.12754" ry="1.97048" transform="matrix(-0.939744 0.342056 0.316393 0.948614 15.8989 19.0376)" fill="url(#paint1_linear_2133_18434)"/>
</g>
<g filter="url(#filter4_di_2133_18434)">
<path fill-rule="evenodd" clip-rule="evenodd" d="M14.8508 21.9771C15.0145 22.2769 15.2257 22.5032 15.4421 22.6187L15.1866 21.8704L14.8508 21.9771ZM14.6447 21.4715C14.5161 21.0232 14.5243 20.5898 14.6465 20.2884L15.0107 21.3551L14.6447 21.4715ZM15.8283 21.0952C15.7144 20.8003 15.5086 20.6005 15.3246 20.5963L15.082 19.8856C15.4936 19.8131 15.9885 20.2715 16.2327 20.9666L15.8283 21.0952ZM16.3572 21.4983L15.9009 21.6433C15.8832 21.7606 15.8405 21.8573 15.7759 21.9179L16.0184 22.6282C16.2916 22.4554 16.4175 22.0121 16.3572 21.4983Z" fill="#A9A8A8"/>
</g>
<path fill-rule="evenodd" clip-rule="evenodd" d="M4.85412 14.8264L5.87013 14.3552L5.87033 14.3557C5.87663 14.3526 5.88299 14.3496 5.8894 14.3468C6.4946 14.0752 7.35796 14.6905 7.81778 15.7211C8.2776 16.7517 8.15975 17.8073 7.55456 18.0789C7.5471 18.0823 7.5396 18.0855 7.53206 18.0885L6.55039 18.5444L6.00783 17.3552C5.8641 17.1652 5.73404 16.9463 5.62618 16.7046C5.52668 16.4816 5.45422 16.2574 5.40791 16.0402L4.85412 14.8264Z" fill="#2E2E2E"/>
<ellipse cx="1.20157" cy="2.04096" rx="1.20157" ry="2.04096" transform="matrix(-0.945518 0.324327 0.32255 0.946978 6.19263 14.3589)" fill="#2E2E2E"/>
<g filter="url(#filter5_i_2133_18434)">
<ellipse cx="0.90122" cy="1.53079" rx="0.90122" ry="1.53079" transform="matrix(-0.911976 0.409256 0.40762 0.913593 5.87793 14.9148)" fill="url(#paint2_linear_2133_18434)"/>
</g>
<g filter="url(#filter6_di_2133_18434)">
<path fill-rule="evenodd" clip-rule="evenodd" d="M5.84383 15.6797C5.92915 15.7469 6.0121 15.8295 6.08947 15.9253L5.84383 16.352L5.84383 15.6797ZM5.84383 17.3425L6.14435 17.8645C6.05043 17.893 5.94835 17.8904 5.84383 17.8608L5.84383 17.3425ZM5.66276 17.7841L5.66276 17.1112C5.65139 17.1044 5.64006 17.0968 5.62882 17.0886L5.36466 17.5474C5.45984 17.6469 5.56092 17.727 5.66276 17.7841ZM5.66276 16.25L5.66276 15.5624C5.48736 15.4728 5.31138 15.4525 5.16096 15.52C5.11894 15.5389 5.08068 15.5638 5.04627 15.5941L5.43399 16.2676C5.44736 16.2558 5.46223 16.2461 5.47857 16.2388C5.53393 16.2139 5.59821 16.2197 5.66276 16.25ZM6.30364 17.7782L5.92193 17.1151C5.94155 17.0987 5.95808 17.078 5.97143 17.0537L6.51693 17.3695C6.48431 17.5441 6.41243 17.6872 6.30364 17.7782ZM5.38753 16.7398C5.38411 16.7298 5.38091 16.7199 5.37793 16.71L4.83129 16.3935C4.84745 16.5425 4.88458 16.7002 4.94354 16.8591L5.38753 16.7398ZM6.00343 16.7619C6.00961 16.7986 6.01264 16.8342 6.0126 16.8681L6.53676 17.1716C6.54041 17.0071 6.51534 16.8254 6.46013 16.6392L6.00343 16.7619ZM6.40097 16.4674L5.95228 16.588L5.94485 16.5708L5.93687 16.5535L6.20584 16.0862C6.26347 16.1752 6.31628 16.2721 6.36252 16.3757C6.37615 16.4063 6.38897 16.4368 6.40097 16.4674ZM5.49767 16.9533L5.23981 17.4013C5.15588 17.2915 5.07929 17.166 5.01435 17.0277L5.46622 16.9063C5.47631 16.9227 5.48681 16.9383 5.49767 16.9533ZM5.34776 16.4831L4.82263 16.1791C4.82797 16.0129 4.86293 15.8649 4.92601 15.7482L5.34788 16.481L5.34776 16.4831Z" fill="#4C4C4C"/>
</g>
<path fill-rule="evenodd" clip-rule="evenodd" d="M4.85348 14.8048L5.86948 14.3336L5.86963 14.334C5.87599 14.3309 5.8824 14.3279 5.88887 14.325C6.49406 14.0534 7.35742 14.6687 7.81723 15.6993C8.27705 16.7299 8.1592 17.7856 7.55401 18.0572C7.54745 18.0601 7.54086 18.0629 7.53425 18.0657L6.54974 18.5229L6.00682 17.3328C5.86328 17.143 5.73338 16.9243 5.62564 16.6828C5.52626 16.4601 5.45386 16.2362 5.40754 16.0193L4.85348 14.8048Z" fill="#2E2E2E"/>
<path d="M4.49262 16.9855C4.76524 18.0797 5.56276 18.8218 6.27393 18.643C6.98511 18.4642 7.34062 17.4322 7.068 16.338C6.79537 15.2438 5.98184 14.4426 5.27067 14.6214C4.5595 14.8003 4.21999 15.8913 4.49262 16.9855Z" fill="#2E2E2E"/>
<g filter="url(#filter7_i_2133_18434)">
<ellipse cx="0.844688" cy="1.47616" rx="0.844688" ry="1.47616" transform="matrix(-0.963522 0.267857 0.241582 0.970366 6.07129 15.0853)" fill="url(#paint3_linear_2133_18434)"/>
</g>
<g filter="url(#filter8_di_2133_18434)">
<path fill-rule="evenodd" clip-rule="evenodd" d="M5.18138 17.3459C5.22951 17.4323 5.2833 17.5092 5.34076 17.5745L5.27644 17.3237L5.18138 17.3459ZM4.99406 16.8307C4.94652 16.5978 4.94583 16.3738 4.98453 16.1857L5.14115 16.7963L4.99406 16.8307ZM5.89913 16.6189C5.83136 16.3921 5.68939 16.2308 5.55229 16.2166L5.41255 15.6719C5.72439 15.6412 6.06762 16.0126 6.20956 16.5463L5.89913 16.6189ZM6.27096 17.091C6.25548 17.415 6.14004 17.6761 5.95204 17.775L5.81218 17.2298C5.82648 17.2183 5.83968 17.2047 5.85173 17.1891L6.27096 17.091Z" fill="#A9A8A8"/>
</g>
<g filter="url(#filter9_ii_2133_18434)">
<path d="M4.0974 14.1831C3.92219 14.3731 3.91566 15.797 3.93897 16.0993C3.96232 16.4021 4.35404 16.2842 4.39539 15.9832L4.40598 15.9055C4.52208 15.0451 5.13109 14.7138 5.50098 14.7947C5.92139 14.8867 6.29783 15.2341 6.52394 15.8148C6.70098 16.2695 6.80964 16.5321 6.93969 17.5204C6.9515 17.6102 6.99241 17.6885 7.06993 17.7353C7.96532 18.276 13.7871 21.2318 13.7669 21.1593C13.7106 20.9561 13.7091 19.9952 13.9114 19.5266C14.3088 18.6062 14.929 18.694 15.2624 18.7449C15.6157 18.7989 16.4369 19.23 16.8633 20.0973C17.5394 21.4728 17.3713 22.4071 17.5394 22.8986C17.5946 23.0599 20.2837 24.0783 21.24 24.3182C23.6313 25.0308 27.0087 22.603 27.6457 22.1328C28.2828 21.6626 28.3346 20.28 28.2409 18.7449C28.2424 17.8477 28.0503 17.3826 27.9129 17.2395C27.2665 16.5657 25.747 15.4798 24.7488 14.9348C24.7008 14.9086 24.6563 14.8738 24.6194 14.8335C22.2194 12.2142 22.0614 11.8843 21.2271 11.4789C19.5228 10.6507 12.5832 7.83282 11.0574 7.83282C10.1558 7.83282 6.98165 8.85794 6.12428 9.51142C5.45786 10.0194 4.81872 11.1333 4.46787 11.8853C4.44778 11.9283 4.43464 11.9735 4.42879 12.0206C4.35929 12.5813 4.23149 14.0377 4.0974 14.1831Z" fill="url(#paint4_linear_2133_18434)"/>
</g>
<mask id="mask0_2133_18434" style="mask-type:alpha" maskUnits="userSpaceOnUse" x="3" y="7" width="26" height="18">
<path d="M4.09725 14.1831C3.92205 14.3731 3.91552 15.797 3.93882 16.0993C3.96218 16.4022 4.34258 16.282 4.38347 15.981L4.39279 15.9121C4.5089 15.0518 5.13095 14.7138 5.50083 14.7947C5.92125 14.8867 6.29769 15.2341 6.52379 15.8148C6.70084 16.2695 6.80949 16.5321 6.93955 17.5204C6.95136 17.6102 6.99227 17.6885 7.06979 17.7353C7.96517 18.2761 13.7869 21.2318 13.7668 21.1593C13.7104 20.9561 13.709 19.9952 13.9113 19.5266C14.3086 18.6062 14.9289 18.694 15.2622 18.7449C15.6156 18.7989 16.4368 19.23 16.8631 20.0973C17.5393 21.4728 17.3712 22.4071 17.5393 22.8987C17.5944 23.0599 20.2835 24.0783 21.2399 24.3182C23.6311 25.0308 27.0085 22.603 27.6456 22.1328C28.2826 21.6626 28.3344 20.28 28.2408 18.7449C28.2422 17.8478 28.0502 17.3827 27.9128 17.2395C27.2664 16.5657 25.7469 15.4798 24.7486 14.9348C24.7007 14.9086 24.6562 14.8739 24.6193 14.8336C22.2182 12.2142 21.991 11.8772 20.7775 11.2875C19.0732 10.4592 12.583 7.83284 11.0572 7.83284C10.1556 7.83284 6.98151 8.85795 6.12414 9.51143C5.45771 10.0194 4.81857 11.1333 4.46773 11.8853C4.44764 11.9283 4.43449 11.9735 4.42865 12.0206C4.35915 12.5813 4.23135 14.0377 4.09725 14.1831Z" fill="url(#paint5_linear_2133_18434)"/>
</mask>
<g mask="url(#mask0_2133_18434)">
<g filter="url(#filter10_ddii_2133_18434)">
<path d="M22.9584 20.4858C22.5351 20.5162 21.8797 20.5834 21.1473 20.4288C20.7974 20.355 20.1437 21.0309 20.4607 21.1964C20.8697 21.4098 22.0389 21.8103 23.1637 21.6145C23.1799 21.6117 23.1963 21.6093 23.2124 21.6124C23.3434 21.6371 23.6337 21.8587 23.8928 21.9585C24.3203 22.0773 26.1922 21.0612 26.6641 20.7946C27.6602 20.2317 28.0006 19.8191 28.0536 19.7098C28.1365 19.5392 28.0807 19.1864 28.0972 19.0764C28.1084 19.0015 28.1686 18.8561 28.2058 18.7709C28.2252 18.7268 28.2359 18.6795 28.2348 18.6313C28.2316 18.4924 28.2185 18.1803 28.1644 17.9165C28.1595 17.8927 28.1568 17.8683 28.1564 17.844C28.1463 17.2862 27.911 16.9133 27.9111 17.2077C27.9111 17.6116 27.8091 18.0949 27.5252 18.3395C27.5059 18.3562 27.4878 18.3707 27.4663 18.3845C27.1186 18.6067 23.8182 20.424 22.9584 20.4858Z" fill="#2E2E2E"/>
</g>
<mask id="mask1_2133_18434" style="mask-type:alpha" maskUnits="userSpaceOnUse" x="20" y="17" width="9" height="5">
<path d="M22.9584 20.4858C22.4656 20.5212 21.6586 20.6065 20.7814 20.3337C20.5121 20.25 20.0423 20.6933 20.2012 20.9262C20.2882 21.0538 20.3758 21.1521 20.4607 21.1964C20.8704 21.4102 22.0429 21.8116 23.1695 21.6135C23.1818 21.6113 23.1942 21.6096 23.2065 21.6114C23.3346 21.6304 23.6297 21.8572 23.8928 21.9585C24.3203 22.0773 26.1922 21.0612 26.6641 20.7946C27.6602 20.2317 28.0441 19.7874 28.0972 19.6781C28.18 19.5075 28.0807 19.1666 28.0972 19.0566C28.1088 18.979 28.1728 18.8359 28.2097 18.7581C28.2265 18.7224 28.2359 18.6838 28.2351 18.6444C28.2324 18.5115 28.22 18.1821 28.1626 17.908C28.1588 17.8898 28.1568 17.8712 28.1565 17.8527C28.1488 17.29 27.911 16.9117 27.9111 17.2077C27.9111 17.6149 27.8075 18.1027 27.5183 18.3454C27.5033 18.3579 27.4897 18.3692 27.4734 18.3798C27.1669 18.5801 23.8245 20.4235 22.9584 20.4858Z" fill="#211F1F"/>
</mask>
<g mask="url(#mask1_2133_18434)">
<g filter="url(#filter11_d_2133_18434)">
<path d="M27.868 17.3731C27.868 17.3731 28.1601 17.7279 27.9797 18.1144C27.9255 18.2307 27.7743 18.3647 27.6535 18.2768C27.5635 18.2115 27.3173 18.1805 27.3173 18.1805L27.868 17.3731Z" fill="#FAED47"/>
<path d="M27.8586 17.6208C27.8618 17.6285 27.8648 17.6363 27.8678 17.6444C27.9107 17.7609 27.9307 17.9076 27.8602 18.0587C27.8427 18.0962 27.8076 18.1381 27.772 18.1601C27.7552 18.1706 27.7442 18.173 27.7395 18.1733L27.7393 18.1733C27.7372 18.1734 27.7356 18.1735 27.731 18.1702C27.6923 18.1421 27.6451 18.1228 27.6053 18.1093C27.5834 18.1019 27.561 18.0953 27.5389 18.0895L27.8586 17.6208Z" stroke="white" stroke-opacity="0.9" stroke-width="0.263708"/>
</g>
<g filter="url(#filter12_d_2133_18434)">
<path d="M23.1314 20.2422C23.1314 20.2422 23.446 20.9352 22.4385 21.0703C22.1356 21.111 21.6077 21.0669 21.2617 20.7911C21.0715 20.6395 20.809 20.2072 20.809 20.2072L23.1314 20.2422Z" fill="#FAED47"/>
<path d="M23.0343 20.3726C23.0347 20.3747 23.0352 20.3769 23.0356 20.3791C23.0469 20.434 23.0522 20.5038 23.0348 20.5738C23.0181 20.6409 22.9794 20.7135 22.8928 20.7784C22.804 20.8449 22.6582 20.9078 22.421 20.9397C22.2837 20.9581 22.0903 20.9576 21.8909 20.9198C21.6911 20.8819 21.4949 20.8083 21.3439 20.6879C21.2654 20.6254 21.1618 20.4942 21.0718 20.3664C21.0662 20.3584 21.0607 20.3506 21.0553 20.3428L23.0343 20.3726Z" stroke="white" stroke-opacity="0.9" stroke-width="0.263708"/>
</g>
<g filter="url(#filter13_ddii_2133_18434)">
<path d="M22.9584 20.4858C22.5351 20.5162 21.8797 20.5834 21.1473 20.4288C20.7974 20.355 20.1437 21.0309 20.4607 21.1964C20.8697 21.4098 22.0389 21.8103 23.1637 21.6145C23.1799 21.6117 23.1963 21.6093 23.2124 21.6124C23.3434 21.6371 23.6337 21.8587 23.8928 21.9585C24.3203 22.0773 26.1922 21.0612 26.6641 20.7946C27.6602 20.2317 28.0006 19.8191 28.0536 19.7098C28.1365 19.5392 28.0807 19.1864 28.0972 19.0764C28.1084 19.0015 28.1686 18.8561 28.2058 18.7709C28.2252 18.7268 28.2359 18.6795 28.2348 18.6313C28.2316 18.4924 28.2185 18.1803 28.1644 17.9165C28.1595 17.8927 28.1568 17.8683 28.1564 17.844C28.1463 17.2862 27.911 16.9133 27.9111 17.2077C27.9111 17.6116 27.8091 18.0949 27.5252 18.3395C27.5059 18.3562 27.4878 18.3707 27.4663 18.3845C27.1186 18.6067 23.8182 20.424 22.9584 20.4858Z" fill="#ABB7C2"/>
</g>
<mask id="mask2_2133_18434" style="mask-type:alpha" maskUnits="userSpaceOnUse" x="20" y="17" width="9" height="5">
<path d="M22.9584 20.4858C22.4656 20.5212 21.6586 20.6065 20.7814 20.3337C20.5121 20.25 20.0423 20.6933 20.2012 20.9262C20.2882 21.0538 20.3758 21.1521 20.4607 21.1964C20.8704 21.4102 22.0429 21.8116 23.1695 21.6135C23.1818 21.6113 23.1942 21.6096 23.2065 21.6114C23.3346 21.6304 23.6297 21.8572 23.8928 21.9585C24.3203 22.0773 26.1922 21.0612 26.6641 20.7946C27.6602 20.2317 28.0441 19.7874 28.0972 19.6781C28.18 19.5075 28.0807 19.1666 28.0972 19.0566C28.1088 18.979 28.1728 18.8359 28.2097 18.7581C28.2265 18.7224 28.2359 18.6838 28.2351 18.6444C28.2324 18.5115 28.22 18.1821 28.1626 17.908C28.1588 17.8898 28.1568 17.8712 28.1565 17.8527C28.1488 17.29 27.911 16.9117 27.9111 17.2077C27.9111 17.6149 27.8075 18.1027 27.5183 18.3454C27.5033 18.3579 27.4897 18.3692 27.4734 18.3798C27.1669 18.5801 23.8245 20.4235 22.9584 20.4858Z" fill="#211F1F"/>
</mask>
<g mask="url(#mask2_2133_18434)">
<g filter="url(#filter14_ddii_2133_18434)">
<path d="M22.9584 20.4858C22.5351 20.5162 21.8797 20.5834 21.1473 20.4288C20.7974 20.355 20.1437 21.0309 20.4607 21.1964C20.8697 21.4098 22.0389 21.8103 23.1638 21.6145C23.1799 21.6117 23.1963 21.6093 23.2124 21.6124C23.3434 21.6371 23.6337 21.8587 23.8928 21.9585C24.3203 22.0773 26.1922 21.0612 26.6641 20.7946C27.6602 20.2317 27.9808 19.831 28.0338 19.7217C28.1167 19.551 28.0609 19.1706 28.0774 19.0605C28.088 18.99 28.1501 18.8634 28.1933 18.7817C28.2204 18.7305 28.2359 18.674 28.2344 18.6161C28.2306 18.4706 28.2166 18.171 28.1644 17.9165C28.1595 17.8927 28.1568 17.8683 28.1564 17.844C28.1463 17.2862 27.911 16.9133 27.9111 17.2077C27.9111 17.6116 27.8091 18.0949 27.5252 18.3395C27.5059 18.3562 27.4878 18.3707 27.4663 18.3844C27.1187 18.6067 23.8182 20.424 22.9584 20.4858Z" fill="#DADADA"/>
</g>
<g filter="url(#filter15_d_2133_18434)">
<path d="M27.8589 17.6208C27.862 17.6285 27.8651 17.6363 27.868 17.6444C27.9109 17.7609 27.931 17.9076 27.8605 18.0587C27.843 18.0962 27.8078 18.1381 27.7723 18.1601C27.7555 18.1706 27.7444 18.173 27.7397 18.1733L27.7396 18.1733C27.7374 18.1734 27.7358 18.1735 27.7312 18.1702C27.6926 18.1421 27.6454 18.1228 27.6055 18.1093C27.5837 18.1019 27.5612 18.0953 27.5392 18.0895L27.8589 17.6208Z" stroke="white" stroke-opacity="0.9" stroke-width="0.263708"/>
</g>
<g filter="url(#filter16_d_2133_18434)">
<path d="M23.0343 20.3726C23.0347 20.3747 23.0352 20.3769 23.0356 20.3791C23.0469 20.434 23.0522 20.5038 23.0348 20.5738C23.0181 20.6409 22.9794 20.7135 22.8928 20.7784C22.804 20.8449 22.6582 20.9078 22.421 20.9397C22.2837 20.9581 22.0903 20.9576 21.8909 20.9198C21.6911 20.8819 21.4949 20.8083 21.3439 20.6879C21.2654 20.6254 21.1618 20.4942 21.0718 20.3664C21.0662 20.3584 21.0607 20.3506 21.0553 20.3428L23.0343 20.3726Z" stroke="white" stroke-opacity="0.9" stroke-width="0.263708"/>
</g>
</g>
</g>
<g filter="url(#filter17_ddi_2133_18434)">
<path d="M17.9394 17.705C17.4 17.4818 16.7742 15.7267 16.1118 14.4443C15.9626 14.1553 16.0845 13.7905 16.3865 13.6696L21.2315 11.7291C21.3619 11.6769 21.5046 11.6852 21.6142 11.773C21.8911 11.9949 22.5364 12.5923 23.8649 14.1593C24.3499 14.7315 24.4214 14.8026 24.6641 15.0684C24.7002 15.1079 24.5709 15.2958 24.4446 15.3999C23.925 15.8281 19.3676 18.296 17.9394 17.705Z" fill="url(#paint6_linear_2133_18434)"/>
</g>
<g filter="url(#filter18_f_2133_18434)">
<path d="M20.0062 19.6662C18.6952 19.1051 17.9458 18.3734 17.146 17.708C19.486 18.3243 24.3858 19.6798 24.3127 19.78C24.2214 19.9053 23.8773 20.0611 22.7213 20.1747C21.5833 20.2865 20.1563 19.7304 20.0062 19.6662Z" fill="url(#paint7_linear_2133_18434)" fill-opacity="0.21"/>
</g>
<path d="M22.3428 16.5772L18.0644 12.9606C17.6665 13.1269 16.4093 13.6488 16.2249 13.718C15.9859 13.8078 15.8836 13.8845 15.8836 13.8845C15.8379 13.9303 15.8049 13.8847 15.8836 14.026C16.0251 14.2799 16.2279 14.7 16.5204 15.3203C17.0365 16.4149 17.5272 17.6065 17.9729 17.7383C18.5638 17.9131 19.5225 17.6784 20.2868 17.4262C20.9701 17.2008 21.836 16.7831 22.3428 16.5772Z" fill="#C4C4C4" fill-opacity="0.2"/>
<g filter="url(#filter19_di_2133_18434)">
<path d="M5.76943 10.5369C6.12447 9.9379 6.16079 9.72091 5.93412 9.68558C5.63347 9.84969 4.74941 11.0721 4.59913 11.6294C4.5706 11.7352 4.79599 11.6994 5.04294 11.525C5.28989 11.3506 5.32564 11.2857 5.76943 10.5369Z" fill="url(#paint8_linear_2133_18434)"/>
</g>
<g filter="url(#filter20_f_2133_18434)">
<path d="M5.40573 13.7729L5.34033 13.7397C5.36235 13.7502 5.38415 13.7613 5.40573 13.7729L14.2744 18.2827C14.4227 18.3581 14.4203 18.5879 14.2888 18.6898C14.034 18.8871 13.7475 19.2206 13.6631 19.7428C13.6399 19.886 13.4855 19.9811 13.356 19.9157L7.1313 16.7736C7.06293 16.739 7.02076 16.6684 7.01124 16.5924C6.94067 16.029 6.40711 14.313 5.40573 13.7729Z" fill="url(#paint9_linear_2133_18434)" fill-opacity="0.12"/>
</g>
<path d="M8.60318 13.2792C8.6362 13.2956 8.66922 13.3121 8.71213 13.3252C9.13133 13.443 9.59243 13.1122 9.73974 12.5841C9.88705 12.0559 9.6715 11.5286 9.25231 11.4108C9.04436 11.3485 8.82344 11.3952 8.62584 11.5441C8.4348 11.6797 8.29343 11.8977 8.2181 12.1486C8.08718 12.6272 8.25314 13.1051 8.60318 13.2792Z" fill="white"/>
<path d="M7.67534 12.859C7.7078 12.6116 7.66107 12.3577 7.54519 12.16C7.4227 11.959 7.2476 11.8307 7.03971 11.8015C6.62066 11.7496 6.22235 12.1364 6.15751 12.6644C6.12506 12.9118 6.17178 13.1657 6.28766 13.3634C6.36713 13.5018 6.47291 13.6038 6.59179 13.6629C6.65123 13.6925 6.72384 13.7121 6.79314 13.7219C7.20558 13.7705 7.6039 13.3837 7.67534 12.859Z" fill="white"/>
<path d="M10.2512 14.0905C10.2809 14.1135 10.3139 14.13 10.3535 14.1497C10.697 14.3205 11.1849 14.1677 11.4809 13.7712C11.6421 13.563 11.724 13.3154 11.7169 13.0812C11.7131 12.8405 11.617 12.6361 11.4452 12.5013C11.0982 12.2381 10.5477 12.3844 10.2154 12.8206C9.88982 13.26 9.90423 13.8274 10.2512 14.0905Z" fill="white"/>
<path d="M12.4654 14.508C12.1679 14.2117 11.6205 14.269 11.2452 14.6426C10.87 15.0161 10.7985 15.5573 11.0994 15.8634C11.149 15.9128 11.2018 15.9555 11.2679 15.9884C11.3868 16.0475 11.532 16.0703 11.6903 16.0502C11.9178 16.0233 12.1386 15.9107 12.3262 15.7321C12.6949 15.3553 12.763 14.8042 12.4654 14.508Z" fill="white"/>
<path d="M10.0677 14.7738C9.75612 14.0916 9.00321 13.7172 8.26464 13.8771C7.3777 14.0703 6.28334 14.4487 5.94174 15.1356C5.11733 16.7933 9.64141 19.0432 10.4658 17.3855C10.814 16.7019 10.4488 15.5976 10.0677 14.7738Z" fill="white"/>
<path d="M12.4629 17.8536C12.4669 17.8536 12.4709 17.8536 12.4757 17.8528C12.5219 17.844 12.5506 17.7898 12.5394 17.7316C12.5283 17.6735 12.482 17.6328 12.4358 17.6416C12.4127 17.6456 12.3936 17.6607 12.3816 17.6846C12.3697 17.7069 12.3665 17.7348 12.3713 17.7627C12.3816 17.8153 12.4207 17.8536 12.4629 17.8536Z" fill="white"/>
<path d="M12.3529 17.8575C12.3442 17.832 12.3274 17.8097 12.3067 17.7961C12.2852 17.7826 12.2621 17.7786 12.2406 17.7858C12.1975 17.8009 12.1776 17.8575 12.1967 17.9117C12.2055 17.9372 12.2222 17.9595 12.243 17.973C12.2573 17.9826 12.2724 17.9874 12.2868 17.9874C12.294 17.9874 12.3019 17.9858 12.3091 17.9834C12.3513 17.9683 12.3713 17.9117 12.3529 17.8575Z" fill="white"/>
<path d="M12.6614 17.8528C12.6654 17.8536 12.6694 17.8536 12.6741 17.8536C12.7156 17.8536 12.7554 17.8153 12.765 17.7627C12.7706 17.7348 12.7666 17.7069 12.7546 17.6846C12.7427 17.6615 12.7235 17.6464 12.7004 17.6416C12.6542 17.6328 12.608 17.6735 12.5968 17.7316C12.5865 17.7898 12.6152 17.844 12.6614 17.8528Z" fill="white"/>
<path d="M12.8956 17.7866C12.8526 17.7723 12.8024 17.8042 12.784 17.8584C12.7657 17.9125 12.7848 17.9683 12.8287 17.9835C12.8358 17.9859 12.843 17.9875 12.851 17.9875C12.8653 17.9875 12.8805 17.9827 12.8948 17.9731C12.9155 17.9596 12.9315 17.938 12.941 17.9117C12.9585 17.8576 12.9386 17.801 12.8956 17.7866Z" fill="white"/>
<path d="M12.6764 17.9277C12.6134 17.8767 12.5226 17.8767 12.4588 17.9277C12.3823 17.989 12.2947 18.0783 12.2947 18.1612C12.2947 18.3612 12.8405 18.3612 12.8405 18.1612C12.8413 18.0783 12.7529 17.989 12.6764 17.9277Z" fill="white"/>
<path d="M12.5371 20.3585C12.5411 20.3585 12.5451 20.3585 12.5499 20.3577C12.5961 20.349 12.6248 20.2948 12.6136 20.2366C12.6025 20.1784 12.5563 20.1378 12.51 20.1465C12.4869 20.1505 12.4678 20.1657 12.4558 20.1896C12.4439 20.2119 12.4407 20.2398 12.4455 20.2677C12.4558 20.3203 12.4949 20.3585 12.5371 20.3585Z" fill="white"/>
<path d="M12.4269 20.3624C12.4181 20.3369 12.4014 20.3146 12.3807 20.3011C12.3592 20.2875 12.3361 20.2835 12.3145 20.2907C12.2715 20.3059 12.2516 20.3624 12.2707 20.4166C12.2795 20.4421 12.2962 20.4644 12.3169 20.478C12.3313 20.4875 12.3464 20.4923 12.3608 20.4923C12.3679 20.4923 12.3759 20.4907 12.3831 20.4883C12.4253 20.4732 12.4452 20.4166 12.4269 20.3624Z" fill="white"/>
<path d="M12.7354 20.3577C12.7393 20.3585 12.7433 20.3585 12.7481 20.3585C12.7896 20.3585 12.8294 20.3203 12.839 20.2677C12.8445 20.2398 12.8406 20.2119 12.8286 20.1896C12.8166 20.1665 12.7975 20.1513 12.7744 20.1465C12.7282 20.1378 12.682 20.1784 12.6708 20.2366C12.6605 20.2948 12.6891 20.349 12.7354 20.3577Z" fill="white"/>
<path d="M12.9696 20.2916C12.9265 20.2772 12.8763 20.3091 12.858 20.3633C12.8397 20.4175 12.8588 20.4733 12.9026 20.4884C12.9098 20.4908 12.917 20.4924 12.9249 20.4924C12.9393 20.4924 12.9544 20.4876 12.9688 20.4781C12.9895 20.4645 13.0054 20.443 13.015 20.4167C13.0325 20.3625 13.0126 20.3059 12.9696 20.2916Z" fill="white"/>
<path d="M12.7506 20.4326C12.6877 20.3816 12.5968 20.3816 12.5331 20.4326C12.4566 20.494 12.3689 20.5832 12.3689 20.6661C12.3689 20.8661 12.9148 20.8661 12.9148 20.6661C12.9156 20.5832 12.8271 20.494 12.7506 20.4326Z" fill="white"/>
<path d="M11.6045 18.8844C11.6083 18.8854 11.6122 18.8865 11.617 18.8869C11.6639 18.8904 11.7057 18.8455 11.71 18.7864C11.7142 18.7274 11.6801 18.6761 11.6332 18.6726C11.6098 18.6705 11.5874 18.6802 11.5697 18.7002C11.5524 18.7186 11.5421 18.7448 11.5395 18.7729C11.5359 18.8264 11.5637 18.8735 11.6045 18.8844Z" fill="white"/>
<path d="M11.4973 18.8597C11.4954 18.8328 11.4851 18.8069 11.4686 18.7885C11.4513 18.7698 11.43 18.76 11.4073 18.7614C11.3619 18.7649 11.328 18.8144 11.3324 18.8716C11.3343 18.8985 11.3447 18.9244 11.3612 18.9429C11.3726 18.9558 11.386 18.9644 11.3998 18.9681C11.4067 18.9699 11.4148 18.9705 11.4224 18.97C11.4671 18.9663 11.501 18.9168 11.4973 18.8597Z" fill="white"/>
<path d="M11.7965 18.935C11.8002 18.9368 11.804 18.9378 11.8086 18.939C11.8487 18.9498 11.8971 18.9231 11.9199 18.8748C11.9325 18.8493 11.9359 18.8213 11.9301 18.7967C11.9245 18.7713 11.91 18.7517 11.8889 18.7411C11.8465 18.7207 11.7914 18.748 11.7655 18.8013C11.7405 18.8548 11.7542 18.9145 11.7965 18.935Z" fill="white"/>
<path d="M12.0398 18.9318C12.002 18.9068 11.9452 18.9246 11.9135 18.9722C11.8818 19.0198 11.8858 19.0786 11.9242 19.1046C11.9305 19.1087 11.9371 19.1121 11.9448 19.1142C11.9586 19.1179 11.9745 19.1172 11.9908 19.1117C12.0143 19.1039 12.0353 19.0873 12.0513 19.0644C12.0823 19.0166 12.0777 18.9567 12.0398 18.9318Z" fill="white"/>
<path d="M11.7917 19.0113C11.7441 18.9457 11.6563 18.9222 11.5815 18.955C11.4918 18.9944 11.384 19.0579 11.3625 19.138C11.3108 19.3312 11.838 19.4725 11.8898 19.2793C11.912 19.1994 11.8497 19.0903 11.7917 19.0113Z" fill="white"/>
<g filter="url(#filter21_di_2133_18434)">
<path d="M14.0312 17.6051C14.0312 17.5616 14.0064 17.5219 13.9674 17.5029L13.4188 17.2361C13.3433 17.1994 13.2557 17.2543 13.2557 17.3383C13.2557 17.382 13.2806 17.4219 13.32 17.441L13.869 17.7069C13.9441 17.7433 14.0312 17.6886 14.0312 17.6051Z" fill="#2E2E2E"/>
</g>
</g>
<defs>
<filter id="filter0_f_2133_18434" x="2.85627" y="13.305" width="26.0245" height="13.2475" filterUnits="userSpaceOnUse" color-interpolation-filters="sRGB">
<feFlood flood-opacity="0" result="BackgroundImageFix"/>
<feBlend mode="normal" in="SourceGraphic" in2="BackgroundImageFix" result="shape"/>
<feGaussianBlur stdDeviation="0.386075" result="effect1_foregroundBlur_2133_18434"/>
</filter>
<filter id="filter1_i_2133_18434" x="14.0703" y="19.3615" width="2.75513" height="3.86227" filterUnits="userSpaceOnUse" color-interpolation-filters="sRGB">
<feFlood flood-opacity="0" result="BackgroundImageFix"/>
<feBlend mode="normal" in="SourceGraphic" in2="BackgroundImageFix" result="shape"/>
<feColorMatrix in="SourceAlpha" type="matrix" values="0 0 0 0 0 0 0 0 0 0 0 0 0 0 0 0 0 0 127 0" result="hardAlpha"/>
<feMorphology radius="0.0905896" operator="erode" in="SourceAlpha" result="effect1_innerShadow_2133_18434"/>
<feOffset/>
<feGaussianBlur stdDeviation="0.0452948"/>
<feComposite in2="hardAlpha" operator="arithmetic" k2="-1" k3="1"/>
<feColorMatrix type="matrix" values="0 0 0 0 0 0 0 0 0 0 0 0 0 0 0 0 0 0 0.25 0"/>
<feBlend mode="normal" in2="shape" result="effect1_innerShadow_2133_18434"/>
</filter>
<filter id="filter2_di_2133_18434" x="14.0329" y="19.6697" width="2.6147" height="3.40898" filterUnits="userSpaceOnUse" color-interpolation-filters="sRGB">
<feFlood flood-opacity="0" result="BackgroundImageFix"/>
<feColorMatrix in="SourceAlpha" type="matrix" values="0 0 0 0 0 0 0 0 0 0 0 0 0 0 0 0 0 0 127 0" result="hardAlpha"/>
<feOffset dy="0.0362358"/>
<feGaussianBlur stdDeviation="0.0271769"/>
<feColorMatrix type="matrix" values="0 0 0 0 1 0 0 0 0 1 0 0 0 0 1 0 0 0 0.41 0"/>
<feBlend mode="normal" in2="BackgroundImageFix" result="effect1_dropShadow_2133_18434"/>
<feBlend mode="normal" in="SourceGraphic" in2="effect1_dropShadow_2133_18434" result="shape"/>
<feColorMatrix in="SourceAlpha" type="matrix" values="0 0 0 0 0 0 0 0 0 0 0 0 0 0 0 0 0 0 127 0" result="hardAlpha"/>
<feOffset dx="-0.271769" dy="0.181179"/>
<feGaussianBlur stdDeviation="0.135884"/>
<feComposite in2="hardAlpha" operator="arithmetic" k2="-1" k3="1"/>
<feColorMatrix type="matrix" values="0 0 0 0 0 0 0 0 0 0 0 0 0 0 0 0 0 0 0.25 0"/>
<feBlend mode="normal" in2="shape" result="effect2_innerShadow_2133_18434"/>
</filter>
<filter id="filter3_i_2133_18434" x="14.2332" y="19.3835" width="2.45923" height="3.81796" filterUnits="userSpaceOnUse" color-interpolation-filters="sRGB">
<feFlood flood-opacity="0" result="BackgroundImageFix"/>
<feBlend mode="normal" in="SourceGraphic" in2="BackgroundImageFix" result="shape"/>
<feColorMatrix in="SourceAlpha" type="matrix" values="0 0 0 0 0 0 0 0 0 0 0 0 0 0 0 0 0 0 127 0" result="hardAlpha"/>
<feMorphology radius="0.120712" operator="erode" in="SourceAlpha" result="effect1_innerShadow_2133_18434"/>
<feOffset/>
<feGaussianBlur stdDeviation="0.0603558"/>
<feComposite in2="hardAlpha" operator="arithmetic" k2="-1" k3="1"/>
<feColorMatrix type="matrix" values="0 0 0 0 0 0 0 0 0 0 0 0 0 0 0 0 0 0 0.25 0"/>
<feBlend mode="normal" in2="shape" result="effect1_innerShadow_2133_18434"/>
</filter>
<filter id="filter4_di_2133_18434" x="14.3971" y="19.8678" width="2.0264" height="2.86327" filterUnits="userSpaceOnUse" color-interpolation-filters="sRGB">
<feFlood flood-opacity="0" result="BackgroundImageFix"/>
<feColorMatrix in="SourceAlpha" type="matrix" values="0 0 0 0 0 0 0 0 0 0 0 0 0 0 0 0 0 0 127 0" result="hardAlpha"/>
<feOffset dy="0.0411677"/>
<feGaussianBlur stdDeviation="0.0257298"/>
<feColorMatrix type="matrix" values="0 0 0 0 1 0 0 0 0 1 0 0 0 0 1 0 0 0 0.59 0"/>
<feBlend mode="normal" in2="BackgroundImageFix" result="effect1_dropShadow_2133_18434"/>
<feBlend mode="normal" in="SourceGraphic" in2="effect1_dropShadow_2133_18434" result="shape"/>
<feColorMatrix in="SourceAlpha" type="matrix" values="0 0 0 0 0 0 0 0 0 0 0 0 0 0 0 0 0 0 127 0" result="hardAlpha"/>
<feOffset dx="-0.154379" dy="0.102919"/>
<feGaussianBlur stdDeviation="0.0771894"/>
<feComposite in2="hardAlpha" operator="arithmetic" k2="-1" k3="1"/>
<feColorMatrix type="matrix" values="0 0 0 0 0 0 0 0 0 0 0 0 0 0 0 0 0 0 0.25 0"/>
<feBlend mode="normal" in2="shape" result="effect2_innerShadow_2133_18434"/>
</filter>
<filter id="filter5_i_2133_18434" x="4.64795" y="15.2355" width="2.06396" height="2.8934" filterUnits="userSpaceOnUse" color-interpolation-filters="sRGB">
<feFlood flood-opacity="0" result="BackgroundImageFix"/>
<feBlend mode="normal" in="SourceGraphic" in2="BackgroundImageFix" result="shape"/>
<feColorMatrix in="SourceAlpha" type="matrix" values="0 0 0 0 0 0 0 0 0 0 0 0 0 0 0 0 0 0 127 0" result="hardAlpha"/>
<feMorphology radius="0.0905896" operator="erode" in="SourceAlpha" result="effect1_innerShadow_2133_18434"/>
<feOffset/>
<feGaussianBlur stdDeviation="0.0452948"/>
<feComposite in2="hardAlpha" operator="arithmetic" k2="-1" k3="1"/>
<feColorMatrix type="matrix" values="0 0 0 0 0 0 0 0 0 0 0 0 0 0 0 0 0 0 0.25 0"/>
<feBlend mode="normal" in2="shape" result="effect1_innerShadow_2133_18434"/>
</filter>
<filter id="filter6_di_2133_18434" x="4.55074" y="15.4619" width="2.04072" height="2.60378" filterUnits="userSpaceOnUse" color-interpolation-filters="sRGB">
<feFlood flood-opacity="0" result="BackgroundImageFix"/>
<feColorMatrix in="SourceAlpha" type="matrix" values="0 0 0 0 0 0 0 0 0 0 0 0 0 0 0 0 0 0 127 0" result="hardAlpha"/>
<feOffset dy="0.0362358"/>
<feGaussianBlur stdDeviation="0.0271769"/>
<feColorMatrix type="matrix" values="0 0 0 0 1 0 0 0 0 1 0 0 0 0 1 0 0 0 0.41 0"/>
<feBlend mode="normal" in2="BackgroundImageFix" result="effect1_dropShadow_2133_18434"/>
<feBlend mode="normal" in="SourceGraphic" in2="effect1_dropShadow_2133_18434" result="shape"/>
<feColorMatrix in="SourceAlpha" type="matrix" values="0 0 0 0 0 0 0 0 0 0 0 0 0 0 0 0 0 0 127 0" result="hardAlpha"/>
<feOffset dx="-0.271769" dy="0.181179"/>
<feGaussianBlur stdDeviation="0.135884"/>
<feComposite in2="hardAlpha" operator="arithmetic" k2="-1" k3="1"/>
<feColorMatrix type="matrix" values="0 0 0 0 0 0 0 0 0 0 0 0 0 0 0 0 0 0 0.25 0"/>
<feBlend mode="normal" in2="shape" result="effect2_innerShadow_2133_18434"/>
</filter>
<filter id="filter7_i_2133_18434" x="4.72534" y="15.2936" width="1.77759" height="2.90079" filterUnits="userSpaceOnUse" color-interpolation-filters="sRGB">
<feFlood flood-opacity="0" result="BackgroundImageFix"/>
<feBlend mode="normal" in="SourceGraphic" in2="BackgroundImageFix" result="shape"/>
<feColorMatrix in="SourceAlpha" type="matrix" values="0 0 0 0 0 0 0 0 0 0 0 0 0 0 0 0 0 0 127 0" result="hardAlpha"/>
<feMorphology radius="0.120712" operator="erode" in="SourceAlpha" result="effect1_innerShadow_2133_18434"/>
<feOffset/>
<feGaussianBlur stdDeviation="0.0603558"/>
<feComposite in2="hardAlpha" operator="arithmetic" k2="-1" k3="1"/>
<feColorMatrix type="matrix" values="0 0 0 0 0 0 0 0 0 0 0 0 0 0 0 0 0 0 0.25 0"/>
<feBlend mode="normal" in2="shape" result="effect1_innerShadow_2133_18434"/>
</filter>
<filter id="filter8_di_2133_18434" x="4.80241" y="15.6598" width="1.52005" height="2.21813" filterUnits="userSpaceOnUse" color-interpolation-filters="sRGB">
<feFlood flood-opacity="0" result="BackgroundImageFix"/>
<feColorMatrix in="SourceAlpha" type="matrix" values="0 0 0 0 0 0 0 0 0 0 0 0 0 0 0 0 0 0 127 0" result="hardAlpha"/>
<feOffset dy="0.0411677"/>
<feGaussianBlur stdDeviation="0.0257298"/>
<feColorMatrix type="matrix" values="0 0 0 0 1 0 0 0 0 1 0 0 0 0 1 0 0 0 0.59 0"/>
<feBlend mode="normal" in2="BackgroundImageFix" result="effect1_dropShadow_2133_18434"/>
<feBlend mode="normal" in="SourceGraphic" in2="effect1_dropShadow_2133_18434" result="shape"/>
<feColorMatrix in="SourceAlpha" type="matrix" values="0 0 0 0 0 0 0 0 0 0 0 0 0 0 0 0 0 0 127 0" result="hardAlpha"/>
<feOffset dx="-0.154379" dy="0.102919"/>
<feGaussianBlur stdDeviation="0.0771894"/>
<feComposite in2="hardAlpha" operator="arithmetic" k2="-1" k3="1"/>
<feColorMatrix type="matrix" values="0 0 0 0 0 0 0 0 0 0 0 0 0 0 0 0 0 0 0.25 0"/>
<feBlend mode="normal" in2="shape" result="effect2_innerShadow_2133_18434"/>
</filter>
<filter id="filter9_ii_2133_18434" x="3.9292" y="6.86713" width="25.0722" height="17.5811" filterUnits="userSpaceOnUse" color-interpolation-filters="sRGB">
<feFlood flood-opacity="0" result="BackgroundImageFix"/>
<feBlend mode="normal" in="SourceGraphic" in2="BackgroundImageFix" result="shape"/>
<feColorMatrix in="SourceAlpha" type="matrix" values="0 0 0 0 0 0 0 0 0 0 0 0 0 0 0 0 0 0 127 0" result="hardAlpha"/>
<feOffset dx="0.724269" dy="-0.965693"/>
<feGaussianBlur stdDeviation="2.89708"/>
<feComposite in2="hardAlpha" operator="arithmetic" k2="-1" k3="1"/>
<feColorMatrix type="matrix" values="0 0 0 0 0 0 0 0 0 0 0 0 0 0 0 0 0 0 0.07 0"/>
<feBlend mode="normal" in2="shape" result="effect1_innerShadow_2133_18434"/>
<feColorMatrix in="SourceAlpha" type="matrix" values="0 0 0 0 0 0 0 0 0 0 0 0 0 0 0 0 0 0 127 0" result="hardAlpha"/>
<feOffset dy="-0.120712"/>
<feGaussianBlur stdDeviation="0.241423"/>
<feComposite in2="hardAlpha" operator="arithmetic" k2="-1" k3="1"/>
<feColorMatrix type="matrix" values="0 0 0 0 0 0 0 0 0 0 0 0 0 0 0 0 0 0 0.09 0"/>
<feBlend mode="normal" in2="effect1_innerShadow_2133_18434" result="effect2_innerShadow_2133_18434"/>
</filter>
<filter id="filter10_ddii_2133_18434" x="20.2662" y="16.9389" width="8.07899" height="5.78954" filterUnits="userSpaceOnUse" color-interpolation-filters="sRGB">
<feFlood flood-opacity="0" result="BackgroundImageFix"/>
<feColorMatrix in="SourceAlpha" type="matrix" values="0 0 0 0 0 0 0 0 0 0 0 0 0 0 0 0 0 0 127 0" result="hardAlpha"/>
<feOffset dy="0.082721"/>
<feGaussianBlur stdDeviation="0.0551473"/>
<feColorMatrix type="matrix" values="0 0 0 0 0 0 0 0 0 0 0 0 0 0 0 0 0 0 0.57 0"/>
<feBlend mode="normal" in2="BackgroundImageFix" result="effect1_dropShadow_2133_18434"/>
<feColorMatrix in="SourceAlpha" type="matrix" values="0 0 0 0 0 0 0 0 0 0 0 0 0 0 0 0 0 0 127 0" result="hardAlpha"/>
<feOffset dy="-0.0551473"/>
<feGaussianBlur stdDeviation="0.0551473"/>
<feColorMatrix type="matrix" values="0 0 0 0 0 0 0 0 0 0 0 0 0 0 0 0 0 0 1 0"/>
<feBlend mode="normal" in2="effect1_dropShadow_2133_18434" result="effect2_dropShadow_2133_18434"/>
<feBlend mode="normal" in="SourceGraphic" in2="effect2_dropShadow_2133_18434" result="shape"/>
<feColorMatrix in="SourceAlpha" type="matrix" values="0 0 0 0 0 0 0 0 0 0 0 0 0 0 0 0 0 0 127 0" result="hardAlpha"/>
<feOffset dy="0.76027"/>
<feGaussianBlur stdDeviation="0.774798"/>
<feComposite in2="hardAlpha" operator="arithmetic" k2="-1" k3="1"/>
<feColorMatrix type="matrix" values="0 0 0 0 0 0 0 0 0 0 0 0 0 0 0 0 0 0 1 0"/>
<feBlend mode="normal" in2="shape" result="effect3_innerShadow_2133_18434"/>
<feColorMatrix in="SourceAlpha" type="matrix" values="0 0 0 0 0 0 0 0 0 0 0 0 0 0 0 0 0 0 127 0" result="hardAlpha"/>
<feOffset dy="-0.0828472"/>
<feGaussianBlur stdDeviation="0.0828472"/>
<feComposite in2="hardAlpha" operator="arithmetic" k2="-1" k3="1"/>
<feColorMatrix type="matrix" values="0 0 0 0 0 0 0 0 0 0 0 0 0 0 0 0 0 0 1 0"/>
<feBlend mode="normal" in2="effect3_innerShadow_2133_18434" result="effect4_innerShadow_2133_18434"/>
</filter>
<filter id="filter11_d_2133_18434" x="27.2961" y="17.3731" width="0.939575" height="1.15045" filterUnits="userSpaceOnUse" color-interpolation-filters="sRGB">
<feFlood flood-opacity="0" result="BackgroundImageFix"/>
<feColorMatrix in="SourceAlpha" type="matrix" values="0 0 0 0 0 0 0 0 0 0 0 0 0 0 0 0 0 0 127 0" result="hardAlpha"/>
<feOffset dx="0.0879027" dy="0.109192"/>
<feGaussianBlur stdDeviation="0.0545959"/>
<feColorMatrix type="matrix" values="0 0 0 0 1 0 0 0 0 1 0 0 0 0 1 0 0 0 0.24 0"/>
<feBlend mode="normal" in2="BackgroundImageFix" result="effect1_dropShadow_2133_18434"/>
<feBlend mode="normal" in="SourceGraphic" in2="effect1_dropShadow_2133_18434" result="shape"/>
</filter>
<filter id="filter12_d_2133_18434" x="20.7875" y="20.2072" width="2.58752" height="1.09454" filterUnits="userSpaceOnUse" color-interpolation-filters="sRGB">
<feFlood flood-opacity="0" result="BackgroundImageFix"/>
<feColorMatrix in="SourceAlpha" type="matrix" values="0 0 0 0 0 0 0 0 0 0 0 0 0 0 0 0 0 0 127 0" result="hardAlpha"/>
<feOffset dx="0.0879027" dy="0.109192"/>
<feGaussianBlur stdDeviation="0.0545959"/>
<feColorMatrix type="matrix" values="0 0 0 0 1 0 0 0 0 1 0 0 0 0 1 0 0 0 0.24 0"/>
<feBlend mode="normal" in2="BackgroundImageFix" result="effect1_dropShadow_2133_18434"/>
<feBlend mode="normal" in="SourceGraphic" in2="effect1_dropShadow_2133_18434" result="shape"/>
</filter>
<filter id="filter13_ddii_2133_18434" x="20.2662" y="16.9389" width="8.07899" height="5.78954" filterUnits="userSpaceOnUse" color-interpolation-filters="sRGB">
<feFlood flood-opacity="0" result="BackgroundImageFix"/>
<feColorMatrix in="SourceAlpha" type="matrix" values="0 0 0 0 0 0 0 0 0 0 0 0 0 0 0 0 0 0 127 0" result="hardAlpha"/>
<feOffset dy="0.082721"/>
<feGaussianBlur stdDeviation="0.0551473"/>
<feColorMatrix type="matrix" values="0 0 0 0 0 0 0 0 0 0 0 0 0 0 0 0 0 0 0.57 0"/>
<feBlend mode="normal" in2="BackgroundImageFix" result="effect1_dropShadow_2133_18434"/>
<feColorMatrix in="SourceAlpha" type="matrix" values="0 0 0 0 0 0 0 0 0 0 0 0 0 0 0 0 0 0 127 0" result="hardAlpha"/>
<feOffset dy="-0.0551473"/>
<feGaussianBlur stdDeviation="0.0551473"/>
<feColorMatrix type="matrix" values="0 0 0 0 0 0 0 0 0 0 0 0 0 0 0 0 0 0 1 0"/>
<feBlend mode="normal" in2="effect1_dropShadow_2133_18434" result="effect2_dropShadow_2133_18434"/>
<feBlend mode="normal" in="SourceGraphic" in2="effect2_dropShadow_2133_18434" result="shape"/>
<feColorMatrix in="SourceAlpha" type="matrix" values="0 0 0 0 0 0 0 0 0 0 0 0 0 0 0 0 0 0 127 0" result="hardAlpha"/>
<feOffset dy="0.76027"/>
<feGaussianBlur stdDeviation="0.774798"/>
<feComposite in2="hardAlpha" operator="arithmetic" k2="-1" k3="1"/>
<feColorMatrix type="matrix" values="0 0 0 0 0 0 0 0 0 0 0 0 0 0 0 0 0 0 1 0"/>
<feBlend mode="normal" in2="shape" result="effect3_innerShadow_2133_18434"/>
<feColorMatrix in="SourceAlpha" type="matrix" values="0 0 0 0 0 0 0 0 0 0 0 0 0 0 0 0 0 0 127 0" result="hardAlpha"/>
<feOffset dy="-0.0828472"/>
<feGaussianBlur stdDeviation="0.0828472"/>
<feComposite in2="hardAlpha" operator="arithmetic" k2="-1" k3="1"/>
<feColorMatrix type="matrix" values="0 0 0 0 0 0 0 0 0 0 0 0 0 0 0 0 0 0 1 0"/>
<feBlend mode="normal" in2="effect3_innerShadow_2133_18434" result="effect4_innerShadow_2133_18434"/>
</filter>
<filter id="filter14_ddii_2133_18434" x="20.2662" y="16.9389" width="8.07874" height="5.78954" filterUnits="userSpaceOnUse" color-interpolation-filters="sRGB">
<feFlood flood-opacity="0" result="BackgroundImageFix"/>
<feColorMatrix in="SourceAlpha" type="matrix" values="0 0 0 0 0 0 0 0 0 0 0 0 0 0 0 0 0 0 127 0" result="hardAlpha"/>
<feOffset dy="0.082721"/>
<feGaussianBlur stdDeviation="0.0551473"/>
<feColorMatrix type="matrix" values="0 0 0 0 0 0 0 0 0 0 0 0 0 0 0 0 0 0 0.57 0"/>
<feBlend mode="normal" in2="BackgroundImageFix" result="effect1_dropShadow_2133_18434"/>
<feColorMatrix in="SourceAlpha" type="matrix" values="0 0 0 0 0 0 0 0 0 0 0 0 0 0 0 0 0 0 127 0" result="hardAlpha"/>
<feOffset dy="-0.0551473"/>
<feGaussianBlur stdDeviation="0.0551473"/>
<feColorMatrix type="matrix" values="0 0 0 0 0.670588 0 0 0 0 0.717647 0 0 0 0 0.760784 0 0 0 1 0"/>
<feBlend mode="normal" in2="effect1_dropShadow_2133_18434" result="effect2_dropShadow_2133_18434"/>
<feBlend mode="normal" in="SourceGraphic" in2="effect2_dropShadow_2133_18434" result="shape"/>
<feColorMatrix in="SourceAlpha" type="matrix" values="0 0 0 0 0 0 0 0 0 0 0 0 0 0 0 0 0 0 127 0" result="hardAlpha"/>
<feOffset dy="0.76027"/>
<feGaussianBlur stdDeviation="0.774798"/>
<feComposite in2="hardAlpha" operator="arithmetic" k2="-1" k3="1"/>
<feColorMatrix type="matrix" values="0 0 0 0 0.768627 0 0 0 0 0.768627 0 0 0 0 0.768627 0 0 0 1 0"/>
<feBlend mode="normal" in2="shape" result="effect3_innerShadow_2133_18434"/>
<feColorMatrix in="SourceAlpha" type="matrix" values="0 0 0 0 0 0 0 0 0 0 0 0 0 0 0 0 0 0 127 0" result="hardAlpha"/>
<feOffset dy="-0.0828472"/>
<feGaussianBlur stdDeviation="0.0828472"/>
<feComposite in2="hardAlpha" operator="arithmetic" k2="-1" k3="1"/>
<feColorMatrix type="matrix" values="0 0 0 0 0.670588 0 0 0 0 0.717647 0 0 0 0 0.760784 0 0 0 1 0"/>
<feBlend mode="normal" in2="effect3_innerShadow_2133_18434" result="effect4_innerShadow_2133_18434"/>
</filter>
<filter id="filter15_d_2133_18434" x="27.2963" y="17.3731" width="0.939575" height="1.15045" filterUnits="userSpaceOnUse" color-interpolation-filters="sRGB">
<feFlood flood-opacity="0" result="BackgroundImageFix"/>
<feColorMatrix in="SourceAlpha" type="matrix" values="0 0 0 0 0 0 0 0 0 0 0 0 0 0 0 0 0 0 127 0" result="hardAlpha"/>
<feOffset dx="0.0879027" dy="0.109192"/>
<feGaussianBlur stdDeviation="0.0545959"/>
<feColorMatrix type="matrix" values="0 0 0 0 1 0 0 0 0 1 0 0 0 0 1 0 0 0 0.24 0"/>
<feBlend mode="normal" in2="BackgroundImageFix" result="effect1_dropShadow_2133_18434"/>
<feBlend mode="normal" in="SourceGraphic" in2="effect1_dropShadow_2133_18434" result="shape"/>
</filter>
<filter id="filter16_d_2133_18434" x="20.7875" y="20.2072" width="2.58752" height="1.09454" filterUnits="userSpaceOnUse" color-interpolation-filters="sRGB">
<feFlood flood-opacity="0" result="BackgroundImageFix"/>
<feColorMatrix in="SourceAlpha" type="matrix" values="0 0 0 0 0 0 0 0 0 0 0 0 0 0 0 0 0 0 127 0" result="hardAlpha"/>
<feOffset dx="0.0879027" dy="0.109192"/>
<feGaussianBlur stdDeviation="0.0545959"/>
<feColorMatrix type="matrix" values="0 0 0 0 1 0 0 0 0 1 0 0 0 0 1 0 0 0 0.24 0"/>
<feBlend mode="normal" in2="BackgroundImageFix" result="effect1_dropShadow_2133_18434"/>
<feBlend mode="normal" in="SourceGraphic" in2="effect1_dropShadow_2133_18434" result="shape"/>
</filter>
<filter id="filter17_ddi_2133_18434" x="15.7777" y="11.4939" width="9.02764" height="6.50476" filterUnits="userSpaceOnUse" color-interpolation-filters="sRGB">
<feFlood flood-opacity="0" result="BackgroundImageFix"/>
<feColorMatrix in="SourceAlpha" type="matrix" values="0 0 0 0 0 0 0 0 0 0 0 0 0 0 0 0 0 0 127 0" result="hardAlpha"/>
<feOffset dx="-0.135191" dy="0.0675955"/>
<feGaussianBlur stdDeviation="0.0675955"/>
<feColorMatrix type="matrix" values="0 0 0 0 1 0 0 0 0 1 0 0 0 0 1 0 0 0 0.28 0"/>
<feBlend mode="normal" in2="BackgroundImageFix" result="effect1_dropShadow_2133_18434"/>
<feColorMatrix in="SourceAlpha" type="matrix" values="0 0 0 0 0 0 0 0 0 0 0 0 0 0 0 0 0 0 127 0" result="hardAlpha"/>
<feOffset dy="-0.0675955"/>
<feGaussianBlur stdDeviation="0.0675955"/>
<feColorMatrix type="matrix" values="0 0 0 0 1 0 0 0 0 1 0 0 0 0 1 0 0 0 0.56 0"/>
<feBlend mode="normal" in2="effect1_dropShadow_2133_18434" result="effect2_dropShadow_2133_18434"/>
<feBlend mode="normal" in="SourceGraphic" in2="effect2_dropShadow_2133_18434" result="shape"/>
<feColorMatrix in="SourceAlpha" type="matrix" values="0 0 0 0 0 0 0 0 0 0 0 0 0 0 0 0 0 0 127 0" result="hardAlpha"/>
<feOffset dx="-0.0675955" dy="0.202787"/>
<feGaussianBlur stdDeviation="0.101393"/>
<feComposite in2="hardAlpha" operator="arithmetic" k2="-1" k3="1"/>
<feColorMatrix type="matrix" values="0 0 0 0 0 0 0 0 0 0 0 0 0 0 0 0 0 0 0.75 0"/>
<feBlend mode="normal" in2="shape" result="effect3_innerShadow_2133_18434"/>
</filter>
<filter id="filter18_f_2133_18434" x="15.2533" y="15.8154" width="10.9528" height="6.2668" filterUnits="userSpaceOnUse" color-interpolation-filters="sRGB">
<feFlood flood-opacity="0" result="BackgroundImageFix"/>
<feBlend mode="normal" in="SourceGraphic" in2="BackgroundImageFix" result="shape"/>
<feGaussianBlur stdDeviation="0.946338" result="effect1_foregroundBlur_2133_18434"/>
</filter>
<filter id="filter19_di_2133_18434" x="4.256" y="9.68558" width="1.9085" height="2.34395" filterUnits="userSpaceOnUse" color-interpolation-filters="sRGB">
<feFlood flood-opacity="0" result="BackgroundImageFix"/>
<feColorMatrix in="SourceAlpha" type="matrix" values="0 0 0 0 0 0 0 0 0 0 0 0 0 0 0 0 0 0 127 0" result="hardAlpha"/>
<feOffset dy="0.0880777"/>
<feGaussianBlur stdDeviation="0.0440388"/>
<feColorMatrix type="matrix" values="0 0 0 0 0.925374 0 0 0 0 0.925374 0 0 0 0 0.925374 0 0 0 0.37 0"/>
<feBlend mode="normal" in2="BackgroundImageFix" result="effect1_dropShadow_2133_18434"/>
<feBlend mode="normal" in="SourceGraphic" in2="effect1_dropShadow_2133_18434" result="shape"/>
<feColorMatrix in="SourceAlpha" type="matrix" values="0 0 0 0 0 0 0 0 0 0 0 0 0 0 0 0 0 0 127 0" result="hardAlpha"/>
<feOffset dx="-0.340683" dy="0.425854"/>
<feGaussianBlur stdDeviation="0.170342"/>
<feComposite in2="hardAlpha" operator="arithmetic" k2="-1" k3="1"/>
<feColorMatrix type="matrix" values="0 0 0 0 0 0 0 0 0 0 0 0 0 0 0 0 0 0 0.8 0"/>
<feBlend mode="normal" in2="shape" result="effect2_innerShadow_2133_18434"/>
</filter>
<filter id="filter20_f_2133_18434" x="5.04827" y="13.4476" width="9.63026" height="6.7812" filterUnits="userSpaceOnUse" color-interpolation-filters="sRGB">
<feFlood flood-opacity="0" result="BackgroundImageFix"/>
<feBlend mode="normal" in="SourceGraphic" in2="BackgroundImageFix" result="shape"/>
<feGaussianBlur stdDeviation="0.146029" result="effect1_foregroundBlur_2133_18434"/>
</filter>
<filter id="filter21_di_2133_18434" x="13.2068" y="17.1269" width="0.873186" height="0.835324" filterUnits="userSpaceOnUse" color-interpolation-filters="sRGB">
<feFlood flood-opacity="0" result="BackgroundImageFix"/>
<feColorMatrix in="SourceAlpha" type="matrix" values="0 0 0 0 0 0 0 0 0 0 0 0 0 0 0 0 0 0 127 0" result="hardAlpha"/>
<feOffset dy="-0.0487754"/>
<feGaussianBlur stdDeviation="0.0243877"/>
<feColorMatrix type="matrix" values="0 0 0 0 0.78755 0 0 0 0 0.78755 0 0 0 0 0.78755 0 0 0 0.19 0"/>
<feBlend mode="normal" in2="BackgroundImageFix" result="effect1_dropShadow_2133_18434"/>
<feBlend mode="normal" in="SourceGraphic" in2="effect1_dropShadow_2133_18434" result="shape"/>
<feColorMatrix in="SourceAlpha" type="matrix" values="0 0 0 0 0 0 0 0 0 0 0 0 0 0 0 0 0 0 127 0" result="hardAlpha"/>
<feOffset dy="0.243877"/>
<feGaussianBlur stdDeviation="0.121939"/>
<feComposite in2="hardAlpha" operator="arithmetic" k2="-1" k3="1"/>
<feColorMatrix type="matrix" values="0 0 0 0 0 0 0 0 0 0 0 0 0 0 0 0 0 0 0.74 0"/>
<feBlend mode="normal" in2="shape" result="effect2_innerShadow_2133_18434"/>
</filter>
<linearGradient id="paint0_linear_2133_18434" x1="2.83763" y1="3.11716" x2="2.9789" y2="1.01572" gradientUnits="userSpaceOnUse">
<stop stop-color="#3F3F3F"/>
<stop offset="1" stop-color="#5C5C5C"/>
</linearGradient>
<linearGradient id="paint1_linear_2133_18434" x1="2.65963" y1="3.00592" x2="2.79975" y2="0.980004" gradientUnits="userSpaceOnUse">
<stop stop-color="#AAAAAA"/>
<stop offset="1" stop-color="#C2C2C2"/>
</linearGradient>
<linearGradient id="paint2_linear_2133_18434" x1="2.12578" y1="2.33519" x2="2.23161" y2="0.760915" gradientUnits="userSpaceOnUse">
<stop stop-color="#3F3F3F"/>
<stop offset="1" stop-color="#5C5C5C"/>
</linearGradient>
<linearGradient id="paint3_linear_2133_18434" x1="1.99243" y1="2.25185" x2="2.0974" y2="0.734159" gradientUnits="userSpaceOnUse">
<stop stop-color="#AAAAAA"/>
<stop offset="1" stop-color="#C2C2C2"/>
</linearGradient>
<linearGradient id="paint4_linear_2133_18434" x1="13.0943" y1="19.953" x2="18.9159" y2="8.20125" gradientUnits="userSpaceOnUse">
<stop stop-color="#0D3244"/>
<stop offset="1" stop-color="#183E91"/>
</linearGradient>
<linearGradient id="paint5_linear_2133_18434" x1="13.8425" y1="22.645" x2="4.85389" y2="7.52846" gradientUnits="userSpaceOnUse">
<stop stop-color="#1B1B1B"/>
<stop offset="1" stop-color="#1B1B1B"/>
</linearGradient>
<linearGradient id="paint6_linear_2133_18434" x1="23.6631" y1="10.0969" x2="17.7146" y2="15.1086" gradientUnits="userSpaceOnUse">
<stop stop-color="#E8EAE9"/>
<stop offset="0.498386" stop-color="#707072"/>
<stop offset="1" stop-color="#2F3032"/>
</linearGradient>
<linearGradient id="paint7_linear_2133_18434" x1="20.5458" y1="20.4013" x2="21.0548" y2="18.7495" gradientUnits="userSpaceOnUse">
<stop stop-color="#ECEAEA"/>
<stop offset="1" stop-color="white" stop-opacity="0"/>
</linearGradient>
<linearGradient id="paint8_linear_2133_18434" x1="6.06943" y1="14.5367" x2="3.79296" y2="12.8147" gradientUnits="userSpaceOnUse">
<stop stop-color="#E8EAE9"/>
<stop offset="0.498386" stop-color="#707072"/>
<stop offset="1" stop-color="#2F3032"/>
</linearGradient>
<linearGradient id="paint9_linear_2133_18434" x1="8.66874" y1="19.354" x2="10.4419" y2="15.8814" gradientUnits="userSpaceOnUse">
<stop stop-color="#040404"/>
<stop offset="1" stop-color="#3C3C3C" stop-opacity="0"/>
</linearGradient>
</defs>
</svg>
