<svg xmlns="http://www.w3.org/2000/svg" width="33" height="32" viewBox="0 0 33 32" fill="none">
    <g clip-path="url(#clip0_2093_12634)">
        <path d="M25.6531 10.5361C23.8846 10.5361 22.1885 11.2387 20.9379 12.4892C19.6874 13.7398 18.9849 15.4358 18.9849 17.2044C18.9849 21.5573 23.8696 26.9973 25.6578 26.9973C27.446 26.9973 32.326 21.5573 32.326 17.2044C32.3267 16.3281 32.1544 15.4603 31.8193 14.6507C31.4841 13.8411 30.9925 13.1056 30.3727 12.4862C29.7529 11.8668 29.0169 11.3757 28.2071 11.0411C27.3972 10.7065 26.5294 10.5349 25.6531 10.5361ZM25.6531 20.3103C25.0237 20.3112 24.4082 20.1254 23.8844 19.7764C23.3607 19.4274 22.9522 18.9309 22.7107 18.3497C22.4692 17.7685 22.4056 17.1288 22.5278 16.5114C22.65 15.894 22.9526 15.3267 23.3973 14.8813C23.842 14.436 24.4088 14.1325 25.026 14.0094C25.6433 13.8863 26.2831 13.949 26.8647 14.1896C27.4462 14.4302 27.9434 14.838 28.2931 15.3612C28.6429 15.8845 28.8296 16.4997 28.8296 17.1291C28.8296 17.972 28.4951 18.7804 27.8995 19.3769C27.3039 19.9733 26.496 20.309 25.6531 20.3103Z" fill="#344054"/>
        <path d="M24.9987 31.1525H24.8951C11.7657 29.4678 11.3845 29.3501 8.89513 28.7996C6.21278 28.1925 4.13748 27.5054 2.77748 26.6537C1.04101 25.5619 0.481012 24.3619 0.481012 23.1854C0.478662 22.8152 0.552192 22.4484 0.697067 22.1076C0.841942 21.7669 1.05509 21.4595 1.32336 21.2043C1.90676 20.6779 2.5924 20.2774 3.33748 20.0278C4.85278 19.4443 7.51631 19.0584 9.24807 18.7666C12.2081 18.2725 16.0245 17.7643 16.0245 15.9431C16.0245 15.5054 15.5022 14.856 14.6128 14.4937C13.3103 14.0781 11.9777 13.7635 10.6269 13.5525C10.5907 13.5472 10.556 13.5349 10.5246 13.5162C10.4932 13.4976 10.4658 13.4729 10.4439 13.4436C10.4221 13.4143 10.4062 13.381 10.3972 13.3456C10.3883 13.3102 10.3863 13.2734 10.3916 13.2372C10.3969 13.2011 10.4092 13.1663 10.4279 13.1349C10.4466 13.1035 10.4712 13.0761 10.5005 13.0543C10.5298 13.0324 10.5631 13.0165 10.5985 13.0076C10.6339 12.9986 10.6707 12.9967 10.7069 13.0019C12.4763 13.1666 16.9845 13.8113 16.9845 15.9901C16.999 16.2926 16.9427 16.5943 16.8201 16.8712C16.6976 17.1481 16.5122 17.3927 16.2787 17.5854C15.7387 18.0439 15.1133 18.3909 14.4387 18.6066C12.8087 19.1483 11.1351 19.5482 9.43631 19.8019C7.71147 20.0584 6.01351 20.4711 4.36336 21.0349C2.48101 21.7454 2.35395 22.5643 2.35395 23.1196C2.35395 23.849 2.85278 24.6301 4.07631 25.3125C5.29983 25.9949 6.76807 26.4184 9.33748 26.9784C12.0057 27.5572 15.5351 27.8913 25.1022 28.7713C25.418 28.7851 25.7153 28.9237 25.9289 29.1566C26.1425 29.3896 26.2547 29.6979 26.241 30.0137C26.2273 30.3294 26.0887 30.6268 25.8557 30.8404C25.6227 31.054 25.3144 31.1662 24.9987 31.1525Z" fill="#344054"/>
        <path d="M14.1282 7.57194L12.8341 4.78606C12.6929 4.55547 12.5753 4.26371 11.3753 4.05665C11.3188 4.05665 11.2577 4.05665 11.2012 4.02841C11.6499 3.8442 12.0207 3.50994 12.2504 3.0827C12.4801 2.65547 12.5543 2.16176 12.4604 1.68588C12.3665 1.21 12.1104 0.781466 11.7357 0.473459C11.361 0.165451 10.8909 -0.00292969 10.4059 -0.00292969C9.92084 -0.00292969 9.45083 0.165451 9.07612 0.473459C8.70142 0.781466 8.44525 1.21 8.35137 1.68588C8.25749 2.16176 8.33172 2.65547 8.56138 3.0827C8.79104 3.50994 9.16189 3.8442 9.6106 4.02841L9.43177 4.05665C8.23648 4.26371 8.11413 4.55547 7.97295 4.78606L6.67883 7.57194C6.6401 7.64813 6.61715 7.73135 6.61133 7.81662C6.60552 7.90189 6.61697 7.98745 6.64501 8.06819C6.67304 8.14893 6.71708 8.22319 6.77448 8.28651C6.83188 8.34983 6.90147 8.40092 6.97908 8.43671C7.05669 8.47251 7.14073 8.49227 7.22616 8.49483C7.31158 8.49739 7.39665 8.48268 7.47626 8.45159C7.55587 8.4205 7.62839 8.37366 7.68948 8.31389C7.75057 8.25411 7.79896 8.18263 7.83177 8.10371L8.71177 6.26371V11.4402C8.71177 11.6399 8.7911 11.8314 8.9323 11.9726C9.07351 12.1138 9.26502 12.1931 9.46471 12.1931C9.66441 12.1931 9.85592 12.1138 9.99712 11.9726C10.1383 11.8314 10.2177 11.6399 10.2177 11.4402V9.40253C10.2355 9.36796 10.2625 9.33897 10.2957 9.31873C10.3289 9.29849 10.367 9.28778 10.4059 9.28778C10.4448 9.28778 10.4829 9.29849 10.5161 9.31873C10.5493 9.33897 10.5763 9.36796 10.5941 9.40253V11.459C10.5941 11.6587 10.6735 11.8502 10.8147 11.9914C10.9559 12.1326 11.1474 12.2119 11.3471 12.2119C11.5468 12.2119 11.7383 12.1326 11.8795 11.9914C12.0207 11.8502 12.1 11.6587 12.1 11.459V6.28253L12.9565 8.12253C12.9893 8.20145 13.0377 8.27293 13.0988 8.33271C13.1599 8.39249 13.2324 8.43932 13.312 8.47041C13.3916 8.5015 13.4767 8.51621 13.5621 8.51365C13.6475 8.5111 13.7316 8.49133 13.8092 8.45553C13.8868 8.41974 13.9564 8.36865 14.0138 8.30533C14.0712 8.24201 14.1152 8.16776 14.1432 8.08702C14.1713 8.00628 14.1827 7.92071 14.1769 7.83544C14.1711 7.75017 14.1482 7.66695 14.1094 7.59077L14.1282 7.57194Z" fill="#344054"/>
    </g>
    <defs>
        <clipPath id="clip0_2093_12634">
            <rect width="32" height="32" fill="white" transform="translate(0.5)"/>
        </clipPath>
    </defs>
</svg>