<svg width="60" height="32" viewBox="0 0 60 32" fill="none" xmlns="http://www.w3.org/2000/svg">
<circle cx="16" cy="16" r="16" fill="#DAB1C2"/>
<g filter="url(#filter0_f_2133_18557)">
<path d="M23.3761 24.0816C24.5836 23.7247 26.7811 22.747 27.57 22.0214C28.4797 21.2621 26.5864 20.4056 26.3616 20.2767C26.1369 20.1478 15.0958 14.7295 13.1703 13.8904C11.2448 13.0513 5.15897 14.7973 3.68634 15.601C2.48597 16.256 3.33665 16.7235 3.49726 16.8522C3.65788 16.981 12.8566 22.0505 16.1624 23.599C18.6658 24.7716 21.0058 24.782 23.3761 24.0816Z" fill="black" fill-opacity="0.2"/>
</g>
<path d="M17.5498 18.4295C17.5313 18.3839 16.238 18.1645 15.5937 18.0605C15.3565 18.2573 14.8729 18.6712 14.8363 18.7531C14.7906 18.8554 14.8387 19.6637 15.3463 20.2568C15.8539 20.8499 16.9787 19.9648 17.3349 19.829C17.6911 19.6933 17.573 18.4865 17.5498 18.4295Z" fill="#2C2C2C"/>
<path d="M8.18997 13.8402C8.17145 13.7946 6.87813 13.5752 6.23379 13.4713C5.9966 13.668 5.51308 14.0819 5.47648 14.1638C5.43074 14.2661 5.47883 15.0744 5.98642 15.6675C6.494 16.2606 7.61886 15.3755 7.97505 15.2398C8.33124 15.104 8.21312 13.8972 8.18997 13.8402Z" fill="#131313"/>
<path fill-rule="evenodd" clip-rule="evenodd" d="M17.1604 21.8334C16.99 21.6087 16.8355 21.3506 16.7068 21.0661C16.5879 20.803 16.5006 20.5387 16.4441 20.2825L15.7733 18.8303L16.9441 18.2935C16.9663 18.2813 16.989 18.27 17.0124 18.2596C17.7368 17.9386 18.7746 18.6746 19.3304 19.9035C19.8861 21.1325 19.7493 22.389 19.0249 22.71C19.0062 22.7183 18.9873 22.7259 18.9683 22.7327L17.8194 23.2602L17.1604 21.8334Z" fill="black"/>
<ellipse cx="1.43784" cy="2.43647" rx="1.43784" ry="2.43647" transform="matrix(-0.913331 0.40507 0.412089 0.912115 17.1182 18.2374)" fill="black"/>
<g filter="url(#filter1_i_2133_18557)">
<ellipse cx="1.07843" cy="1.82743" rx="1.07843" ry="1.82743" transform="matrix(-0.913331 0.40507 0.412089 0.912115 16.999 18.9399)" fill="url(#paint0_linear_2133_18557)"/>
</g>
<g filter="url(#filter2_di_2133_18557)">
<path fill-rule="evenodd" clip-rule="evenodd" d="M17.5184 22.3507L17.0587 21.56C17.0832 21.5397 17.1037 21.5138 17.12 21.4834L17.7746 21.8587C17.7364 22.0692 17.6501 22.2417 17.5184 22.3507ZM16.417 21.112C16.4125 21.099 16.4082 21.086 16.4043 21.073L15.7479 20.6967C15.7678 20.8748 15.813 21.0635 15.8847 21.2536L16.417 21.112ZM17.1552 21.1365C17.163 21.1809 17.1669 21.2239 17.167 21.2649L17.7967 21.6259C17.8003 21.4298 17.7692 21.2131 17.702 20.991L17.1552 21.1365ZM17.6311 20.7889L17.0937 20.9319L17.0848 20.9117C17.0812 20.9038 17.0776 20.896 17.0738 20.8882L17.3956 20.3347C17.4653 20.441 17.5291 20.5568 17.5851 20.6806C17.6014 20.7167 17.6167 20.7528 17.6311 20.7889ZM16.7474 21.5539C16.7328 21.5451 16.7183 21.5353 16.7039 21.5246L16.3876 22.0687C16.5025 22.1884 16.6245 22.285 16.7474 22.354C16.9486 22.467 17.1521 22.506 17.3305 22.4519L16.8312 21.5929C16.8034 21.5838 16.7753 21.5706 16.7474 21.5539ZM16.5489 21.365L16.2399 21.8966C16.1392 21.7658 16.0472 21.6165 15.9692 21.4521L16.5106 21.308C16.5229 21.3278 16.5357 21.3468 16.5489 21.365ZM16.7474 20.5301C16.8147 20.562 16.8823 20.6158 16.9432 20.6868L17.2577 20.1458C17.1005 19.9523 16.9242 19.8035 16.7474 19.7127C16.5352 19.6036 16.3223 19.578 16.1407 19.6586C16.0906 19.6808 16.045 19.7101 16.004 19.7458L16.4711 20.5493C16.4871 20.5353 16.5049 20.5239 16.5244 20.5152C16.5913 20.4855 16.6692 20.493 16.7474 20.5301ZM16.3682 20.8069L15.7369 20.4449C15.7425 20.2441 15.7848 20.0655 15.8618 19.9255L16.3688 20.7975L16.3682 20.8069Z" fill="#4C4C4C"/>
</g>
<path fill-rule="evenodd" clip-rule="evenodd" d="M17.1604 21.8065C16.9903 21.5821 16.8361 21.3243 16.7077 21.0403C16.589 20.7778 16.5019 20.514 16.4454 20.2583L15.7741 18.8047L16.9418 18.2696C16.965 18.2566 16.9889 18.2447 17.0135 18.2338C17.738 17.9128 18.7758 18.6489 19.3315 19.8779C19.8871 21.1069 19.7502 22.3635 19.0257 22.6845C19.0079 22.6924 18.9899 22.6996 18.9717 22.7062L17.82 23.2348L17.1604 21.8065Z" fill="black"/>
<path d="M15.4928 21.6487C16.0408 22.8619 17.0641 23.5885 17.7785 23.2718C18.4929 22.955 18.6278 21.7148 18.0798 20.5017C17.5318 19.2886 16.4775 18.4966 15.7631 18.8133C15.0488 19.1301 14.9448 20.4356 15.4928 21.6487Z" fill="#222222"/>
<g filter="url(#filter3_i_2133_18557)">
<ellipse cx="1.0107" cy="1.76222" rx="1.0107" ry="1.76222" transform="matrix(-0.909287 0.415117 0.398889 0.917367 16.9956 19.0075)" fill="url(#paint1_linear_2133_18557)"/>
</g>
<g filter="url(#filter4_di_2133_18557)">
<path fill-rule="evenodd" clip-rule="evenodd" d="M16.3794 21.8261C16.4596 21.9272 16.5455 22.0139 16.6338 22.0835L16.4984 21.7774L16.3794 21.8261ZM16.0617 21.2625C15.9557 20.9876 15.9114 20.7144 15.9247 20.48L16.2387 21.1902L16.0617 21.2625ZM17.0915 20.8416C16.967 20.5884 16.768 20.426 16.6033 20.4345L16.3315 19.8199C16.6942 19.7269 17.1719 20.0983 17.4441 20.6975L17.0915 20.8416ZM17.6227 21.3179C17.6702 21.7056 17.5849 22.0384 17.38 22.1912L17.1083 21.5766C17.1257 21.5574 17.1406 21.535 17.1532 21.5098L17.6227 21.3179Z" fill="#A9A8A8"/>
</g>
<path fill-rule="evenodd" clip-rule="evenodd" d="M7.30341 17.0508C7.19456 16.8357 7.10453 16.5947 7.04062 16.3353C6.98162 16.0959 6.94967 15.8603 6.94238 15.6362L6.60468 14.3129L7.71721 14.0282L7.71724 14.0283C7.72479 14.0262 7.7324 14.0242 7.74005 14.0224C8.40154 13.8618 9.16088 14.637 9.43608 15.7539C9.71129 16.8707 9.39814 17.9063 8.73665 18.0668C8.72609 18.0694 8.71551 18.0717 8.70491 18.0738L7.63457 18.3484L7.30341 17.0508Z" fill="black"/>
<ellipse cx="1.23137" cy="2.08428" rx="1.23137" ry="2.08428" transform="matrix(-0.973683 0.236818 0.238303 0.969054 7.83447 14.0176)" fill="black"/>
<g filter="url(#filter5_i_2133_18557)">
<ellipse cx="0.923574" cy="1.56328" rx="0.923574" ry="1.56328" transform="matrix(-0.973683 0.236818 0.238303 0.969054 7.62402 14.5901)" fill="url(#paint2_linear_2133_18557)"/>
</g>
<g filter="url(#filter6_di_2133_18557)">
<path fill-rule="evenodd" clip-rule="evenodd" d="M7.44557 15.3462C7.52053 15.4297 7.59012 15.5287 7.65142 15.6402L7.31976 16.0275L7.44557 15.3462ZM7.13948 17.0036L7.35062 17.5921C7.24854 17.6044 7.14382 17.5828 7.04176 17.5328L7.13948 17.0036ZM6.8756 17.4245L7.00003 16.7508C6.98898 16.7412 6.97814 16.7307 6.96755 16.7195L6.61574 17.1303C6.69416 17.2485 6.78232 17.3482 6.8756 17.4245ZM7.15937 15.888L7.28665 15.1988C7.12599 15.0774 6.95195 15.0251 6.78744 15.0652C6.74139 15.0764 6.69803 15.0944 6.65758 15.1184L6.9249 15.8634C6.94051 15.8542 6.95723 15.8473 6.97498 15.843C7.03565 15.8282 7.09965 15.8458 7.15937 15.888ZM7.52468 17.535L7.26138 16.8012C7.28473 16.788 7.30567 16.7697 7.32393 16.747L7.81678 17.1631C7.75142 17.3327 7.65197 17.4635 7.52468 17.535ZM6.78987 16.3278C6.78805 16.3159 6.7865 16.304 6.78524 16.2923L6.29205 15.8759C6.28034 16.0289 6.28849 16.1948 6.31883 16.3658L6.78987 16.3278ZM7.40893 16.4607C7.40848 16.4993 7.40491 16.5363 7.39845 16.5708L7.87272 16.9712C7.90721 16.8065 7.91558 16.6191 7.89402 16.4215L7.40893 16.4607ZM7.86635 16.241L7.38951 16.2794L7.38511 16.2606C7.38329 16.2532 7.38138 16.2459 7.37939 16.2386L7.73813 15.8197C7.78055 15.9202 7.81648 16.028 7.84434 16.1415C7.85252 16.1748 7.85985 16.208 7.86635 16.241ZM6.86181 16.5622L6.51813 16.9635C6.45315 16.8375 6.39866 16.6968 6.35853 16.5454L6.83767 16.5068C6.84513 16.5259 6.8532 16.5444 6.86181 16.5622ZM6.79739 16.0634L6.32292 15.6628C6.35948 15.4963 6.42304 15.3536 6.50955 15.2481L6.79932 16.0557L6.79739 16.0634Z" fill="#4C4C4C"/>
</g>
<path fill-rule="evenodd" clip-rule="evenodd" d="M7.32552 17.1696C7.15694 16.9012 7.01885 16.5782 6.93042 16.22C6.84691 15.8819 6.81725 15.5512 6.8348 15.25L6.60242 14.341L7.19077 14.1907C7.31048 14.0472 7.45731 13.9482 7.6272 13.9071C8.28796 13.747 9.0473 14.5231 9.32324 15.6405C9.58722 16.7095 9.31313 17.7036 8.71031 17.9278L8.72892 18.0001L7.63428 18.3774L7.32552 17.1696Z" fill="black"/>
<ellipse cx="1.2267" cy="2.07739" rx="1.2267" ry="2.07739" transform="matrix(-0.973055 0.23606 0.239042 0.969687 7.81519 14.0623)" fill="#222222"/>
<g filter="url(#filter7_i_2133_18557)">
<g filter="url(#filter8_i_2133_18557)">
<ellipse cx="0.865122" cy="1.50983" rx="0.865122" ry="1.50983" transform="matrix(-0.977873 0.215465 0.233754 0.970984 7.58813 14.7116)" fill="url(#paint3_linear_2133_18557)"/>
</g>
<g filter="url(#filter9_di_2133_18557)">
<path fill-rule="evenodd" clip-rule="evenodd" d="M6.46948 16.5971C6.53271 16.8151 6.62953 17.0057 6.74384 17.1518L6.62246 16.5729L6.46948 16.5971ZM6.39418 16.0376C6.39727 15.9189 6.41347 15.8081 6.44144 15.7096L6.50649 16.0198L6.39418 16.0376ZM7.17779 15.9135C7.13171 15.8699 7.08209 15.8404 7.03237 15.8287L6.91463 15.2672C7.15529 15.2779 7.40518 15.5073 7.56844 15.8517L7.17779 15.9135ZM7.73038 16.3974C7.80135 16.9017 7.65374 17.3367 7.36935 17.4358L7.25157 16.8741C7.35676 16.8121 7.41442 16.6464 7.40238 16.4494L7.73038 16.3974Z" fill="#A9A8A8"/>
</g>
</g>
<g filter="url(#filter10_ii_2133_18557)">
<path d="M27.3791 20.1507C27.5462 19.8294 27.5053 19.5427 27.5135 19.2838L27.5135 18.6231C27.5135 18.0985 27.5185 17.649 27.5135 17.4767C27.5084 17.3044 27.7002 16.8063 26.7779 15.8833C25.9497 15.0545 24.1297 14.0933 23.6762 13.9731C23.2228 13.8529 21.303 11.1226 20.589 10.5886C18.4567 8.99355 13.0503 7.46104 11.7131 7.46104C10.9386 7.42853 7.69991 9.02391 7.33876 9.24466C5.47137 10.3861 6.7334 9.92652 5.35374 11.6621C5.27541 11.7422 5.21858 12.1114 5.21624 12.3719C5.21551 12.453 5.20494 12.5341 5.17529 12.6095C5.1424 12.6932 5.10762 12.7821 5.1028 12.8039C5.0575 13.0091 5.19354 14.0279 5.19354 14.2261C5.19354 14.4577 5.14723 14.8777 5.19354 15.1115C5.23986 15.3453 5.83441 15.9043 5.84023 15.8336C5.84023 15.5738 5.85764 15.5273 5.92674 15.1115C6.10783 14.4634 6.42256 14.1765 6.67307 14.1243C7.19709 14.0151 7.67618 14.2288 8.05453 14.8841C8.67135 15.9526 8.5468 16.6833 8.55443 17.2057C8.55688 17.3735 8.66427 17.5153 8.81358 17.5921L14.8298 20.6842C14.9941 20.7686 15.1761 20.6307 15.1657 20.4463C15.1493 20.1568 15.1531 18.794 16.005 18.5029C16.7556 18.2464 17.7102 19.1827 18.1587 19.9419C18.4849 20.4942 18.7475 21.5494 18.8453 22.2705C18.8709 22.4592 18.98 22.6313 19.1529 22.7111C19.71 22.9682 20.8717 23.3687 22.5027 22.8614C26.4078 21.6469 27.2125 20.4713 27.3791 20.1507Z" fill="url(#paint4_linear_2133_18557)"/>
</g>
<mask id="mask0_2133_18557" style="mask-type:alpha" maskUnits="userSpaceOnUse" x="5" y="7" width="23" height="17">
<path d="M27.2308 20.4681C27.4073 20.1517 27.3748 19.8639 27.3906 19.6054L27.4101 18.945C27.4256 18.4206 27.4438 17.9714 27.4439 17.799C27.4439 17.6267 27.6502 17.1343 26.7555 16.1851C25.9521 15.3328 24.1612 14.3194 23.7115 14.1862C23.2617 14.053 21.4232 11.2684 20.7253 10.7139C18.6408 9.05805 13.2818 7.37011 11.9453 7.33151C11.172 7.27666 7.88771 8.77787 7.52021 8.9881C5.61999 10.0751 6.89503 9.65219 5.46483 11.3472C5.38417 11.425 5.3165 11.7924 5.30648 12.0527C5.30336 12.1337 5.29041 12.2145 5.25855 12.2891C5.22321 12.3718 5.18583 12.4597 5.18037 12.4813C5.12905 12.685 5.23502 13.7074 5.22918 13.9055C5.22236 14.1369 5.16369 14.5555 5.2031 14.7905C5.24251 15.0256 5.82035 15.6015 5.82825 15.5309C5.83615 15.4604 5.88626 15.0642 5.87842 14.79C5.89245 14.3138 6.30605 13.9187 6.71108 13.8464C7.23809 13.7524 7.71211 13.9316 8.07099 14.5976C8.70652 15.777 8.44279 16.435 8.39369 16.9331C8.37719 17.1005 8.48251 17.2465 8.63003 17.3274L14.6599 20.634C14.822 20.7229 15.0088 20.5852 15.0038 20.4003C14.9959 20.1104 15.05 18.759 15.9101 18.4926C16.6679 18.2579 17.5945 19.2213 18.0204 19.9931C18.3303 20.5546 18.5617 21.6169 18.6382 22.3406C18.6582 22.5299 18.7622 22.7051 18.9327 22.7898C19.4819 23.0629 20.6314 23.4968 22.2767 23.0368C26.2158 21.9356 27.0548 20.7837 27.2308 20.4681Z" fill="url(#paint5_linear_2133_18557)"/>
</mask>
<g mask="url(#mask0_2133_18557)">
<g filter="url(#filter11_ddi_2133_18557)">
<path d="M17.0386 16.0935C16.4606 15.6514 16.4538 15.1062 15.718 13.6931C15.5452 13.361 15.6835 12.9464 16.0286 12.8016L20.3125 11.0034C20.5371 10.9091 20.8117 10.9209 20.9798 11.0973C21.1983 11.3264 21.5766 11.7581 22.2316 12.5664C22.8127 13.2836 22.9232 13.4625 23.3555 13.8962C23.407 13.9479 23.3024 14.0848 23.0789 14.2672C22.3664 14.8484 18.0991 16.9044 17.0386 16.0935Z" fill="url(#paint6_linear_2133_18557)"/>
</g>
<g filter="url(#filter12_di_2133_18557)">
<path d="M11.0783 11.0255C9.69502 10.3521 9.31522 10.2706 8.34696 10.6359C7.85747 10.8205 7.25186 11.024 7.16542 11.355C7.07898 11.686 8.50101 12.4756 8.91699 12.7034C9.12029 12.8148 16.3757 16.6158 16.2252 16.1734C16.0408 15.6312 15.0279 13.4586 14.6517 12.9089C14.4097 12.555 12.4616 11.699 11.0783 11.0255Z" fill="url(#paint7_linear_2133_18557)"/>
</g>
<g filter="url(#filter13_f_2133_18557)">
<path d="M18.8469 18.8871C17.0737 18.0712 16.0773 17.0469 15.009 16.1106C18.1902 17.0444 24.8489 19.0877 24.7445 19.2206C24.6141 19.3868 24.1359 19.584 22.5468 19.6901C20.9823 19.7945 19.05 18.9805 18.8469 18.8871Z" fill="url(#paint8_linear_2133_18557)" fill-opacity="0.21"/>
</g>
<g filter="url(#filter14_f_2133_18557)">
<path d="M25.6943 14.9927C25.5935 14.9107 24.3275 13.6119 23.3795 12.9653C24.1631 14.479 25.9495 17.7689 26.1157 17.7525C26.3233 17.7319 27.2736 17.5557 27.5535 16.9158C27.829 16.2857 25.8203 15.0953 25.6943 14.9927Z" fill="url(#paint9_linear_2133_18557)" fill-opacity="0.13"/>
</g>
<g filter="url(#filter15_di_2133_18557)">
<path d="M12.707 15.6366C12.707 15.5962 12.6839 15.5594 12.6474 15.5418L12.1291 15.2923C12.0583 15.2582 11.9758 15.3098 11.9758 15.3882C11.9758 15.4289 11.9992 15.4659 12.0359 15.4835L12.5546 15.7322C12.6251 15.766 12.707 15.7146 12.707 15.6366Z" fill="#323232"/>
</g>
<g filter="url(#filter16_di_2133_18557)">
<path d="M9.31395 14.1544C9.31396 14.114 9.29079 14.0772 9.25429 14.0596L8.736 13.8101C8.66522 13.776 8.58278 13.8276 8.58278 13.906C8.58278 13.9467 8.60611 13.9837 8.64285 14.0013L9.16154 14.25C9.23201 14.2838 9.31395 14.2324 9.31395 14.1544Z" fill="#323232"/>
</g>
<path d="M21.1987 15.2943L17.4177 12.2431C16.9548 12.3672 15.9048 12.8457 15.7041 12.9204C15.444 13.0171 15.4542 13.1652 15.4542 13.1652C15.4542 13.2429 15.4449 13.1885 15.5274 13.3425C15.6643 13.598 15.7739 13.8261 16.0692 14.4839C16.5763 15.6139 16.6844 15.8985 17.1181 16.1561C17.4448 16.3502 18.1306 16.3879 18.9625 16.1162C19.706 15.8733 20.559 15.5797 21.1987 15.2943Z" fill="#C4C4C4" fill-opacity="0.2"/>
<g opacity="0.17" filter="url(#filter17_f_2133_18557)">
<path d="M26.6499 16.6981C25.5487 17.5606 23.0989 18.7936 22.0051 18.9817" stroke="url(#paint10_linear_2133_18557)" stroke-width="7.0478" stroke-linecap="round" stroke-linejoin="round"/>
</g>
<g filter="url(#filter18_ddii_2133_18557)">
<path d="M27.0362 17.1863C27.2435 16.9086 27.1938 16.6846 27.1615 16.343C27.1586 16.312 27.1509 16.2811 27.1433 16.2508C27.0921 16.0454 27.4665 16.6042 27.5075 16.9957C27.5215 17.1309 27.5129 17.1993 27.5002 17.324C27.4944 17.3811 27.3019 17.7583 27.3196 17.8335C27.3372 17.9087 27.3174 18.4752 27.3202 18.5536C27.3229 18.6319 27.0493 19.1375 26.1828 19.699C25.463 20.1655 24.4292 20.4713 24.3232 20.4863C24.2172 20.5013 24.113 20.1487 24.036 20.1292C23.8346 20.0781 23.2399 20.2943 23.0179 20.3495C22.7588 20.4139 22.1543 20.5623 21.4934 20.4777C20.6759 20.373 20.5508 20.2808 19.799 19.8746C19.4875 19.7063 19.2323 19.439 19.0529 19.191C18.8884 18.9637 19.0856 18.7525 19.3524 18.8393C19.9337 19.0284 20.8062 19.2877 21.7651 19.3859C23.5691 19.5706 24.9931 18.7219 25.1971 18.5999C26.0547 18.087 26.5052 17.8975 27.0362 17.1863Z" fill="#272727"/>
</g>
<mask id="mask1_2133_18557" style="mask-type:alpha" maskUnits="userSpaceOnUse" x="18" y="16" width="10" height="5">
<path d="M27.037 17.1829C27.0534 17.1608 27.0684 17.1384 27.0819 17.1157C27.2262 16.8737 27.5523 16.7269 27.596 17.0082C27.6102 17.1433 27.6069 17.2291 27.5943 17.3538C27.5885 17.4108 27.2955 17.7343 27.3132 17.8095C27.3309 17.8847 27.3136 18.3483 27.3137 18.5131C27.3138 18.678 27.051 19.1334 26.1848 19.6955C25.4652 20.1623 24.4315 20.4688 24.3255 20.4839C24.2195 20.499 24.1151 20.1466 24.0382 20.1271C23.8367 20.0762 23.2421 20.2928 23.0201 20.3481C22.761 20.4127 22.1565 20.5615 21.4956 20.4774C20.678 20.3734 20.5528 20.2813 19.8009 19.8758C19.4863 19.7062 19.2292 19.4358 19.0494 19.1861C18.8859 18.959 19.0812 18.7527 19.3478 18.8393C19.9293 19.0281 20.8045 19.288 21.7667 19.3858C23.5709 19.569 24.9946 18.7195 25.1985 18.5974C26.0559 18.084 26.5064 17.8942 27.037 17.1829Z" fill="#272727"/>
</mask>
<g mask="url(#mask1_2133_18557)">
<g filter="url(#filter19_d_2133_18557)">
<path d="M20.3082 19.0526L22.4675 19.0844C22.4677 19.0853 22.468 19.0863 22.4681 19.0873C22.4804 19.1463 22.486 19.2211 22.4672 19.2958C22.4492 19.3674 22.4074 19.4454 22.313 19.5154C22.2161 19.5872 22.0567 19.6555 21.7967 19.6901C21.6464 19.7101 21.4344 19.7097 21.2161 19.6687C20.9972 19.6276 20.7826 19.5479 20.6177 19.4178C20.5322 19.3504 20.4191 19.2086 20.3204 19.0698C20.3163 19.0641 20.3122 19.0583 20.3082 19.0526Z" stroke="white" stroke-opacity="0.9" stroke-width="0.296586"/>
</g>
<g filter="url(#filter20_d_2133_18557)">
<path d="M27.1471 16.6435C27.1828 16.7626 27.1949 16.9141 27.1196 17.0746C27.1008 17.1147 27.0798 17.1286 27.0726 17.1315C27.0702 17.1325 27.0692 17.1324 27.068 17.1322C27.0664 17.132 27.0587 17.1304 27.0452 17.1203C26.9893 17.0785 26.9205 17.0666 26.8742 17.062C26.8723 17.0618 26.8705 17.0616 26.8686 17.0615L27.1471 16.6435Z" stroke="white" stroke-opacity="0.9" stroke-width="0.296586"/>
</g>
</g>
<g filter="url(#filter21_f_2133_18557)">
<path d="M15.2071 17.7048L9.31897 14.9502C9.12832 14.861 8.90555 15.0804 8.95693 15.2845C9.08202 15.7815 9.06832 16.2543 9.05392 16.5517C9.04976 16.6376 9.09631 16.7175 9.17308 16.7564L14.7833 19.5984C14.929 19.6722 15.1021 19.5661 15.1138 19.4032C15.147 18.9397 15.2429 18.5631 15.3588 18.3033C15.4367 18.129 15.38 17.7857 15.2071 17.7048Z" fill="url(#paint11_linear_2133_18557)" fill-opacity="0.22"/>
</g>
</g>
<path d="M42.45 21.5L40.168 11.938H42.198L43.836 19.638H44.41L46.02 11.938H48.05L45.81 21.5H42.45ZM49.0141 21.5V14.472H50.8761V21.5H49.0141ZM49.0141 13.352V11.756H50.8901V13.352H49.0141ZM52.4321 24.454V14.472H54.2801L54.2941 14.92C54.4248 14.836 54.5881 14.7473 54.7841 14.654C54.9894 14.5607 55.2088 14.4813 55.4421 14.416C55.6754 14.3507 55.9041 14.318 56.1281 14.318C57.0708 14.318 57.7474 14.6213 58.1581 15.228C58.5688 15.8253 58.7741 16.7353 58.7741 17.958C58.7741 18.8353 58.6714 19.5447 58.4661 20.086C58.2608 20.6273 57.9294 21.024 57.4721 21.276C57.0241 21.528 56.4314 21.654 55.6941 21.654C55.4608 21.654 55.2088 21.6353 54.9381 21.598C54.6674 21.5607 54.4528 21.5233 54.2941 21.486V24.454H52.4321ZM55.4001 20.1C55.7734 20.1 56.0674 20.0207 56.2821 19.862C56.4968 19.7033 56.6461 19.4653 56.7301 19.148C56.8234 18.8213 56.8701 18.4107 56.8701 17.916C56.8701 17.1507 56.7628 16.6233 56.5481 16.334C56.3428 16.0353 56.0441 15.886 55.6521 15.886C55.5028 15.886 55.3441 15.9047 55.1761 15.942C55.0081 15.9793 54.8448 16.026 54.6861 16.082C54.5274 16.138 54.3968 16.194 54.2941 16.25V20.002C54.4061 20.0113 54.5648 20.03 54.7701 20.058C54.9848 20.086 55.1948 20.1 55.4001 20.1Z" fill="#0D3244"/>
<defs>
<filter id="filter0_f_2133_18557" x="1.54768" y="12.1605" width="27.7752" height="13.9017" filterUnits="userSpaceOnUse" color-interpolation-filters="sRGB">
<feFlood flood-opacity="0" result="BackgroundImageFix"/>
<feBlend mode="normal" in="SourceGraphic" in2="BackgroundImageFix" result="shape"/>
<feGaussianBlur stdDeviation="0.753626" result="effect1_foregroundBlur_2133_18557"/>
</filter>
<filter id="filter1_i_2133_18557" x="15.5271" y="19.32" width="2.47998" height="3.44708" filterUnits="userSpaceOnUse" color-interpolation-filters="sRGB">
<feFlood flood-opacity="0" result="BackgroundImageFix"/>
<feBlend mode="normal" in="SourceGraphic" in2="BackgroundImageFix" result="shape"/>
<feColorMatrix in="SourceAlpha" type="matrix" values="0 0 0 0 0 0 0 0 0 0 0 0 0 0 0 0 0 0 127 0" result="hardAlpha"/>
<feMorphology radius="0.106785" operator="erode" in="SourceAlpha" result="effect1_innerShadow_2133_18557"/>
<feOffset/>
<feGaussianBlur stdDeviation="0.0533924"/>
<feComposite in2="hardAlpha" operator="arithmetic" k2="-1" k3="1"/>
<feColorMatrix type="matrix" values="0 0 0 0 0 0 0 0 0 0 0 0 0 0 0 0 0 0 0.25 0"/>
<feBlend mode="normal" in2="shape" result="effect1_innerShadow_2133_18557"/>
</filter>
<filter id="filter2_di_2133_18557" x="15.4165" y="19.5901" width="2.44473" height="3.09946" filterUnits="userSpaceOnUse" color-interpolation-filters="sRGB">
<feFlood flood-opacity="0" result="BackgroundImageFix"/>
<feColorMatrix in="SourceAlpha" type="matrix" values="0 0 0 0 0 0 0 0 0 0 0 0 0 0 0 0 0 0 127 0" result="hardAlpha"/>
<feOffset dy="0.0427139"/>
<feGaussianBlur stdDeviation="0.0320354"/>
<feColorMatrix type="matrix" values="0 0 0 0 1 0 0 0 0 1 0 0 0 0 1 0 0 0 0.41 0"/>
<feBlend mode="normal" in2="BackgroundImageFix" result="effect1_dropShadow_2133_18557"/>
<feBlend mode="normal" in="SourceGraphic" in2="effect1_dropShadow_2133_18557" result="shape"/>
<feColorMatrix in="SourceAlpha" type="matrix" values="0 0 0 0 0 0 0 0 0 0 0 0 0 0 0 0 0 0 127 0" result="hardAlpha"/>
<feOffset dx="-0.320354" dy="0.21357"/>
<feGaussianBlur stdDeviation="0.160177"/>
<feComposite in2="hardAlpha" operator="arithmetic" k2="-1" k3="1"/>
<feColorMatrix type="matrix" values="0 0 0 0 0 0 0 0 0 0 0 0 0 0 0 0 0 0 0.25 0"/>
<feBlend mode="normal" in2="shape" result="effect2_innerShadow_2133_18557"/>
</filter>
<filter id="filter3_i_2133_18557" x="15.6223" y="19.3731" width="2.31421" height="3.34113" filterUnits="userSpaceOnUse" color-interpolation-filters="sRGB">
<feFlood flood-opacity="0" result="BackgroundImageFix"/>
<feBlend mode="normal" in="SourceGraphic" in2="BackgroundImageFix" result="shape"/>
<feColorMatrix in="SourceAlpha" type="matrix" values="0 0 0 0 0 0 0 0 0 0 0 0 0 0 0 0 0 0 127 0" result="hardAlpha"/>
<feMorphology radius="0.135761" operator="erode" in="SourceAlpha" result="effect1_innerShadow_2133_18557"/>
<feOffset/>
<feGaussianBlur stdDeviation="0.0678806"/>
<feComposite in2="hardAlpha" operator="arithmetic" k2="-1" k3="1"/>
<feColorMatrix type="matrix" values="0 0 0 0 0 0 0 0 0 0 0 0 0 0 0 0 0 0 0.25 0"/>
<feBlend mode="normal" in2="shape" result="effect1_innerShadow_2133_18557"/>
</filter>
<filter id="filter4_di_2133_18557" x="15.7487" y="19.7941" width="1.94464" height="2.51282" filterUnits="userSpaceOnUse" color-interpolation-filters="sRGB">
<feFlood flood-opacity="0" result="BackgroundImageFix"/>
<feColorMatrix in="SourceAlpha" type="matrix" values="0 0 0 0 0 0 0 0 0 0 0 0 0 0 0 0 0 0 127 0" result="hardAlpha"/>
<feOffset dy="0.0463002"/>
<feGaussianBlur stdDeviation="0.0289376"/>
<feColorMatrix type="matrix" values="0 0 0 0 1 0 0 0 0 1 0 0 0 0 1 0 0 0 0.59 0"/>
<feBlend mode="normal" in2="BackgroundImageFix" result="effect1_dropShadow_2133_18557"/>
<feBlend mode="normal" in="SourceGraphic" in2="effect1_dropShadow_2133_18557" result="shape"/>
<feColorMatrix in="SourceAlpha" type="matrix" values="0 0 0 0 0 0 0 0 0 0 0 0 0 0 0 0 0 0 127 0" result="hardAlpha"/>
<feOffset dx="-0.173626" dy="0.115751"/>
<feGaussianBlur stdDeviation="0.0868129"/>
<feComposite in2="hardAlpha" operator="arithmetic" k2="-1" k3="1"/>
<feColorMatrix type="matrix" values="0 0 0 0 0 0 0 0 0 0 0 0 0 0 0 0 0 0 0.25 0"/>
<feBlend mode="normal" in2="shape" result="effect2_innerShadow_2133_18557"/>
</filter>
<filter id="filter5_i_2133_18557" x="6.12354" y="14.7929" width="1.94727" height="3.06161" filterUnits="userSpaceOnUse" color-interpolation-filters="sRGB">
<feFlood flood-opacity="0" result="BackgroundImageFix"/>
<feBlend mode="normal" in="SourceGraphic" in2="BackgroundImageFix" result="shape"/>
<feColorMatrix in="SourceAlpha" type="matrix" values="0 0 0 0 0 0 0 0 0 0 0 0 0 0 0 0 0 0 127 0" result="hardAlpha"/>
<feMorphology radius="0.0913354" operator="erode" in="SourceAlpha" result="effect1_innerShadow_2133_18557"/>
<feOffset/>
<feGaussianBlur stdDeviation="0.0456677"/>
<feComposite in2="hardAlpha" operator="arithmetic" k2="-1" k3="1"/>
<feColorMatrix type="matrix" values="0 0 0 0 0 0 0 0 0 0 0 0 0 0 0 0 0 0 0.25 0"/>
<feBlend mode="normal" in2="shape" result="effect1_innerShadow_2133_18557"/>
</filter>
<filter id="filter6_di_2133_18557" x="6.01286" y="15.0336" width="1.9477" height="2.74449" filterUnits="userSpaceOnUse" color-interpolation-filters="sRGB">
<feFlood flood-opacity="0" result="BackgroundImageFix"/>
<feColorMatrix in="SourceAlpha" type="matrix" values="0 0 0 0 0 0 0 0 0 0 0 0 0 0 0 0 0 0 127 0" result="hardAlpha"/>
<feOffset dy="0.0365342"/>
<feGaussianBlur stdDeviation="0.0274006"/>
<feColorMatrix type="matrix" values="0 0 0 0 1 0 0 0 0 1 0 0 0 0 1 0 0 0 0.41 0"/>
<feBlend mode="normal" in2="BackgroundImageFix" result="effect1_dropShadow_2133_18557"/>
<feBlend mode="normal" in="SourceGraphic" in2="effect1_dropShadow_2133_18557" result="shape"/>
<feColorMatrix in="SourceAlpha" type="matrix" values="0 0 0 0 0 0 0 0 0 0 0 0 0 0 0 0 0 0 127 0" result="hardAlpha"/>
<feOffset dx="-0.274006" dy="0.182671"/>
<feGaussianBlur stdDeviation="0.137003"/>
<feComposite in2="hardAlpha" operator="arithmetic" k2="-1" k3="1"/>
<feColorMatrix type="matrix" values="0 0 0 0 0 0 0 0 0 0 0 0 0 0 0 0 0 0 0.25 0"/>
<feBlend mode="normal" in2="shape" result="effect2_innerShadow_2133_18557"/>
</filter>
<filter id="filter7_i_2133_18557" x="6.17822" y="14.8861" width="1.83374" height="2.95596" filterUnits="userSpaceOnUse" color-interpolation-filters="sRGB">
<feFlood flood-opacity="0" result="BackgroundImageFix"/>
<feBlend mode="normal" in="SourceGraphic" in2="BackgroundImageFix" result="shape"/>
<feColorMatrix in="SourceAlpha" type="matrix" values="0 0 0 0 0 0 0 0 0 0 0 0 0 0 0 0 0 0 127 0" result="hardAlpha"/>
<feMorphology radius="0.0812055" operator="erode" in="SourceAlpha" result="effect1_innerShadow_2133_18557"/>
<feOffset/>
<feGaussianBlur stdDeviation="0.0406028"/>
<feComposite in2="hardAlpha" operator="arithmetic" k2="-1" k3="1"/>
<feColorMatrix type="matrix" values="0 0 0 0 0 0 0 0 0 0 0 0 0 0 0 0 0 0 0.25 0"/>
<feBlend mode="normal" in2="shape" result="effect1_innerShadow_2133_18557"/>
</filter>
<filter id="filter8_i_2133_18557" x="6.17822" y="14.8861" width="1.83374" height="2.95596" filterUnits="userSpaceOnUse" color-interpolation-filters="sRGB">
<feFlood flood-opacity="0" result="BackgroundImageFix"/>
<feBlend mode="normal" in="SourceGraphic" in2="BackgroundImageFix" result="shape"/>
<feColorMatrix in="SourceAlpha" type="matrix" values="0 0 0 0 0 0 0 0 0 0 0 0 0 0 0 0 0 0 127 0" result="hardAlpha"/>
<feMorphology radius="0.140612" operator="erode" in="SourceAlpha" result="effect1_innerShadow_2133_18557"/>
<feOffset/>
<feGaussianBlur stdDeviation="0.0703062"/>
<feComposite in2="hardAlpha" operator="arithmetic" k2="-1" k3="1"/>
<feColorMatrix type="matrix" values="0 0 0 0 0 0 0 0 0 0 0 0 0 0 0 0 0 0 0.25 0"/>
<feBlend mode="normal" in2="shape" result="effect1_innerShadow_2133_18557"/>
</filter>
<filter id="filter9_di_2133_18557" x="6.21446" y="15.2552" width="1.59353" height="2.30049" filterUnits="userSpaceOnUse" color-interpolation-filters="sRGB">
<feFlood flood-opacity="0" result="BackgroundImageFix"/>
<feColorMatrix in="SourceAlpha" type="matrix" values="0 0 0 0 0 0 0 0 0 0 0 0 0 0 0 0 0 0 127 0" result="hardAlpha"/>
<feOffset dy="0.0479547"/>
<feGaussianBlur stdDeviation="0.0299717"/>
<feColorMatrix type="matrix" values="0 0 0 0 1 0 0 0 0 1 0 0 0 0 1 0 0 0 0.59 0"/>
<feBlend mode="normal" in2="BackgroundImageFix" result="effect1_dropShadow_2133_18557"/>
<feBlend mode="normal" in="SourceGraphic" in2="effect1_dropShadow_2133_18557" result="shape"/>
<feColorMatrix in="SourceAlpha" type="matrix" values="0 0 0 0 0 0 0 0 0 0 0 0 0 0 0 0 0 0 127 0" result="hardAlpha"/>
<feOffset dx="-0.17983" dy="0.119887"/>
<feGaussianBlur stdDeviation="0.089915"/>
<feComposite in2="hardAlpha" operator="arithmetic" k2="-1" k3="1"/>
<feColorMatrix type="matrix" values="0 0 0 0 0 0 0 0 0 0 0 0 0 0 0 0 0 0 0.25 0"/>
<feBlend mode="normal" in2="shape" result="effect2_innerShadow_2133_18557"/>
</filter>
<filter id="filter10_ii_2133_18557" x="5.09351" y="6.37445" width="23.2479" height="16.731" filterUnits="userSpaceOnUse" color-interpolation-filters="sRGB">
<feFlood flood-opacity="0" result="BackgroundImageFix"/>
<feBlend mode="normal" in="SourceGraphic" in2="BackgroundImageFix" result="shape"/>
<feColorMatrix in="SourceAlpha" type="matrix" values="0 0 0 0 0 0 0 0 0 0 0 0 0 0 0 0 0 0 127 0" result="hardAlpha"/>
<feOffset dx="0.814567" dy="-1.08609"/>
<feGaussianBlur stdDeviation="3.25827"/>
<feComposite in2="hardAlpha" operator="arithmetic" k2="-1" k3="1"/>
<feColorMatrix type="matrix" values="0 0 0 0 0 0 0 0 0 0 0 0 0 0 0 0 0 0 0.07 0"/>
<feBlend mode="normal" in2="shape" result="effect1_innerShadow_2133_18557"/>
<feColorMatrix in="SourceAlpha" type="matrix" values="0 0 0 0 0 0 0 0 0 0 0 0 0 0 0 0 0 0 127 0" result="hardAlpha"/>
<feOffset dy="-0.135761"/>
<feGaussianBlur stdDeviation="0.271522"/>
<feComposite in2="hardAlpha" operator="arithmetic" k2="-1" k3="1"/>
<feColorMatrix type="matrix" values="0 0 0 0 0 0 0 0 0 0 0 0 0 0 0 0 0 0 0.09 0"/>
<feBlend mode="normal" in2="effect1_innerShadow_2133_18557" result="effect2_innerShadow_2133_18557"/>
</filter>
<filter id="filter11_ddi_2133_18557" x="15.2164" y="10.6246" width="8.36556" height="5.97613" filterUnits="userSpaceOnUse" color-interpolation-filters="sRGB">
<feFlood flood-opacity="0" result="BackgroundImageFix"/>
<feColorMatrix in="SourceAlpha" type="matrix" values="0 0 0 0 0 0 0 0 0 0 0 0 0 0 0 0 0 0 127 0" result="hardAlpha"/>
<feOffset dx="-0.21357" dy="0.106785"/>
<feGaussianBlur stdDeviation="0.106785"/>
<feColorMatrix type="matrix" values="0 0 0 0 1 0 0 0 0 1 0 0 0 0 1 0 0 0 0.28 0"/>
<feBlend mode="normal" in2="BackgroundImageFix" result="effect1_dropShadow_2133_18557"/>
<feColorMatrix in="SourceAlpha" type="matrix" values="0 0 0 0 0 0 0 0 0 0 0 0 0 0 0 0 0 0 127 0" result="hardAlpha"/>
<feOffset dy="-0.106785"/>
<feGaussianBlur stdDeviation="0.106785"/>
<feColorMatrix type="matrix" values="0 0 0 0 1 0 0 0 0 1 0 0 0 0 1 0 0 0 0.56 0"/>
<feBlend mode="normal" in2="effect1_dropShadow_2133_18557" result="effect2_dropShadow_2133_18557"/>
<feBlend mode="normal" in="SourceGraphic" in2="effect2_dropShadow_2133_18557" result="shape"/>
<feColorMatrix in="SourceAlpha" type="matrix" values="0 0 0 0 0 0 0 0 0 0 0 0 0 0 0 0 0 0 127 0" result="hardAlpha"/>
<feOffset dx="-0.106785" dy="0.320354"/>
<feGaussianBlur stdDeviation="0.160177"/>
<feComposite in2="hardAlpha" operator="arithmetic" k2="-1" k3="1"/>
<feColorMatrix type="matrix" values="0 0 0 0 0 0 0 0 0 0 0 0 0 0 0 0 0 0 0.75 0"/>
<feBlend mode="normal" in2="shape" result="effect3_innerShadow_2133_18557"/>
</filter>
<filter id="filter12_di_2133_18557" x="6.63748" y="10.421" width="9.66868" height="6.16761" filterUnits="userSpaceOnUse" color-interpolation-filters="sRGB">
<feFlood flood-opacity="0" result="BackgroundImageFix"/>
<feColorMatrix in="SourceAlpha" type="matrix" values="0 0 0 0 0 0 0 0 0 0 0 0 0 0 0 0 0 0 127 0" result="hardAlpha"/>
<feOffset dy="0.0786176"/>
<feGaussianBlur stdDeviation="0.0393088"/>
<feColorMatrix type="matrix" values="0 0 0 0 0.925374 0 0 0 0 0.925374 0 0 0 0 0.925374 0 0 0 0.37 0"/>
<feBlend mode="normal" in2="BackgroundImageFix" result="effect1_dropShadow_2133_18557"/>
<feBlend mode="normal" in="SourceGraphic" in2="effect1_dropShadow_2133_18557" result="shape"/>
<feColorMatrix in="SourceAlpha" type="matrix" values="0 0 0 0 0 0 0 0 0 0 0 0 0 0 0 0 0 0 127 0" result="hardAlpha"/>
<feOffset dx="-0.524145" dy="0.379402"/>
<feGaussianBlur stdDeviation="0.262072"/>
<feComposite in2="hardAlpha" operator="arithmetic" k2="-1" k3="1"/>
<feColorMatrix type="matrix" values="0 0 0 0 0 0 0 0 0 0 0 0 0 0 0 0 0 0 0.63 0"/>
<feBlend mode="normal" in2="shape" result="effect2_innerShadow_2133_18557"/>
</filter>
<filter id="filter13_f_2133_18557" x="12.0191" y="13.1207" width="15.7168" height="9.5686" filterUnits="userSpaceOnUse" color-interpolation-filters="sRGB">
<feFlood flood-opacity="0" result="BackgroundImageFix"/>
<feBlend mode="normal" in="SourceGraphic" in2="BackgroundImageFix" result="shape"/>
<feGaussianBlur stdDeviation="1.49499" result="effect1_foregroundBlur_2133_18557"/>
</filter>
<filter id="filter14_f_2133_18557" x="21.4575" y="11.0432" width="8.04396" height="8.63139" filterUnits="userSpaceOnUse" color-interpolation-filters="sRGB">
<feFlood flood-opacity="0" result="BackgroundImageFix"/>
<feBlend mode="normal" in="SourceGraphic" in2="BackgroundImageFix" result="shape"/>
<feGaussianBlur stdDeviation="0.961063" result="effect1_foregroundBlur_2133_18557"/>
</filter>
<filter id="filter15_di_2133_18557" x="11.9229" y="15.1757" width="0.837127" height="0.831892" filterUnits="userSpaceOnUse" color-interpolation-filters="sRGB">
<feFlood flood-opacity="0" result="BackgroundImageFix"/>
<feColorMatrix in="SourceAlpha" type="matrix" values="0 0 0 0 0 0 0 0 0 0 0 0 0 0 0 0 0 0 127 0" result="hardAlpha"/>
<feOffset dy="-0.0529629"/>
<feGaussianBlur stdDeviation="0.0264815"/>
<feColorMatrix type="matrix" values="0 0 0 0 0.78755 0 0 0 0 0.78755 0 0 0 0 0.78755 0 0 0 0.19 0"/>
<feBlend mode="normal" in2="BackgroundImageFix" result="effect1_dropShadow_2133_18557"/>
<feBlend mode="normal" in="SourceGraphic" in2="effect1_dropShadow_2133_18557" result="shape"/>
<feColorMatrix in="SourceAlpha" type="matrix" values="0 0 0 0 0 0 0 0 0 0 0 0 0 0 0 0 0 0 127 0" result="hardAlpha"/>
<feOffset dy="0.264815"/>
<feGaussianBlur stdDeviation="0.132407"/>
<feComposite in2="hardAlpha" operator="arithmetic" k2="-1" k3="1"/>
<feColorMatrix type="matrix" values="0 0 0 0 0 0 0 0 0 0 0 0 0 0 0 0 0 0 0.74 0"/>
<feBlend mode="normal" in2="shape" result="effect2_innerShadow_2133_18557"/>
</filter>
<filter id="filter16_di_2133_18557" x="8.5298" y="13.6935" width="0.837127" height="0.831892" filterUnits="userSpaceOnUse" color-interpolation-filters="sRGB">
<feFlood flood-opacity="0" result="BackgroundImageFix"/>
<feColorMatrix in="SourceAlpha" type="matrix" values="0 0 0 0 0 0 0 0 0 0 0 0 0 0 0 0 0 0 127 0" result="hardAlpha"/>
<feOffset dy="-0.0529629"/>
<feGaussianBlur stdDeviation="0.0264815"/>
<feColorMatrix type="matrix" values="0 0 0 0 0.78755 0 0 0 0 0.78755 0 0 0 0 0.78755 0 0 0 0.19 0"/>
<feBlend mode="normal" in2="BackgroundImageFix" result="effect1_dropShadow_2133_18557"/>
<feBlend mode="normal" in="SourceGraphic" in2="effect1_dropShadow_2133_18557" result="shape"/>
<feColorMatrix in="SourceAlpha" type="matrix" values="0 0 0 0 0 0 0 0 0 0 0 0 0 0 0 0 0 0 127 0" result="hardAlpha"/>
<feOffset dy="0.264815"/>
<feGaussianBlur stdDeviation="0.132407"/>
<feComposite in2="hardAlpha" operator="arithmetic" k2="-1" k3="1"/>
<feColorMatrix type="matrix" values="0 0 0 0 0 0 0 0 0 0 0 0 0 0 0 0 0 0 0.74 0"/>
<feBlend mode="normal" in2="shape" result="effect2_innerShadow_2133_18557"/>
</filter>
<filter id="filter17_f_2133_18557" x="17.4126" y="12.1063" width="13.8293" height="11.4677" filterUnits="userSpaceOnUse" color-interpolation-filters="sRGB">
<feFlood flood-opacity="0" result="BackgroundImageFix"/>
<feBlend mode="normal" in="SourceGraphic" in2="BackgroundImageFix" result="shape"/>
<feGaussianBlur stdDeviation="0.533924" result="effect1_foregroundBlur_2133_18557"/>
</filter>
<filter id="filter18_ddii_2133_18557" x="18.8686" y="16.0207" width="8.77006" height="5.33742" filterUnits="userSpaceOnUse" color-interpolation-filters="sRGB">
<feFlood flood-opacity="0" result="BackgroundImageFix"/>
<feColorMatrix in="SourceAlpha" type="matrix" values="0 0 0 0 0 0 0 0 0 0 0 0 0 0 0 0 0 0 127 0" result="hardAlpha"/>
<feOffset dy="0.0930342"/>
<feGaussianBlur stdDeviation="0.0620228"/>
<feColorMatrix type="matrix" values="0 0 0 0 0 0 0 0 0 0 0 0 0 0 0 0 0 0 0.57 0"/>
<feBlend mode="normal" in2="BackgroundImageFix" result="effect1_dropShadow_2133_18557"/>
<feColorMatrix in="SourceAlpha" type="matrix" values="0 0 0 0 0 0 0 0 0 0 0 0 0 0 0 0 0 0 127 0" result="hardAlpha"/>
<feOffset dy="-0.0620228"/>
<feGaussianBlur stdDeviation="0.0620228"/>
<feColorMatrix type="matrix" values="0 0 0 0 0 0 0 0 0 0 0 0 0 0 0 0 0 0 1 0"/>
<feBlend mode="normal" in2="effect1_dropShadow_2133_18557" result="effect2_dropShadow_2133_18557"/>
<feBlend mode="normal" in="SourceGraphic" in2="effect2_dropShadow_2133_18557" result="shape"/>
<feColorMatrix in="SourceAlpha" type="matrix" values="0 0 0 0 0 0 0 0 0 0 0 0 0 0 0 0 0 0 127 0" result="hardAlpha"/>
<feOffset dy="0.855056"/>
<feGaussianBlur stdDeviation="0.871395"/>
<feComposite in2="hardAlpha" operator="arithmetic" k2="-1" k3="1"/>
<feColorMatrix type="matrix" values="0 0 0 0 0 0 0 0 0 0 0 0 0 0 0 0 0 0 1 0"/>
<feBlend mode="normal" in2="shape" result="effect3_innerShadow_2133_18557"/>
<feColorMatrix in="SourceAlpha" type="matrix" values="0 0 0 0 0 0 0 0 0 0 0 0 0 0 0 0 0 0 127 0" result="hardAlpha"/>
<feOffset dy="-0.0931761"/>
<feGaussianBlur stdDeviation="0.0931761"/>
<feComposite in2="hardAlpha" operator="arithmetic" k2="-1" k3="1"/>
<feColorMatrix type="matrix" values="0 0 0 0 0 0 0 0 0 0 0 0 0 0 0 0 0 0 0.5 0"/>
<feBlend mode="normal" in2="effect3_innerShadow_2133_18557" result="effect4_innerShadow_2133_18557"/>
</filter>
<filter id="filter19_d_2133_18557" x="20.0056" y="18.9003" width="2.84375" height="1.19651" filterUnits="userSpaceOnUse" color-interpolation-filters="sRGB">
<feFlood flood-opacity="0" result="BackgroundImageFix"/>
<feColorMatrix in="SourceAlpha" type="matrix" values="0 0 0 0 0 0 0 0 0 0 0 0 0 0 0 0 0 0 127 0" result="hardAlpha"/>
<feOffset dx="0.0988619" dy="0.122805"/>
<feGaussianBlur stdDeviation="0.0614025"/>
<feColorMatrix type="matrix" values="0 0 0 0 1 0 0 0 0 1 0 0 0 0 1 0 0 0 0.24 0"/>
<feBlend mode="normal" in2="BackgroundImageFix" result="effect1_dropShadow_2133_18557"/>
<feBlend mode="normal" in="SourceGraphic" in2="effect1_dropShadow_2133_18557" result="shape"/>
</filter>
<filter id="filter20_d_2133_18557" x="26.5542" y="16.3469" width="0.99146" height="1.17896" filterUnits="userSpaceOnUse" color-interpolation-filters="sRGB">
<feFlood flood-opacity="0" result="BackgroundImageFix"/>
<feColorMatrix in="SourceAlpha" type="matrix" values="0 0 0 0 0 0 0 0 0 0 0 0 0 0 0 0 0 0 127 0" result="hardAlpha"/>
<feOffset dx="0.0988619" dy="0.122805"/>
<feGaussianBlur stdDeviation="0.0614025"/>
<feColorMatrix type="matrix" values="0 0 0 0 1 0 0 0 0 1 0 0 0 0 1 0 0 0 0.24 0"/>
<feBlend mode="normal" in2="BackgroundImageFix" result="effect1_dropShadow_2133_18557"/>
<feBlend mode="normal" in="SourceGraphic" in2="effect1_dropShadow_2133_18557" result="shape"/>
</filter>
<filter id="filter21_f_2133_18557" x="8.62099" y="14.6013" width="7.10054" height="5.3495" filterUnits="userSpaceOnUse" color-interpolation-filters="sRGB">
<feFlood flood-opacity="0" result="BackgroundImageFix"/>
<feBlend mode="normal" in="SourceGraphic" in2="BackgroundImageFix" result="shape"/>
<feGaussianBlur stdDeviation="0.164234" result="effect1_foregroundBlur_2133_18557"/>
</filter>
<linearGradient id="paint0_linear_2133_18557" x1="2.54378" y1="2.78771" x2="2.66982" y2="0.908326" gradientUnits="userSpaceOnUse">
<stop stop-color="#3F3F3F"/>
<stop offset="1" stop-color="#5C5C5C"/>
</linearGradient>
<linearGradient id="paint1_linear_2133_18557" x1="2.38403" y1="2.68822" x2="2.50905" y2="0.876386" gradientUnits="userSpaceOnUse">
<stop stop-color="#AAAAAA"/>
<stop offset="1" stop-color="#C2C2C2"/>
</linearGradient>
<linearGradient id="paint2_linear_2133_18557" x1="2.17851" y1="2.38475" x2="2.28621" y2="0.777013" gradientUnits="userSpaceOnUse">
<stop stop-color="#3F3F3F"/>
<stop offset="1" stop-color="#5C5C5C"/>
</linearGradient>
<linearGradient id="paint3_linear_2133_18557" x1="2.04063" y1="2.30322" x2="2.14785" y2="0.750885" gradientUnits="userSpaceOnUse">
<stop stop-color="#AAAAAA"/>
<stop offset="1" stop-color="#C2C2C2"/>
</linearGradient>
<linearGradient id="paint4_linear_2133_18557" x1="8.86246" y1="16.629" x2="26.6956" y2="14.0779" gradientUnits="userSpaceOnUse">
<stop stop-color="#CECBCB"/>
<stop offset="1" stop-color="white"/>
</linearGradient>
<linearGradient id="paint5_linear_2133_18557" x1="18.7202" y1="19.774" x2="13.6804" y2="7.12868" gradientUnits="userSpaceOnUse">
<stop stop-color="#1B1B1B"/>
<stop offset="1" stop-color="#1B1B1B"/>
</linearGradient>
<linearGradient id="paint6_linear_2133_18557" x1="19.8155" y1="6.88795" x2="13.6918" y2="12.7409" gradientUnits="userSpaceOnUse">
<stop stop-color="#E8EAE9"/>
<stop offset="0.498386" stop-color="#707072"/>
<stop offset="1" stop-color="#2F3032"/>
</linearGradient>
<linearGradient id="paint7_linear_2133_18557" x1="23.4534" y1="28.6792" x2="20.1148" y2="9.89789" gradientUnits="userSpaceOnUse">
<stop stop-color="#E8EAE9"/>
<stop offset="0.498386" stop-color="#707072"/>
<stop offset="1" stop-color="#2F3032"/>
</linearGradient>
<linearGradient id="paint8_linear_2133_18557" x1="19.5556" y1="19.9073" x2="20.3092" y2="17.6821" gradientUnits="userSpaceOnUse">
<stop stop-color="#ECEAEA"/>
<stop offset="1" stop-color="white" stop-opacity="0"/>
</linearGradient>
<linearGradient id="paint9_linear_2133_18557" x1="28.2756" y1="15.9516" x2="25.3865" y2="16.9701" gradientUnits="userSpaceOnUse">
<stop stop-color="#ECEAEA"/>
<stop offset="1" stop-color="white" stop-opacity="0"/>
</linearGradient>
<linearGradient id="paint10_linear_2133_18557" x1="24.3988" y1="18.9574" x2="23.8896" y2="17.9572" gradientUnits="userSpaceOnUse">
<stop stop-color="#4B4B4B"/>
<stop offset="0.899322" stop-opacity="0"/>
</linearGradient>
<linearGradient id="paint11_linear_2133_18557" x1="11.203" y1="19.1924" x2="12.6944" y2="16.4903" gradientUnits="userSpaceOnUse">
<stop stop-color="#040404"/>
<stop offset="1" stop-color="#3C3C3C" stop-opacity="0"/>
</linearGradient>
</defs>
</svg>
